<?xml version="1.0" encoding="utf-8"?>
<!-- Generator: Adobe Illustrator 26.3.1, SVG Export Plug-In . SVG Version: 6.00 Build 0)  -->
<svg version="1.1" id="Capa_1" xmlns="http://www.w3.org/2000/svg" xmlns:xlink="http://www.w3.org/1999/xlink" x="0px" y="0px"
	 viewBox="0 0 24 21" style="enable-background:new 0 0 24 21;" xml:space="preserve">
<style type="text/css">
	.email{fill-rule:evenodd;clip-rule:evenodd;fill:#AEA780;}
</style>
<g>
	<path class="email" d="M3.1,4.1C3.2,3.7,3.6,3.5,4,3.5h16c0.4,0,0.8,0.2,0.9,0.6l-0.5,0.4l2.6,0c0-1.6-1.4-3-3-3H4c-1.6,0-3,1.3-3,3
		l2.6,0L3.1,4.1z"/>
	<path class="email" d="M12,11.2L3.6,4.5L1,4.5v0v12c0,1.7,1.3,3,3,3h16c1.7,0,3-1.3,3-3v-12l-2.6,0L12,11.2z M21,16.1l-3.3-3.3
		c-0.4-0.4-1-0.4-1.4,0s-0.4,1,0,1.4l3.3,3.3H4.4l3.3-3.3c0.4-0.4,0.4-1,0-1.4c-0.4-0.4-1-0.4-1.4,0L3,16.1V6.6l8.4,6.7
		c0.4,0.3,0.9,0.3,1.2,0L21,6.6V16.1z"/>
</g>
</svg>
