<?xml version="1.0" encoding="utf-8"?>
<!-- Generator: Adobe Illustrator 26.0.3, SVG Export Plug-In . SVG Version: 6.00 Build 0)  -->
<svg version="1.1" id="Capa_1" xmlns="http://www.w3.org/2000/svg" xmlns:xlink="http://www.w3.org/1999/xlink" x="0px" y="0px"
	 viewBox="0 0 100 70" style="enable-background:new 0 0 100 70;" xml:space="preserve">
<style type="text/css">
	#hotels-Capa_1 .st0{fill:#231F20;}
</style>
<g>
	<path class="st0" d="M40.2,21.1v2.8H40c0-1.4-0.6-2.6-1.3-2.6h-1.3v13.6h0.8v0.2H35v-0.2h0.8V21.3h-1.3c-0.7,0-1.3,1.2-1.3,2.6H33
		v-2.8H40.2z"/>
	<path class="st0" d="M58.3,31.8h0.2c0,1.7,1.1,3,2.4,3c1,0,1.8-1.1,1.8-2.4c0-3.6-4.4-3.9-4.4-7.9c0-1.8,1-3.3,2.7-3.3
		c0.9,0,1.5,0.3,2,0.9c0.3,0,0.5-0.2,0.5-0.7h0.2v2.9h-0.2c0-1.6-1-2.8-2.2-2.8c-1,0-1.6,0.9-1.6,2.3c0,3.6,4.4,3.9,4.4,7.9
		c0,1.9-1.1,3.5-2.9,3.5c-1,0-1.8-0.4-2.3-1.2c-0.2,0.1-0.4,0.3-0.4,1h-0.2V31.8z"/>
	<path class="st0" d="M66.6,47.1c-0.7,0.8-1.7,1.2-2.9,1.2c-2-0.1-3.6-1-4.7-2.5c-0.8-1.1-1.2-2.4-1.6-3.6c-0.3-0.9-0.5-1.8-0.7-2.7
		c-0.3-1.2-0.7-2.4-1.1-3.6c-0.3-1.1-0.6-2.3-1-3.4c-0.4-1-0.9-2-1.7-2.7c-0.4-0.3-0.8-0.6-1.3-0.9c-0.3-0.1-0.5-0.2-0.8-0.3
		c-0.2-0.1-0.6-0.3-0.8-0.2c3.1-0.7,5.1-3.1,5.1-6v-1.6c0-3.4-2.8-6.2-7-6.2H42v0.4h1.6v26.4H42v0.4h6.2v-0.4h-1.6V28.5
		c0,0,1.6,0,1.6,0c2.4,0,3.2,2.5,3.7,4.4c0.4,1.5,0.8,2.7,1.2,4.1c0.4,1.4,0.7,2.4,1.2,4.2c0.5,1.8,0.7,2.4,1.3,3.5
		c0.6,1.1,1.5,2.1,2.6,2.8c1.1,0.7,2.3,1.2,3.7,1.4c1.6,0.3,3.1-0.1,4.3-1c0.3-0.2,0.5-0.5,0.8-0.8L66.6,47.1z M46.6,28.1V14.9h1.6
		c2.1,0,3.9,2.6,3.9,5.8v1.6c0,3.2-1.7,5.8-3.9,5.8H46.6z"/>
	<g>
		<path class="st0" d="M36.7,55.4v-1.7h-1.4v1.7h-0.4v-3.6h0.4v1.6h1.4v-1.6H37v3.6H36.7z"/>
		<path class="st0" d="M43.3,53.6c0,0.3,0,0.5-0.1,0.8c-0.1,0.2-0.1,0.4-0.2,0.6c-0.1,0.2-0.2,0.3-0.4,0.4c-0.1,0.1-0.3,0.1-0.5,0.1
			c-0.2,0-0.4,0-0.5-0.1c-0.1-0.1-0.3-0.2-0.4-0.4c-0.1-0.2-0.2-0.4-0.2-0.6c-0.1-0.2-0.1-0.5-0.1-0.8c0-0.3,0-0.5,0.1-0.8
			c0.1-0.2,0.1-0.4,0.2-0.6c0.1-0.2,0.2-0.3,0.4-0.4s0.3-0.1,0.5-0.1c0.2,0,0.4,0,0.5,0.1s0.3,0.2,0.4,0.4c0.1,0.2,0.2,0.4,0.2,0.6
			C43.3,53,43.3,53.3,43.3,53.6z M42.9,53.6c0-0.2,0-0.4-0.1-0.6c0-0.2-0.1-0.4-0.2-0.5c-0.1-0.1-0.2-0.2-0.3-0.3
			c-0.1-0.1-0.2-0.1-0.3-0.1c-0.1,0-0.3,0-0.4,0.1c-0.1,0.1-0.2,0.2-0.3,0.3c-0.1,0.1-0.1,0.3-0.2,0.5c0,0.2-0.1,0.4-0.1,0.6
			c0,0.2,0,0.4,0.1,0.6c0,0.2,0.1,0.4,0.2,0.5c0.1,0.1,0.2,0.3,0.3,0.3c0.1,0.1,0.2,0.1,0.4,0.1c0.1,0,0.3,0,0.4-0.1
			c0.1-0.1,0.2-0.2,0.3-0.3c0.1-0.1,0.1-0.3,0.2-0.5C42.9,54,42.9,53.8,42.9,53.6z"/>
		<path class="st0" d="M47.7,52.1v3.3h-0.3v-3.3h-0.7v-0.3h1.7v0.3H47.7z"/>
		<path class="st0" d="M52,55.4v-3.6h1.4v0.3h-1.1v1.3h1v0.3h-1v1.4h1.2v0.3H52z"/>
		<path class="st0" d="M57.4,55.4v-3.6h0.4V55h1v0.3H57.4z"/>
		<path class="st0" d="M64,54.5c0,0.2,0,0.3-0.1,0.4c0,0.1-0.1,0.2-0.2,0.3c-0.1,0.1-0.2,0.2-0.3,0.2c-0.1,0-0.2,0.1-0.4,0.1
			c-0.2,0-0.4,0-0.5-0.1c-0.2-0.1-0.3-0.2-0.4-0.3l0.2-0.2c0.1,0.1,0.2,0.2,0.3,0.3c0.1,0.1,0.2,0.1,0.4,0.1c0.2,0,0.3-0.1,0.4-0.2
			c0.1-0.1,0.2-0.3,0.2-0.5c0-0.1,0-0.2-0.1-0.3c0-0.1-0.1-0.1-0.1-0.2c-0.1-0.1-0.1-0.1-0.2-0.2c-0.1,0-0.1-0.1-0.2-0.1
			c-0.1,0-0.2-0.1-0.3-0.2c-0.1-0.1-0.2-0.1-0.2-0.2c-0.1-0.1-0.1-0.2-0.2-0.3c0-0.1-0.1-0.2-0.1-0.4c0-0.2,0-0.3,0.1-0.4
			c0.1-0.1,0.1-0.2,0.2-0.3c0.1-0.1,0.2-0.1,0.3-0.2c0.1,0,0.2-0.1,0.3-0.1c0.2,0,0.3,0,0.4,0.1c0.1,0.1,0.2,0.1,0.3,0.3l-0.2,0.2
			c-0.1-0.1-0.1-0.2-0.2-0.2c-0.1,0-0.2-0.1-0.3-0.1c-0.1,0-0.1,0-0.2,0c-0.1,0-0.1,0.1-0.2,0.1c-0.1,0.1-0.1,0.1-0.1,0.2
			c0,0.1-0.1,0.2-0.1,0.3c0,0.1,0,0.2,0,0.3c0,0.1,0.1,0.1,0.1,0.2c0.1,0.1,0.1,0.1,0.2,0.2c0.1,0,0.1,0.1,0.2,0.1
			c0.1,0,0.2,0.1,0.3,0.2c0.1,0.1,0.2,0.1,0.3,0.2c0.1,0.1,0.1,0.2,0.2,0.3C64,54.2,64,54.3,64,54.5z"/>
	</g>
</g>
</svg>
