<?xml version="1.0" encoding="utf-8"?>
<!-- Generator: Adobe Illustrator 26.3.1, SVG Export Plug-In . SVG Version: 6.00 Build 0)  -->
<svg version="1.1" id="Capa_1" xmlns="http://www.w3.org/2000/svg" xmlns:xlink="http://www.w3.org/1999/xlink" x="0px" y="0px"
	 viewBox="0 0 24 23" style="enable-background:new 0 0 24 23;" xml:space="preserve">
<style type="text/css">
	.info0{fill:#AEA780;}
	.info1{fill-rule:evenodd;clip-rule:evenodd;fill:#AEA780;}
</style>
<g>
	<path class="info0" d="M12,10.5c0.6,0,1,0.4,1,1v4c0,0.6-0.4,1-1,1c-0.6,0-1-0.4-1-1v-4C11,10.9,11.4,10.5,12,10.5z"/>
	<path class="info0" d="M12,6.5c-0.6,0-1,0.4-1,1s0.4,1,1,1h0c0.6,0,1-0.4,1-1S12.6,6.5,12,6.5L12,6.5z"/>
	<path class="info1" d="M1,11.5c0-6.1,4.9-11,11-11c6.1,0,11,4.9,11,11c0,6.1-4.9,11-11,11C5.9,22.5,1,17.6,1,11.5z M12,2.5
		c-5,0-9,4-9,9c0,5,4,9,9,9c5,0,9-4,9-9C21,6.5,17,2.5,12,2.5z"/>
</g>
</svg>
