<?xml version="1.0" encoding="utf-8"?>
<!-- Generator: Adobe Illustrator 26.0.3, SVG Export Plug-In . SVG Version: 6.00 Build 0)  -->
<svg version="1.1" id="Capa_1" xmlns="http://www.w3.org/2000/svg" xmlns:xlink="http://www.w3.org/1999/xlink" x="0px" y="0px"
	 viewBox="0 0 425.2 141.7" style="enable-background:new 0 0 425.2 141.7;" xml:space="preserve">
<style type="text/css">
	#palladium-rewards-Capa_1 .st0{fill:#43685B;}
	#palladium-rewards-Capa_1 .st1{fill:#9B751E;}
</style>
<g>
	<path class="st0" d="M72.6,37.8H59.5v35.4H63V61.5h9.6c6.5,0,11.8-5.3,11.8-11.8v-0.1C84.5,43.1,79.2,37.8,72.6,37.8 M73.2,58
		L63,58V41.4h9.6c4.6,0,8.3,3.7,8.3,8.3C81,54.1,77.5,57.7,73.2,58"/>
	<path class="st0" d="M90.6,73.1h3.8l3-7.4h16l3,7.4h3.8l-14.7-36.7L90.6,73.1z M112,62.2H98.8l6.6-16.3L112,62.2z"/>
	<polygon class="st0" points="137.4,69.6 137.4,37.8 133.9,37.8 133.9,73.2 153.3,73.2 153.2,69.6 	"/>
	<polygon class="st0" points="170.8,69.6 170.8,37.8 167.3,37.8 167.3,73.2 186.6,73.2 186.6,69.6 	"/>
	<path class="st0" d="M200.3,73.1h3.8l3-7.4h16l3,7.4h3.8l-14.7-36.7L200.3,73.1z M221.7,62.2h-13.2l6.6-16.3L221.7,62.2z"/>
	<path class="st0" d="M251.5,37.8l-8-0.1v35.4h7.4c9.7,0,17.7-7.9,17.7-17.7C268.6,45.9,260.9,38.1,251.5,37.8 M250.9,69.6H247V41.3
		h3.9c7.8,0,14.1,6.3,14.1,14.1C265.1,63.3,258.7,69.6,250.9,69.6"/>
	<rect x="282.5" y="37.8" class="st0" width="3.5" height="35.4"/>
	<path class="st0" d="M319.3,61.7c0,2.8-1.4,5.5-3.9,6.9c-2.4,1.5-5.5,1.4-7.9,0c-2.4-1.5-3.9-4.1-3.9-6.9V37.8h-3.5v23.9
		c-0.1,4.1,2.1,7.9,5.7,10c1.8,1,3.8,1.5,5.7,1.5c2,0,4-0.5,5.7-1.5c3.5-2.1,5.7-5.9,5.7-10V37.8h-3.5L319.3,61.7z"/>
	<polygon class="st0" points="351.3,56.6 336.8,36.1 336.8,73.1 340.3,73.1 340.3,47.2 351.3,62.7 362.4,47.1 362.4,73.1 
		365.9,73.1 365.9,36.2 	"/>
</g>
<g>
	<path class="st0" d="M71.3,94c-0.2-2.9-2.7-5.2-5.6-5.2h-6.2v16.7h1.7V100H65l4.1,5.3l0.1,0.1h2.2L67,99.9
		C69.7,99.2,71.5,96.8,71.3,94z M69.6,94.4c0,2.1-1.7,3.9-3.8,3.9h-4.5v-7.7h4.5C67.8,90.6,69.6,92.3,69.6,94.4z"/>
	<polygon class="st0" points="108.4,105.5 118.7,105.5 118.7,103.8 110.1,103.8 110.1,100 117.6,100 117.6,98.3 110.1,98.3 
		110.1,90.6 118.7,90.6 118.7,88.9 108.4,88.9 	"/>
	<polygon class="st0" points="170.3,101 165.9,87.9 161.5,100.9 157.5,88.8 155.6,88.8 161.5,106.5 165.9,93.4 170.3,106.4 
		176.1,89.2 176.3,88.8 174.5,88.8 	"/>
	<path class="st0" d="M208.4,105.5h1.9l1.4-3.5h7.4l1.4,3.5h1.9l-7-17.4L208.4,105.5z M218.4,100.3h-6l3-7.5L218.4,100.3z"/>
	<path class="st0" d="M271,94c-0.2-2.9-2.7-5.2-5.6-5.2h-6.2v16.7h1.7V100h3.7l4.1,5.3l0.1,0.1h2.2l-4.3-5.6
		C269.4,99.2,271.2,96.8,271,94z M261,90.6h4.5c2.1,0,3.9,1.7,3.9,3.9c0,2.1-1.7,3.9-3.9,3.9H261V90.6z"/>
	<path class="st0" d="M311.9,88.9l-3.8,0v16.7h3.5c4.6,0,8.3-3.7,8.3-8.3C319.9,92.7,316.4,89,311.9,88.9z M309.8,90.6h1.8
		c3.6,0,6.6,3,6.6,6.6c0,3.6-3,6.6-6.6,6.6h-1.8V90.6z"/>
	<path class="st0" d="M363.5,96.4l-3.7-2.1c-0.8-0.4-1.1-1.4-0.9-2.2c0.2-0.8,1-1.4,1.9-1.4h0.4c0.7,0,1.3,0.4,1.7,1l0.2,0.3
		l1.5-0.9l-0.2-0.3c-0.7-1.1-1.9-1.8-3.2-1.8h-0.4c-1.7,0-3.1,1.1-3.6,2.8c-0.4,1.6,0.3,3.3,1.7,4.2l3.7,2.1
		c1.2,0.7,1.8,2.2,1.5,3.5c-0.4,1.4-1.6,2.3-3,2.3H361c-1,0-1.9-0.5-2.5-1.3l-0.2-0.3l-1.4,1.1l0.2,0.3c0.9,1.2,2.4,2,3.9,2
		c2.2,0,4.2-1.5,4.7-3.6C366.3,99.8,365.4,97.5,363.5,96.4z"/>
</g>
<path class="st1" d="M92.9,97.2c0,1.7-1.4,3.1-3.1,3.1c-1.7,0-3.1-1.4-3.1-3.1c0-1.7,1.4-3.1,3.1-3.1C91.5,94.2,92.9,95.5,92.9,97.2
	"/>
<path class="st1" d="M140.3,97.2c0,1.7-1.4,3.1-3.1,3.1c-1.7,0-3.1-1.4-3.1-3.1c0-1.7,1.4-3.1,3.1-3.1
	C138.9,94.2,140.3,95.5,140.3,97.2"/>
<path class="st1" d="M194.6,97.2c0,1.7-1.4,3.1-3.1,3.1c-1.7,0-3.1-1.4-3.1-3.1c0-1.7,1.4-3.1,3.1-3.1
	C193.3,94.2,194.6,95.5,194.6,97.2"/>
<path class="st1" d="M243.8,97.2c0,1.7-1.4,3.1-3.1,3.1c-1.7,0-3.1-1.4-3.1-3.1c0-1.7,1.4-3.1,3.1-3.1
	C242.4,94.2,243.8,95.5,243.8,97.2"/>
<path class="st1" d="M341.5,97.2c0,1.7-1.4,3.1-3.1,3.1c-1.7,0-3.1-1.4-3.1-3.1c0-1.7,1.4-3.1,3.1-3.1
	C340.1,94.2,341.5,95.5,341.5,97.2"/>
<path class="st1" d="M292.6,97.2c0,1.7-1.4,3.1-3.1,3.1c-1.7,0-3.1-1.4-3.1-3.1c0-1.7,1.4-3.1,3.1-3.1
	C291.2,94.2,292.6,95.5,292.6,97.2"/>
</svg>
