<?xml version="1.0" encoding="utf-8"?>
<!-- Generator: Adobe Illustrator 27.3.1, SVG Export Plug-In . SVG Version: 6.00 Build 0)  -->
<svg version="1.1" id="Capa_1" xmlns="http://www.w3.org/2000/svg" xmlns:xlink="http://www.w3.org/1999/xlink" x="0px" y="0px"
	 viewBox="0 0 120 70" style="enable-background:new 0 0 120 70;" xml:space="preserve">
<style type="text/css">
	#TS_hotels-Capa_1 .st0{fill:#292E4C;}
	#TS_hotels-Capa_1 .st1{fill:#E1241B;}
</style>
<g>
	<g>
		<path class="st0" d="M74.19,58.04h0.4v1.77h2.08v-1.77h0.4v4.02h-0.4v-1.89H74.6v1.89h-0.4V58.04z"/>
		<path class="st0" d="M83.31,57.97c1.13,0,2.13,0.89,2.13,2.08c0,1.18-1,2.08-2.13,2.08c-1.14,0-2.12-0.93-2.12-2.06
			C81.19,58.8,82.25,57.97,83.31,57.97z M83.31,61.76c0.93,0,1.73-0.76,1.73-1.71c0-0.94-0.78-1.72-1.73-1.72
			c-0.91,0-1.72,0.74-1.72,1.74C81.59,60.99,82.38,61.76,83.31,61.76z"/>
		<path class="st0" d="M89.94,58.4h-0.92v-0.36h2.25v0.36h-0.92v3.66h-0.4V58.4z"/>
		<path class="st0" d="M95.14,58.04h2.2v0.36h-1.8v1.44h1.74v0.36h-1.74v1.48h1.8v0.36h-2.2V58.04z"/>
		<path class="st0" d="M101.58,58.04h0.4v3.66h1.66v0.36h-2.07V58.04z"/>
		<path class="st1" d="M40.36,20.73c-2.34,0-4.45,1.13-5.54,2.61l-0.08-0.04l1.48-6.16c1.17,0.39,2.66,0.58,4.14,0.58
			c4.99,0,7.42-2.85,8.31-7.69L48.4,9.99c-0.39,1.21-2.03,2.85-5.66,2.85c-2.46,0-4.25-0.55-5.54-1.6h-0.24l-2.98,12.95
			c-0.4,0.07-0.89,0.11-1.52,0.11h-1.06V10.41c0-1.02,0.08-1.84,0.08-2.42c0-0.08-0.04-0.12-0.12-0.12h-3.86L16.35,24.3v0.58h8.94
			v3.47c0,1.09,0.04,2.3-0.16,3.12c-0.24,1.06-0.55,1.33-1.37,1.64c-0.2,0.08-0.98,0.16-1.37,0.16v0.2h8.48
			c0.73,2.18,3.15,3.92,7.05,3.92c6.36,0,10.66-3.47,10.66-9.25C48.6,23.97,45.9,20.73,40.36,20.73z M25.29,24.3h-8.16l8.12-11.98
			h0.04V24.3z M37.01,36.77c-0.55,0-1.02-0.24-1.33-0.78c-0.16-0.31-0.24-0.7-0.24-1.09c0-0.31,0.24-0.82,0.47-1.33
			c0.24-0.58,0.39-0.94,0.39-1.4c0-1.68-0.86-3.16-2.81-3.16c-0.84,0-1.56,0.31-2.08,0.85c-0.01-0.49,0-1,0-1.49v-3.47h1.06
			c0.85,0,1.58,0.08,2.04,0.21c0.58-1.75,1.68-2.89,3.43-2.89c2.42,0,3.9,1.48,3.9,5.89C41.85,32.86,39.9,36.77,37.01,36.77z"/>
		<path class="st0" d="M62.89,28.15c-0.2-0.62-0.83-1.93-1.71-2.74c-0.65-0.59-1.28-0.87-2.19-0.87h-0.81v8.65
			c0,1.51,0.06,2.99,0.29,3.77c0.16,0.49,0.49,0.78,0.91,0.94c0.18,0.06,0.43,0.09,0.61,0.1v0.13h-5.58v-0.13
			c0.18-0.02,0.43-0.04,0.61-0.1c0.42-0.15,0.75-0.44,0.91-0.94c0.24-0.78,0.32-2.27,0.32-3.77v-8.65h-0.81
			c-0.89,0-1.56,0.28-2.21,0.87c-0.89,0.81-1.48,2.12-1.7,2.74h-0.12l0.65-3.94h10.3l0.65,3.94L62.89,28.15L62.89,28.15z"/>
		<path class="st0" d="M62.93,38.15v-0.1c0.16-0.02,0.42-0.06,0.61-0.13c0.39-0.15,0.73-0.42,0.89-0.91
			c0.24-0.78,0.29-2.29,0.29-3.8v-4.03c0-1.53-0.06-3.01-0.29-3.8c-0.16-0.51-0.49-0.78-0.89-0.94c-0.2-0.06-0.46-0.1-0.61-0.13
			v-0.1h5.52v0.1c-0.18,0.02-0.43,0.06-0.61,0.13c-0.42,0.15-0.75,0.43-0.91,0.94c-0.24,0.78-0.28,2.27-0.28,3.8v4.03
			c0,1.51,0.04,3.01,0.28,3.8c0.16,0.49,0.49,0.76,0.91,0.91c0.18,0.06,0.43,0.1,0.61,0.13v0.1H62.93z"/>
		<path class="st0" d="M78.15,38.15v-0.1c0.18-0.02,0.43-0.06,0.61-0.13c0.42-0.15,0.75-0.42,0.91-0.91
			c0.24-0.78,0.29-2.29,0.29-3.8v-7.15h-0.08l-4.06,12.17h-0.53l-4.22-12.17h-0.06v8.44c0,1.38,0.18,2.04,0.38,2.55
			c0.16,0.44,0.51,0.76,0.85,0.87c0.22,0.06,0.39,0.1,0.67,0.13v0.1h-4.12v-0.1c0.28-0.02,0.46-0.06,0.65-0.13
			c0.36-0.1,0.71-0.42,0.87-0.87c0.2-0.51,0.36-1.17,0.36-2.55v-5.75c0-1.53-0.12-2.74-0.33-3.37c-0.18-0.48-0.53-0.81-0.95-0.95
			c-0.18-0.06-0.36-0.09-0.53-0.1v-0.1h3.84l3.71,10.86h0.08l3.67-10.86h3.57v0.1c-0.18,0.02-0.42,0.06-0.59,0.13
			c-0.42,0.15-0.75,0.43-0.91,0.94c-0.24,0.78-0.29,2.27-0.29,3.8v4.03c0,1.51,0.06,3.01,0.29,3.8c0.16,0.49,0.49,0.76,0.91,0.91
			c0.18,0.06,0.42,0.1,0.59,0.13v0.1L78.15,38.15L78.15,38.15z"/>
		<path class="st0" d="M93.81,38.15h-9.76v-0.1c0.18-0.02,0.43-0.06,0.61-0.13c0.42-0.15,0.75-0.42,0.91-0.91
			c0.24-0.78,0.29-2.29,0.29-3.8v-4.03c0-1.53-0.06-3.01-0.29-3.8c-0.16-0.51-0.49-0.78-0.91-0.94c-0.18-0.06-0.43-0.1-0.61-0.13
			v-0.1h9.19l0.49,3.88h-0.12c-0.32-1.19-0.85-2.16-1.54-2.84c-0.33-0.34-0.89-0.7-1.67-0.7h-0.57c-0.43,0-0.83,0.06-1.14,0.29
			c-0.89,0.66-0.89,2.33-0.89,3.33v2.57h0.71c1.13,0,1.54-0.09,1.91-0.47c0.51-0.51,0.85-1.42,0.93-2.12h0.12v5.51h-0.12
			c-0.08-0.68-0.36-1.55-0.85-2.01c-0.33-0.32-0.87-0.57-1.99-0.57h-0.71v3.09c0,0.95-0.08,2.67,0.77,3.31
			c0.36,0.25,0.93,0.32,1.36,0.32h0.43c1.1,0,1.77-0.38,2.23-0.89c0.81-0.89,1.22-1.99,1.48-2.84h0.1L93.81,38.15z"/>
		<path class="st0" d="M99.18,38.44c-1.4,0-2.63-0.72-3.16-1.36h-0.08L95.43,38h-0.08l-0.16-4.56h0.12
			c0.65,2.46,1.64,4.66,3.87,4.66c1.71,0,2.27-1.42,2.27-2.8c0-1.76-0.95-2.4-2.9-3.29c-1.77-0.81-3.41-1.91-3.41-4.41
			c0-1.97,1.5-3.67,3.59-3.67c1.14,0,2.29,0.47,2.74,1.13h0.02l0.43-0.81h0.16l0.28,3.9h-0.12c-0.24-1.02-0.85-2.4-1.38-2.97
			c-0.46-0.49-1.03-0.94-2.13-0.94c-0.95,0-1.8,0.74-1.8,2.23c0,2.01,1.34,2.51,2.72,3.24c2.05,1.1,3.59,1.55,3.59,4.58
			C103.24,36.93,101.15,38.44,99.18,38.44z"/>
		<g>
			<path class="st0" d="M39.17,55.03c-1.51,0-2.82-0.72-3.39-1.36h-0.09l-0.55,0.91h-0.09l-0.17-4.56h0.13
				c0.7,2.46,1.76,4.66,4.16,4.66c1.85,0,2.44-1.42,2.44-2.8c0-1.76-1.02-2.4-3.12-3.29c-1.91-0.81-3.67-1.91-3.67-4.41
				c0-1.97,1.61-3.67,3.86-3.67c1.23,0,2.46,0.47,2.95,1.13h0.02l0.47-0.81h0.17l0.29,3.9h-0.13c-0.25-1.02-0.91-2.4-1.48-2.97
				c-0.49-0.49-1.1-0.94-2.29-0.94c-1.02,0-1.93,0.74-1.93,2.23c0,2.01,1.44,2.51,2.93,3.24c2.2,1.1,3.86,1.55,3.86,4.58
				C43.54,53.52,41.3,55.03,39.17,55.03z"/>
			<path class="st0" d="M56.57,59.32c-0.32,0.44-0.94,0.85-1.91,0.85c-1.17,0-2.23-0.62-3.35-1.67c-1.1-1.04-2.05-2.04-2.9-2.04
				c-0.4,0-0.66,0.28-0.66,0.51c0,0.34,0.32,0.51,0.47,0.66c0.13,0.15,0.29,0.4,0.29,0.78c0,0.68-0.55,1.02-1.04,1.02
				c-0.51,0-1.06-0.44-1.06-1.21c0-1.59,2.14-2.31,2.55-2.46l1.74-0.68c-3.29-0.09-6.45-3.09-6.45-7.3c0-4.24,3.18-7.26,6.51-7.26
				c3.33,0,6.53,3.01,6.53,7.26c0,3.82-2.35,6.41-5.41,7.19c-0.66,0.17-2.16,0.74-2.86,1.06v0.04c0.28-0.02,0.47-0.06,0.7-0.06
				c0.91,0,1.99,0.51,2.76,1.1c0.87,0.68,1.89,1.32,2.95,1.32c1.17,0,1.67-0.81,1.99-1.85l0.09,0.02
				C57.37,57.56,57.08,58.6,56.57,59.32z M48.85,41.4c-1.27,1.06-2.1,3.14-2.1,6.38s0.83,5.32,2.1,6.38
				c0.57,0.49,1.32,0.57,1.91,0.57c0.59,0,1.33-0.09,1.91-0.57c1.27-1.06,2.1-3.14,2.1-6.38s-0.78-5.3-2.05-6.36
				c-0.44-0.38-1.19-0.55-1.95-0.55C49.93,40.86,49.32,41.01,48.85,41.4z"/>
			<path class="st0" d="M69.18,41.03c-0.38,0.1-0.76,0.43-0.94,0.87c-0.21,0.51-0.36,1.17-0.36,2.55v5.62
				c0,1.19-0.21,2.23-0.66,3.05c-0.55,1.04-1.91,1.91-3.8,1.91c-2.2,0-3.86-0.66-4.52-2.57c-0.28-0.76-0.32-2.08-0.32-2.86v-3.88
				c0-1.51-0.06-2.99-0.32-3.77c-0.15-0.48-0.53-0.76-0.95-0.91c-0.21-0.06-0.49-0.1-0.66-0.13v-0.1h5.96v0.1
				c-0.17,0.02-0.44,0.06-0.66,0.13c-0.42,0.15-0.78,0.43-0.95,0.91c-0.25,0.78-0.32,2.27-0.32,3.77v4.65
				c0,0.62,0.02,1.48,0.23,2.16c0.4,1.36,1.23,1.95,2.59,1.95c1.55,0,2.9-0.55,3.43-1.57c0.36-0.68,0.53-1.53,0.53-2.76v-5.7
				c0-1.38-0.17-2.04-0.38-2.55c-0.17-0.44-0.55-0.76-0.91-0.87c-0.23-0.06-0.44-0.1-0.74-0.13v-0.1h4.43v0.1
				C69.6,40.93,69.39,40.97,69.18,41.03z"/>
			<path class="st0" d="M74.42,54.73v-0.13c0.21-0.02,0.59-0.1,0.78-0.19c0.42-0.19,0.7-0.44,0.7-1.1c0-0.63-0.23-1.21-0.4-1.85
				l-0.62-2.05h-3.69l-0.74,2.27c-0.29,0.89-0.34,1.29-0.34,1.67c0,0.55,0.34,0.89,0.72,1.06c0.23,0.1,0.62,0.17,0.83,0.19v0.13
				h-4.01v-0.13c0.34-0.04,0.63-0.09,0.91-0.25c0.25-0.15,0.51-0.4,0.72-0.81c0.21-0.38,0.4-1,0.72-1.91l3.77-10.94h0.47l2.93,9.1
				c0.62,1.89,1.08,3.14,1.44,3.86c0.25,0.49,0.59,0.72,1,0.85c0.25,0.09,0.44,0.1,0.66,0.13v0.1L74.42,54.73L74.42,54.73z
				 M73.17,43.73h-0.06l-1.78,5.34h3.46L73.17,43.73z"/>
			<path class="st0" d="M89.37,54.73c-0.47-0.53-0.94-1.63-1.04-2.84c-0.13-1.33-0.34-2.61-0.94-3.35
				c-0.47-0.57-1.17-0.68-2.25-0.68H84.2v1.93c0,1.51,0.06,3.01,0.32,3.8c0.17,0.49,0.51,0.78,0.95,0.94
				c0.19,0.06,0.62,0.09,0.81,0.1v0.1h-6.11v-0.1c0.19-0.02,0.47-0.04,0.66-0.1c0.44-0.15,0.78-0.44,0.95-0.94
				c0.25-0.78,0.32-2.29,0.32-3.8v-4.07c0-1.51-0.06-2.99-0.32-3.77c-0.17-0.48-0.51-0.76-0.95-0.91c-0.19-0.06-0.47-0.1-0.66-0.13
				v-0.1h6.04c2.78,0,4.75,1.33,4.75,3.52c0,1.29-0.59,2.12-1.53,2.78c-0.36,0.25-1.08,0.47-1.97,0.62v0.06
				c0.59,0.09,1.1,0.21,1.61,0.57c0.66,0.47,1.1,1.29,1.38,2.74c0.34,1.86,0.74,2.78,1.21,3.12c0.29,0.21,0.83,0.4,1.14,0.43v0.1
				L89.37,54.73L89.37,54.73z M85.81,41.14c-0.59,0-1.1,0.1-1.36,0.53c-0.23,0.38-0.25,1.04-0.25,1.95v3.84h1.23
				c1.63,0,2.16-0.25,2.61-0.85c0.38-0.53,0.59-1.29,0.59-2.2c0-1.86-0.59-3.27-2.71-3.27L85.81,41.14L85.81,41.14z"/>
			<path class="st0" d="M103.09,54.73h-10.5v-0.1c0.19-0.02,0.47-0.06,0.66-0.13c0.44-0.15,0.81-0.42,0.98-0.91
				c0.25-0.78,0.32-2.29,0.32-3.8v-4.03c0-1.53-0.06-3.01-0.32-3.8c-0.17-0.51-0.53-0.78-0.98-0.94c-0.19-0.06-0.47-0.1-0.66-0.13
				v-0.1h9.88l0.53,3.88h-0.13c-0.34-1.19-0.91-2.16-1.66-2.84c-0.36-0.34-0.95-0.7-1.8-0.7H98.8c-0.47,0-0.89,0.06-1.23,0.29
				c-0.95,0.66-0.95,2.33-0.95,3.33v2.57h0.76c1.21,0,1.66-0.09,2.05-0.47c0.55-0.51,0.91-1.42,1-2.12h0.13v5.51h-0.13
				c-0.09-0.68-0.38-1.55-0.91-2.01c-0.36-0.32-0.94-0.57-2.14-0.57h-0.76v3.09c0,0.95-0.09,2.67,0.83,3.31
				c0.38,0.25,1,0.32,1.47,0.32h0.47c1.19,0,1.91-0.38,2.4-0.89c0.87-0.89,1.32-1.99,1.59-2.84h0.1L103.09,54.73z"/>
		</g>
	</g>
</g>
</svg>
