<?xml version="1.0" encoding="utf-8"?>
<!-- Generator: Adobe Illustrator 26.0.3, SVG Export Plug-In . SVG Version: 6.00 Build 0)  -->
<svg version="1.1" id="Capa_1" xmlns="http://www.w3.org/2000/svg" xmlns:xlink="http://www.w3.org/1999/xlink" x="0px" y="0px"
	 viewBox="0 0 100 70" style="enable-background:new 0 0 100 70;" xml:space="preserve">
<style type="text/css">
	.st0{fill:#940449;}
	.st1{fill:#002F72;}
	.st2{fill-rule:evenodd;clip-rule:evenodd;fill:#002F72;}
</style>
<g>
	<path class="st0" d="M56,25.8c0,0-0.1-1.3-0.7-2.3c-0.9-1.5-1.8-1.9-2.2-2.1c0,0,0.3-0.2,0.8-0.4c0.8-0.2,1.6,0.1,1.6,0.1
		s-0.7-1-2.5-1.1c-1.5-0.2-2.1,0.4-2.1,0.4s0.2-0.5,0.8-0.9c0.6-0.3,1.5-0.3,1.5-0.3S52.6,19,52,18.9c-0.9-0.1-2.6-0.2-3.7,0.6
		c-1.1,0.9-0.8,1.9-0.8,1.9s1.3-0.4,2.7,0c1.6,0.5,3,1.7,3,4.2c0,2.9-3,5-3,5c6.6-0.2,11.8-3.2,11.8-6.8c0-3.7-5.6-6.8-12.4-6.8
		c-6.9,0-12.4,3-12.4,6.8c0,1.8,1.3,3.4,3.1,4.5c1.9,1.1,6,1.7,8.4,0.4c2.3-1.3,3-3.9,1.8-5.4c-1.1-1.3-3-1.3-4.2-0.8
		c-1.3,0.5-1.6,1.2-1.6,1.2c1.4-0.6,3.2-0.5,3.4,0.5c0.2,0.8-0.8,1.4-2.5,1.5c-0.8,0-1.6,0-2.3-0.1c0,0-0.9-0.1-1.9-0.6
		c-0.1,0-0.1-0.1-0.2-0.1c-1-0.7-1.5-1.5-1.5-2.3c0-2.4,4.5-4.3,10-4.3c5.5,0,10,1.9,10,4.3C59.6,23.8,58.2,25,56,25.8L56,25.8z"/>
	<path class="st1" d="M27.8,51.1v1c0,0.3,0,0.7-0.2,0.8v0h1.1v0c-0.3-0.1-0.3-0.5-0.3-0.8V50c0-0.3,0-0.7,0.3-0.8v0h-1.1v0
		c0.3,0.1,0.2,0.5,0.2,0.8v0.7h-2V50c0-0.3,0-0.7,0.2-0.8v0H25v0c0.3,0.1,0.2,0.5,0.2,0.8v2.1c0,0.3,0,0.7-0.2,0.8v0h1.1v0
		c-0.3-0.1-0.2-0.5-0.2-0.8v-1H27.8L27.8,51.1z"/>
	<path class="st2" d="M31.2,49.1C30,49,29,49.9,29,51c0,1.2,0.9,1.9,2,1.9c1.1,0,2.1-0.8,2.1-2C33.2,50,32.3,49.1,31.2,49.1
		L31.2,49.1z M31.1,49.5c0.9,0,1.4,0.8,1.4,1.6c0,0.8-0.5,1.5-1.4,1.5c-0.9,0-1.4-0.8-1.4-1.6C29.7,50.1,30.2,49.5,31.1,49.5
		L31.1,49.5z"/>
	<path class="st2" d="M34.9,49.6h0.5c0.2,0,0.4,0,0.5,0.2h0l0.2-0.7h0c-0.1,0-0.2,0-0.3,0h-2.1h-0.1c-0.1,0-0.1,0-0.2,0h0l-0.2,0.7
		h0c0.2-0.2,0.4-0.2,0.7-0.2h0.5v2.5c0,0.3,0,0.7-0.2,0.8v0h1.1v0c-0.3-0.2-0.3-0.4-0.3-0.7V49.6L34.9,49.6z"/>
	<path class="st2" d="M37.1,51.1h0.4c0.2,0,0.4,0,0.5,0.2h0v-0.6h0c-0.1,0-0.2,0-0.2,0h-0.7v-1c0.2,0,0.4,0,0.6,0
		c0.3,0,0.5,0,0.7,0.2h0v-0.7h0c-0.1,0-0.2,0-0.3,0h-1.8v0c0.3,0.1,0.3,0.5,0.3,0.8v2.1c0,0.3,0,0.7-0.3,0.8v0h2.3l0.3-0.7h0
		c-0.3,0.2-0.7,0.4-1,0.3l-0.7-0.1V51.1L37.1,51.1z"/>
	<path class="st2" d="M40,52.4V50c0-0.3,0-0.7,0.2-0.8v0h-1.1v0c0.3,0.1,0.3,0.5,0.3,0.8v2.1c0,0.3,0,0.7-0.3,0.8v0h2.3l0.3-0.7h0
		c-0.3,0.2-0.6,0.4-1,0.3L40,52.4L40,52.4z"/>
	<path class="st1" d="M44.4,49.2c-0.3-0.1-0.6-0.1-0.8-0.1c-0.7,0-1.4,0.3-1.4,1c0,1.2,1.9,1,1.9,1.9c0,0.4-0.5,0.6-0.8,0.6
		c-0.4,0-0.9-0.2-1.2-0.5l0.2,0.7c0.3,0.1,0.7,0.2,1,0.2c0.9,0,1.5-0.6,1.5-1.2c0-1-1.9-1-1.9-1.8c0-0.4,0.4-0.5,0.7-0.5
		c0.3,0,0.7,0.1,0.9,0.4V49.2L44.4,49.2z"/>
	<path class="st2" d="M51.1,52.9L51.1,52.9c-1.1-0.5-1.9-1.4-2.7-2.2c0.3-0.2,0.5-0.5,0.5-0.8c0-0.5-0.4-0.8-0.8-0.8
		c-0.4,0-0.9,0.3-0.9,0.8c0,0.3,0.2,0.6,0.4,0.8c-0.4,0.3-0.8,0.7-0.8,1.2c0,0.7,0.6,1.1,1.3,1.1c0.5,0,0.9-0.2,1.2-0.7
		c0.2,0.2,0.5,0.4,0.7,0.5c0.2,0.1,0.3,0.1,0.5,0.1H51.1L51.1,52.9z M48.1,50.4c-0.2-0.1-0.4-0.4-0.4-0.6c0-0.2,0.2-0.3,0.4-0.3
		c0.2,0,0.4,0.1,0.4,0.3C48.4,50,48.2,50.2,48.1,50.4L48.1,50.4z M49.1,52.1c-0.2,0.3-0.5,0.5-0.8,0.5c-0.4,0-0.8-0.3-0.8-0.7
		c0-0.3,0.2-0.6,0.5-0.8L49.1,52.1L49.1,52.1z"/>
	<path class="st1" d="M52.9,49.2L52.9,49.2c0.3,0.1,0.2,0.5,0.2,0.8v2.1c0,0.3,0,0.7-0.2,0.8v0h1.1v0c-0.3-0.1-0.3-0.5-0.3-0.8v-2.5
		c0.1,0,0.3,0,0.4,0c0.4,0,0.7,0.2,0.7,0.6c0,0.5-0.5,0.7-1,0.8l0.5,0.8l0.7,0.8c0.2,0.2,0.4,0.3,0.7,0.3h0.5
		c-0.3-0.2-0.7-0.5-0.9-0.8l-0.8-1c0.5-0.1,0.9-0.5,0.9-1c0-0.5-0.4-0.9-1.2-0.9H52.9L52.9,49.2z"/>
	<path class="st2" d="M56.8,51.1h0.4c0.2,0,0.4,0,0.5,0.2h0v-0.6h0c-0.1,0-0.2,0-0.2,0h-0.7v-1c0.2,0,0.4,0,0.6,0
		c0.3,0,0.5,0,0.7,0.2h0v-0.7h0c-0.1,0-0.2,0-0.3,0H56v0c0.3,0.1,0.3,0.5,0.3,0.8v2.1c0,0.3,0,0.7-0.3,0.8v0h2.3l0.3-0.7h0
		c-0.3,0.2-0.7,0.4-1,0.3l-0.7-0.1V51.1L56.8,51.1z"/>
	<path class="st1" d="M61.1,49.2c-0.3-0.1-0.6-0.1-0.8-0.1c-0.7,0-1.4,0.3-1.4,1c0,1.2,1.9,1,1.9,1.9c0,0.4-0.5,0.6-0.8,0.6
		c-0.4,0-0.9-0.2-1.2-0.5l0.2,0.7c0.3,0.1,0.7,0.2,1,0.2c0.9,0,1.5-0.6,1.5-1.2c0-1-1.9-1-1.9-1.8c0-0.4,0.4-0.5,0.7-0.5
		c0.3,0,0.7,0.1,0.9,0.4V49.2L61.1,49.2z"/>
	<path class="st2" d="M63.9,49.1c-1.2,0-2.1,0.9-2.1,1.9c0,1.2,0.9,1.9,2,1.9c1.1,0,2.1-0.8,2.1-2C65.9,50,65.1,49.1,63.9,49.1
		L63.9,49.1z M63.9,49.5c0.9,0,1.4,0.8,1.4,1.6c0,0.8-0.5,1.5-1.4,1.5c-0.9,0-1.4-0.8-1.4-1.6C62.5,50.1,63,49.5,63.9,49.5
		L63.9,49.5z"/>
	<path class="st1" d="M66.4,49.2L66.4,49.2c0.3,0.1,0.2,0.5,0.2,0.8v2.1c0,0.3,0,0.7-0.2,0.8v0h1.1v0c-0.3-0.1-0.3-0.5-0.3-0.8v-2.5
		c0.1,0,0.3,0,0.4,0c0.4,0,0.7,0.2,0.7,0.6c0,0.5-0.5,0.7-1,0.8l0.5,0.8l0.7,0.8c0.2,0.2,0.4,0.3,0.7,0.3h0.5
		c-0.3-0.2-0.7-0.5-0.9-0.8l-0.8-1c0.5-0.1,0.9-0.5,0.9-1c0-0.5-0.4-0.9-1.2-0.9H66.4L66.4,49.2z"/>
	<path class="st2" d="M71.2,49.6h0.5c0.2,0,0.4,0,0.5,0.2h0l0.2-0.7h0c-0.1,0-0.2,0-0.3,0H70h-0.1c-0.1,0-0.1,0-0.2,0h0l-0.2,0.7h0
		c0.2-0.2,0.4-0.2,0.7-0.2h0.5v2.5c0,0.3,0,0.7-0.2,0.8v0h1.1v0c-0.3-0.2-0.3-0.4-0.3-0.7V49.6L71.2,49.6z"/>
	<path class="st1" d="M74.7,49.2c-0.3-0.1-0.6-0.1-0.8-0.1c-0.7,0-1.4,0.3-1.4,1c0,1.2,1.9,1,1.9,1.9c0,0.4-0.5,0.6-0.8,0.6
		c-0.4,0-0.9-0.2-1.2-0.5l0.2,0.7c0.3,0.1,0.7,0.2,1,0.2c0.9,0,1.5-0.6,1.5-1.2c0-1-1.9-1-1.9-1.8c0-0.4,0.4-0.5,0.7-0.5
		c0.3,0,0.7,0.1,0.9,0.4V49.2L74.7,49.2z"/>
	<path class="st1" d="M27.7,39.9h1.3c0.6,0,1.3,0,1.6,0.5h0.1v-1.9h-0.1c-0.2,0.1-0.5,0.1-0.8,0.1h-2.2v-3.4
		c0.6-0.1,1.2-0.1,1.8-0.1c0.8,0,1.6,0.1,2.1,0.7h0.1v-2.1h-0.1c-0.2,0.1-0.5,0.1-0.8,0.1h-5.8v0.1c0.9,0.3,0.8,1.7,0.8,2.5v6.8
		c0,0.8,0.1,2.1-0.8,2.5v0.1h3.4v-0.1c-0.9-0.3-0.8-1.7-0.8-2.5V39.9L27.7,39.9z"/>
	<path class="st1" d="M33.7,43.1c0,0.8,0.1,2.1-0.8,2.5v0.1h3.4v-0.1c-0.9-0.3-0.8-1.7-0.8-2.5v-6.8c0-0.8-0.1-2.1,0.8-2.5v-0.1
		h-3.4v0.1c0.9,0.3,0.8,1.7,0.8,2.5V43.1L33.7,43.1z"/>
	<path class="st1" d="M40.5,39.9h1.3c0.6,0,1.3,0,1.6,0.5h0.1v-1.9h-0.1c-0.2,0.1-0.5,0.1-0.8,0.1h-2.1v-3.4
		c0.6-0.1,1.2-0.1,1.8-0.1c0.8,0,1.6,0.1,2.1,0.7h0.1v-2.1h-0.1c-0.2,0.1-0.5,0.1-0.8,0.1h-5.8v0.1c0.9,0.3,0.8,1.7,0.8,2.5v6.8
		c0,0.8,0.1,2.1-0.8,2.5v0.1h7.5l0.8-2.4h-0.1c-0.9,0.8-2.1,1.2-3.3,1.1l-2.3-0.2V39.9L40.5,39.9z"/>
	<path class="st1" d="M53.9,33.9c-0.9-0.3-1.8-0.4-2.7-0.4c-2.2,0-4.5,0.9-4.5,3.1c0,3.8,6.2,3.3,6.2,6.1c0,1.3-1.6,1.9-2.6,1.9
		c-1.4,0-2.9-0.6-4-1.5l0.5,2.3c1,0.4,2.1,0.5,3.2,0.5c2.8,0,4.8-1.8,4.8-3.7c0-3.3-6.2-3.3-6.2-5.8c0-1.2,1.3-1.6,2.3-1.6
		c1,0,2.1,0.4,2.8,1.1V33.9L53.9,33.9z"/>
	<path class="st1" d="M60.3,35.1h1.6c0.6,0,1.3,0.1,1.6,0.7h0.1l0.6-2.1H64c-0.2,0.1-0.5,0.1-0.8,0.1h-6.7H56c-0.2,0-0.5,0-0.7-0.1
		h-0.1l-0.6,2.1h0.1c0.6-0.5,1.4-0.7,2.1-0.7h1.6v8c0,0.8,0.1,2.1-0.8,2.5v0.1h3.6v-0.1c-1-0.6-0.9-1.3-0.9-2.3V35.1L60.3,35.1z"/>
	<path class="st2" d="M70.6,41.2l1,2.5c0.5,1.3,0.6,1.5-0.3,1.9v0.1H75v-0.1c-1-0.5-1.4-1.5-1.8-2.6l-3.8-9.3h-2.8v0.1
		c0.9,0.3,0.5,1,0.3,1.7l-3,7.5c-0.4,1-0.7,2-1.7,2.6v0.1h3.3v-0.1c-0.9-0.3-0.7-0.8-0.4-1.9l0.9-2.5H70.6L70.6,41.2z M70,39.9h-3.6
		l1.8-4.5L70,39.9L70,39.9z"/>
</g>
</svg>
