<?xml version="1.0" encoding="utf-8"?>
<!-- Generator: Adobe Illustrator 26.0.0, SVG Export Plug-In . SVG Version: 6.00 Build 0)  -->
<svg version="1.1" id="Capa_1" xmlns="http://www.w3.org/2000/svg" xmlns:xlink="http://www.w3.org/1999/xlink" x="0px" y="0px"
	 viewBox="0 0 100 70" style="enable-background:new 0 0 100 70;" xml:space="preserve">
<style type="text/css">
	#bless_collection_hotels-Capa_1 .st0{fill:#414525;}
</style>
<g>
	<g>
		<g>
			<g>
				<rect x="13.5" y="22.2" class="st0" width="2.4" height="7.1"/>
				<rect x="13.5" y="33.5" class="st0" width="2.4" height="4.9"/>
				<line class="st0" x1="18.9" y1="38.4" x2="18.9" y2="38.4"/>
				<path class="st0" d="M23,30.3c1.8-0.5,3.2-1.6,3.2-3.5c0-3.9-5.4-4.5-7.3-4.6v16.2c2.2-0.1,7.6-0.7,7.6-4.7
					C26.5,33.7,26.7,31.2,23,30.3z"/>
				<path class="st0" d="M18.4,22.2"/>
				<line class="st0" x1="18.9" y1="22.2" x2="18.9" y2="22.2"/>
			</g>
			<path class="st0" d="M40.4,35.4h-6.6v-13c0-0.1-0.1-0.2-0.2-0.2h-3.1c-0.1,0-0.3,0.1-0.3,0.2v13v2.8c0,0.1,0.1,0.2,0.3,0.2h10
				c0.2,0,0.3-0.1,0.3-0.2v-2.6C40.7,35.5,40.6,35.4,40.4,35.4z"/>
			<path class="st0" d="M44.3,22.4v15.8c0,0.1,0.1,0.2,0.3,0.2h11.1v-3h-7.7v-3.6h7.5c0.1,0,0.3-0.1,0.3-0.2V29
				c0-0.1-0.1-0.2-0.3-0.2h-7.5v-3.7h7.7v-2.9H44.5C44.4,22.2,44.3,22.3,44.3,22.4z"/>
			<path class="st0" d="M69.2,30c-0.3-0.2-0.7-0.4-1.1-0.6c-1.1-0.4-2-0.5-2.5-0.5c-0.1,0-0.8-0.1-0.9-0.1c-0.9-0.1-1.7-0.7-1.8-1.6
				c0,0,0-0.1,0-0.1c0-1.3,1.1-2,2.4-2c1.2,0,2.3,0.5,2.3,1.7c0,0.1,0.1,0.2,0.3,0.2h3c0.2,0,0.3-0.1,0.3-0.2c0-2.8-2.6-4.6-5.8-4.6
				c0,0,0,0,0,0l0,0c-3,0-5.9,1.7-5.9,4.7c0,0,0,0.1,0,0.1c0,0,0,0,0,0.1c0,1.5,0.7,2.7,2,3.5c0.3,0.2,0.7,0.4,1.1,0.6
				c1.4,0.5,2.4,0.5,2.8,0.5c0.1,0,0.4,0,0.6,0.1c0.9,0.2,1.7,0.7,1.8,1.6c0,0,0,0.1,0,0.1c0,1.3-1.1,2-2.4,2
				c-1.2,0-2.3-0.5-2.3-1.7c0-0.1-0.1-0.2-0.3-0.2h-3c-0.2,0-0.3,0.1-0.3,0.2c0,2.8,2.6,4.6,5.8,4.6c0,0,0,0,0,0l0,0
				c3,0,5.9-1.7,5.9-4.7c0,0,0-0.1,0-0.1c0,0,0,0,0-0.1C71.1,32,70.4,30.9,69.2,30z"/>
		</g>
		<path class="st0" d="M84.6,30c-0.3-0.2-0.7-0.4-1.1-0.6c-1.1-0.4-2-0.5-2.5-0.5c-0.1,0-0.8-0.1-0.9-0.1c-0.9-0.1-1.7-0.7-1.8-1.6
			c0,0,0-0.1,0-0.1c0-1.3,1.1-2,2.4-2c1.2,0,2.3,0.5,2.3,1.7c0,0.1,0.1,0.2,0.3,0.2h3c0.2,0,0.3-0.1,0.3-0.2c0-2.8-2.6-4.6-5.8-4.6
			c0,0,0,0,0,0l0,0c-3,0-5.9,1.7-5.9,4.7c0,0,0,0.1,0,0.1c0,0,0,0,0,0.1c0,1.5,0.7,2.7,2,3.5c0.3,0.2,0.7,0.4,1.1,0.6
			c1.4,0.5,2.4,0.5,2.8,0.5c0.1,0,0.4,0,0.6,0.1c0.9,0.2,1.7,0.7,1.8,1.6c0,0,0,0.1,0,0.1c0,1.3-1.1,2-2.4,2c-1.2,0-2.3-0.5-2.3-1.7
			c0-0.1-0.1-0.2-0.3-0.2h-3c-0.2,0-0.3,0.1-0.3,0.2c0,2.8,2.6,4.6,5.8,4.6c0,0,0,0,0,0l0,0c3,0,5.9-1.7,5.9-4.7c0,0,0-0.1,0-0.1
			c0,0,0,0,0-0.1C86.5,32,85.8,30.9,84.6,30z"/>
	</g>
	<g>
		<path class="st0" d="M15.6,45.7c0,0.1,0,0.1,0,0.2c0,0,0,0.1,0,0.1c0,0,0-0.1,0-0.1c0,0,0-0.1,0-0.1c0-0.2-0.1-0.3-0.2-0.4
			c-0.1-0.1-0.2-0.2-0.4-0.2c-0.1,0-0.2,0-0.3,0.1c0,0-0.1,0.1-0.1,0.1c-0.1,0.1-0.2,0.3-0.2,0.7c0,0.1,0,0.3,0,0.5
			c0,0.4,0.1,0.8,0.3,1c0.1,0.1,0.1,0.1,0.2,0.2c0.1,0,0.1,0,0.2,0c0.2,0,0.3-0.1,0.4-0.2c0.1-0.1,0.2-0.3,0.2-0.3
			c0,0,0-0.1,0.1-0.1c0-0.1,0-0.1,0-0.2c0,0,0,0,0-0.1c0,0,0,0,0,0c0,0,0,0,0,0.1c0,0,0,0.1,0,0.2c0,0.2,0,0.3,0,0.4v0.1
			c0,0,0,0,0,0c0,0.1,0,0.1,0,0.2c0,0,0,0,0,0c0,0,0,0,0,0c0-0.1-0.1-0.1-0.2-0.2c-0.1,0.1-0.3,0.2-0.6,0.2c-0.3,0-0.7-0.2-0.9-0.4
			c-0.3-0.3-0.4-0.7-0.4-1c0-0.3,0.1-0.7,0.3-0.9c0.2-0.2,0.5-0.5,1-0.5c0.1,0,0.3,0,0.4,0.1c0,0,0.1,0.1,0.2,0.1
			c0.1,0,0.1,0,0.1-0.1c0,0,0-0.1,0.1-0.1c0,0,0,0,0,0c0,0,0,0,0,0.1c0,0.1,0,0.2,0,0.3V45.7z"/>
		<path class="st0" d="M20.2,45.4c0.1,0.1,0.2,0.3,0.3,0.4c0.1,0.2,0.1,0.4,0.1,0.6c0,0.4-0.1,0.7-0.4,1c-0.1,0.1-0.2,0.2-0.3,0.2
			c-0.2,0.1-0.4,0.1-0.6,0.1c-0.3,0-0.7-0.1-0.9-0.4c-0.2-0.3-0.4-0.6-0.4-1c0-0.2,0-0.5,0.2-0.7c0.1-0.1,0.1-0.2,0.2-0.3
			c0.3-0.3,0.6-0.4,0.9-0.4C19.6,45.1,19.9,45.1,20.2,45.4z M19,45.4c-0.1,0.2-0.2,0.5-0.2,0.9c0,0.2,0,0.9,0.3,1.2
			c0,0,0.1,0.1,0.1,0.1c0.1,0.1,0.1,0.1,0.2,0.1c0.1,0,0.3,0,0.4-0.2c0-0.1,0.1-0.2,0.1-0.2c0.1-0.2,0.1-0.5,0.1-0.8
			c0-0.4-0.1-0.8-0.2-1.1c0,0-0.1-0.1-0.1-0.1c-0.1-0.1-0.2-0.1-0.3-0.1C19.3,45.1,19.1,45.2,19,45.4z"/>
		<path class="st0" d="M23.8,47.7c0.2,0,0.6,0,0.7,0c0.2,0,0.3-0.1,0.3-0.2c0-0.1,0.1-0.3,0.1-0.3c0,0,0,0,0,0c0,0,0,0,0,0
			c0,0,0,0,0,0c0,0,0,0,0,0c0,0,0,0,0,0.1c0,0.2,0,0.2,0,0.4c0,0.1,0,0.1,0,0.2c0,0,0,0,0,0.1c-0.2,0-0.3,0-0.5,0
			C24.2,47.8,24,47.7,23.8,47.7c-0.1,0.1-0.1,0.1-0.1,0.1H23c-0.1,0-0.1,0-0.2,0c0,0,0,0,0,0c0,0,0,0,0.1,0c0.1,0,0.2,0,0.2-0.1
			c0,0,0,0,0-0.2v-2.1c0-0.1,0-0.1,0-0.2c0,0-0.1,0-0.1,0c0,0,0,0-0.1,0c0,0-0.1,0-0.1,0c0,0,0,0,0,0c0,0,0,0,0.1,0c0,0,0,0,0.1,0
			c0.1,0,0.2,0,0.3,0c0.2,0,0.5,0,0.7,0c0,0,0.1,0,0.1,0c0,0,0,0-0.1,0c-0.1,0-0.2,0-0.2,0c0,0,0,0.1,0,0.2V47.7z"/>
		<path class="st0" d="M28.1,47.7c0.2,0,0.6,0,0.7,0c0.2,0,0.3-0.1,0.3-0.2c0-0.1,0.1-0.3,0.1-0.3c0,0,0,0,0,0c0,0,0,0,0,0
			c0,0,0,0,0,0c0,0,0,0,0,0c0,0,0,0,0,0.1c0,0.2,0,0.2,0,0.4c0,0.1,0,0.1,0,0.2c0,0,0,0,0,0.1c-0.2,0-0.3,0-0.5,0
			C28.5,47.8,28.3,47.7,28.1,47.7c-0.1,0.1-0.1,0.1-0.1,0.1h-0.6c-0.1,0-0.1,0-0.2,0c0,0,0,0,0,0c0,0,0,0,0.1,0c0.1,0,0.2,0,0.2-0.1
			c0,0,0,0,0-0.2v-2.1c0-0.1,0-0.1,0-0.2c0,0-0.1,0-0.1,0c0,0,0,0-0.1,0c0,0-0.1,0-0.1,0c0,0,0,0,0,0c0,0,0,0,0.1,0c0,0,0,0,0.1,0
			c0.1,0,0.2,0,0.3,0c0.2,0,0.5,0,0.7,0c0,0,0.1,0,0.1,0c0,0,0,0-0.1,0c-0.1,0-0.2,0-0.2,0c0,0,0,0.1,0,0.2V47.7z"/>
		<path class="st0" d="M32.4,46.3h0.2c0.2,0,0.3,0,0.4-0.1c0.1-0.1,0.1-0.2,0.1-0.3c0,0,0-0.1,0-0.1c0,0,0,0,0,0c0,0,0,0,0,0.1
			c0,0,0,0.1,0,0.1c0,0,0,0.1,0,0.1c0,0.5,0,0.6,0,0.8c0,0,0,0,0,0c0,0,0-0.1-0.1-0.1c0-0.2,0-0.3-0.1-0.3c-0.1-0.1-0.2-0.1-0.3-0.1
			L32.4,46.3v1.4l0.5,0c0.1,0,0.3,0,0.5-0.1c0.1-0.1,0.1-0.1,0.1-0.1c0-0.1,0.1-0.2,0.1-0.3c0,0,0-0.1,0-0.1c0,0,0,0,0,0
			c0,0,0,0,0,0.1c0,0.1,0,0.1,0,0.2c0,0.1,0,0.2,0,0.5c-0.6,0-0.5,0-1.5,0c-0.2,0-0.5,0-0.6,0c0,0,0,0,0,0c0,0,0,0,0,0l0.1,0
			c0,0,0.1,0,0.1,0c0,0,0.1,0,0.1,0c0,0,0-0.1,0-0.2v-2.1c0,0,0-0.1,0-0.1c0,0,0,0-0.1,0h-0.1c0,0,0,0,0,0c0,0,0,0,0.1,0h0.1
			c0.1,0,0.2,0,0.5,0c0.2,0,0.4,0,0.6,0c0.1,0,0.3,0,0.4,0c0.1,0,0.1,0,0.2,0c0,0,0.1,0,0.1,0c0,0.3,0,0.4,0,0.4c0,0.1,0,0.2,0,0.2
			c0,0,0,0,0,0c0,0,0,0-0.1-0.1c0-0.1-0.1-0.3-0.2-0.4c-0.1-0.1-0.3-0.1-0.5-0.1c-0.1,0-0.2,0-0.4,0V46.3z"/>
		<path class="st0" d="M38.1,45.7c0,0.1,0,0.1,0,0.2c0,0,0,0.1,0,0.1c0,0,0-0.1,0-0.1c0,0,0-0.1,0-0.1c0-0.2-0.1-0.3-0.2-0.4
			c-0.1-0.1-0.2-0.2-0.4-0.2c-0.1,0-0.2,0-0.3,0.1c0,0-0.1,0.1-0.1,0.1c-0.1,0.1-0.2,0.3-0.2,0.7c0,0.1,0,0.3,0,0.5
			c0,0.4,0.1,0.8,0.3,1c0.1,0.1,0.1,0.1,0.2,0.2c0.1,0,0.1,0,0.2,0c0.2,0,0.3-0.1,0.4-0.2c0.1-0.1,0.2-0.3,0.2-0.3
			c0,0,0-0.1,0.1-0.1c0-0.1,0-0.1,0-0.2c0,0,0,0,0-0.1c0,0,0,0,0,0c0,0,0,0,0,0.1c0,0,0,0.1,0,0.2c0,0.2,0,0.3,0,0.4v0.1
			c0,0,0,0,0,0c0,0.1,0,0.1,0,0.2c0,0,0,0,0,0c0,0,0,0,0,0c0-0.1-0.1-0.1-0.2-0.2c-0.1,0.1-0.3,0.2-0.6,0.2c-0.3,0-0.7-0.2-0.9-0.4
			c-0.3-0.3-0.4-0.7-0.4-1c0-0.3,0.1-0.7,0.3-0.9c0.2-0.2,0.5-0.5,1-0.5c0.1,0,0.3,0,0.4,0.1c0,0,0.1,0.1,0.2,0.1
			c0.1,0,0.1,0,0.1-0.1c0,0,0-0.1,0.1-0.1c0,0,0,0,0,0c0,0,0,0,0,0.1c0,0.1,0,0.2,0,0.3V45.7z"/>
		<path class="st0" d="M41.9,47.3c0,0.1,0,0.2,0,0.3c0,0,0,0,0,0c0,0,0.1,0,0.1,0l0.1,0c0,0,0,0,0,0c0,0,0,0,0,0c0,0,0,0-0.1,0
			c-0.1,0-0.2,0-0.6,0c-0.1,0-0.1,0-0.2,0c-0.1,0-0.3,0-0.4,0c0,0-0.1,0-0.1,0c0,0,0,0,0,0h0.1c0.1,0,0.1,0,0.1,0c0,0,0.1,0,0.1-0.1
			c0,0,0,0,0-0.2v-2.2c0,0-0.1,0-0.1,0c-0.2,0-0.4,0-0.5,0.2c-0.1,0.1-0.1,0.2-0.1,0.4c0,0,0,0.1-0.1,0.1c0,0,0,0,0,0c0,0,0,0,0,0
			c0,0,0,0,0-0.1c0,0,0-0.1,0-0.1c0-0.4,0-0.4,0-0.6c1.1,0,0.1,0,1.1,0c0.2,0,0.8,0,0.9,0c0,0,0.1,0,0.1,0c0,0.1,0,0.2,0,0.4l0,0.2
			c0,0.1,0,0.1,0,0.1c0,0-0.1-0.1-0.1-0.1c-0.1-0.3-0.1-0.4-0.2-0.5c-0.1-0.1-0.3-0.1-0.4-0.1c-0.1,0-0.1,0-0.2,0V47.3z"/>
		<path class="st0" d="M45.2,45.5c0-0.2,0-0.2,0-0.3c0,0-0.1,0-0.2,0h0c-0.1,0-0.1,0-0.1,0c0,0,0,0,0.1,0c0.2,0,0.4,0,0.6,0
			c0.4,0,0.3,0,0.4,0c0,0,0.1,0,0.1,0c0,0-0.1,0-0.1,0c0,0-0.1,0-0.1,0c0,0,0,0,0,0.1v2.2c0,0.1,0,0.1,0,0.2c0,0,0.1,0,0.3,0.1
			c0,0,0,0,0,0c0,0,0,0,0,0c0,0,0,0,0,0c-0.1,0-0.2,0-0.4,0c-0.1,0-0.2,0-0.4,0c-0.1,0-0.2,0-0.3,0c0,0,0,0-0.1,0c0,0,0,0,0,0
			c0,0,0,0,0,0c0,0,0.1,0,0.1,0c0.1,0,0.1,0,0.1-0.1c0,0,0-0.1,0-0.1V45.5z"/>
		<path class="st0" d="M50.5,45.4c0.1,0.1,0.2,0.3,0.3,0.4c0.1,0.2,0.1,0.4,0.1,0.6c0,0.4-0.1,0.7-0.4,1c-0.1,0.1-0.2,0.2-0.3,0.2
			c-0.2,0.1-0.4,0.1-0.6,0.1c-0.3,0-0.7-0.1-0.9-0.4c-0.2-0.3-0.4-0.6-0.4-1c0-0.2,0-0.5,0.2-0.7c0.1-0.1,0.1-0.2,0.2-0.3
			c0.3-0.3,0.6-0.4,0.9-0.4C49.9,45.1,50.2,45.1,50.5,45.4z M49.3,45.4c-0.1,0.2-0.2,0.5-0.2,0.9c0,0.2,0,0.9,0.3,1.2
			c0,0,0.1,0.1,0.1,0.1c0.1,0.1,0.1,0.1,0.2,0.1c0.1,0,0.3,0,0.4-0.2c0-0.1,0.1-0.2,0.1-0.2c0.1-0.2,0.1-0.5,0.1-0.8
			c0-0.4-0.1-0.8-0.2-1.1c0,0-0.1-0.1-0.1-0.1c-0.1-0.1-0.2-0.1-0.3-0.1C49.5,45.1,49.4,45.2,49.3,45.4z"/>
		<path class="st0" d="M53.5,45.8c0-0.2,0-0.3,0-0.4c0,0-0.1-0.1-0.1-0.1c0,0-0.1,0-0.1,0c0,0-0.1,0-0.1,0c-0.1,0-0.2,0-0.2,0
			c0,0,0,0,0.1,0c0.1,0,0.1,0,0.4,0c0.2,0,0.3,0,0.4,0l1.3,1.7v-1.5c0-0.1,0-0.1-0.1-0.1c0,0-0.1,0-0.1,0c0,0-0.1,0-0.1,0
			c0,0,0,0,0,0c0-0.1,0.2,0,0.3,0h0.3c0.1,0,0.1,0,0.2,0c0,0,0.1,0,0.1,0c0,0,0,0,0,0c0,0,0,0,0,0c-0.1,0-0.1,0-0.2,0
			c0,0-0.1,0-0.1,0c0,0,0,0,0,0.2v2.4c0,0,0,0.1,0,0.1c0,0-0.1,0-0.1-0.1l-1.6-2c0,0.5,0,0,0,0.7v1.2c0,0,0,0.1,0,0.1
			c0.1,0,0.2,0,0.3,0c0,0,0.1,0,0.1,0c0,0,0,0,0,0c0,0,0,0-0.1,0c0,0,0,0,0,0c0,0-0.1,0-0.1,0c-0.1,0-0.1,0-0.2,0
			c-0.1,0-0.3,0-0.3,0c0,0,0,0-0.1,0c-0.1,0-0.1,0-0.1,0c0,0,0.1,0,0.1,0c0,0,0.1,0,0.2,0c0,0,0.1,0,0.1-0.1c0,0,0-0.1,0-0.2V45.8z"
			/>
		<path class="st0" d="M61.8,46.4v1c0,0.1,0,0.2,0,0.3c0,0,0.1,0.1,0.1,0.1c0,0,0.1,0,0.1,0c0,0,0.1,0,0.1,0c0,0,0,0,0,0
			c0,0-0.1,0-0.1,0c0,0,0,0,0,0l-0.3,0c0,0-0.1,0-0.3,0c-0.2,0-0.3,0-0.4,0c0,0-0.1,0-0.1,0c0,0,0,0,0.1,0c0,0,0.1,0,0.1,0
			c0,0,0.2,0,0.2,0c0,0,0-0.1,0-0.2v-2.1c0,0,0-0.1,0-0.1c0,0-0.2,0-0.2,0c0,0,0,0,0,0c0,0,0,0,0.1,0c0,0,0.1,0,0.1,0c0,0,0,0,0.1,0
			l0.5,0c0.1,0,0.3,0,0.4,0c0,0,0.1,0,0.1,0c0,0,0,0,0,0c0,0,0,0,0,0l-0.1,0c0,0-0.1,0-0.1,0c0,0,0,0.1,0,0.2V46.4l0.9-0.1v-0.9
			c0-0.1,0-0.2-0.1-0.2c0,0-0.1,0-0.1,0h-0.1c0,0-0.1,0-0.1,0c0,0,0,0,0,0c0,0,0,0,0,0c0,0,0.1,0,0.1,0c0,0,0.1,0,0.1,0h0.6
			c0,0,0,0,0,0c0.1,0,0.2,0,0.3,0c0,0,0,0,0,0c0,0,0,0,0,0c0,0-0.1,0-0.1,0c-0.1,0-0.1,0-0.1,0c0,0,0,0.2,0,0.3v1.9
			c0,0.1,0,0.2,0.1,0.3c0,0,0.1,0,0.1,0c0,0,0.1,0,0.1,0c0,0,0,0,0.1,0c0,0,0,0,0,0c0,0,0,0,0,0c0,0-0.1,0-0.1,0c0,0-0.1,0-0.1,0
			c-0.2,0-0.3,0-0.5,0c-0.1,0-0.4,0-0.5,0c0,0-0.1,0-0.1,0s0,0,0.1,0c0,0,0.2,0,0.2,0c0.1,0,0.1-0.1,0.1-0.1v-1.1H61.8z"/>
		<path class="st0" d="M67.9,45.4c0.1,0.1,0.2,0.3,0.3,0.4c0.1,0.2,0.1,0.4,0.1,0.6c0,0.4-0.1,0.7-0.4,1c-0.1,0.1-0.2,0.2-0.3,0.2
			c-0.2,0.1-0.4,0.1-0.6,0.1c-0.3,0-0.7-0.1-0.9-0.4c-0.2-0.3-0.4-0.6-0.4-1c0-0.2,0-0.5,0.2-0.7c0.1-0.1,0.1-0.2,0.2-0.3
			c0.3-0.3,0.6-0.4,0.9-0.4C67.4,45.1,67.7,45.1,67.9,45.4z M66.7,45.4c-0.1,0.2-0.2,0.5-0.2,0.9c0,0.2,0,0.9,0.3,1.2
			c0,0,0.1,0.1,0.1,0.1c0.1,0.1,0.1,0.1,0.2,0.1c0.1,0,0.3,0,0.4-0.2c0-0.1,0.1-0.2,0.1-0.2c0.1-0.2,0.1-0.5,0.1-0.8
			c0-0.4-0.1-0.8-0.2-1.1c0,0-0.1-0.1-0.1-0.1c-0.1-0.1-0.2-0.1-0.3-0.1C67,45.1,66.9,45.2,66.7,45.4z"/>
		<path class="st0" d="M72,47.3c0,0.1,0,0.2,0,0.3c0,0,0,0,0,0c0,0,0.1,0,0.1,0l0.1,0c0,0,0,0,0,0c0,0,0,0,0,0c0,0,0,0-0.1,0
			c-0.1,0-0.2,0-0.6,0c-0.1,0-0.1,0-0.2,0c-0.1,0-0.3,0-0.4,0c0,0-0.1,0-0.1,0c0,0,0,0,0,0h0.1c0.1,0,0.1,0,0.1,0c0,0,0.1,0,0.1-0.1
			c0,0,0,0,0-0.2v-2.2c0,0-0.1,0-0.1,0c-0.2,0-0.4,0-0.5,0.2c-0.1,0.1-0.1,0.2-0.1,0.4c0,0,0,0.1-0.1,0.1c0,0,0,0,0,0c0,0,0,0,0,0
			c0,0,0,0,0-0.1c0,0,0-0.1,0-0.1c0-0.4,0-0.4,0-0.6c1.1,0,0.1,0,1.1,0c0.2,0,0.8,0,0.9,0c0,0,0.1,0,0.1,0c0,0.1,0,0.2,0,0.4l0,0.2
			c0,0.1,0,0.1,0,0.1c0,0-0.1-0.1-0.1-0.1c-0.1-0.3-0.1-0.4-0.2-0.5c-0.1-0.1-0.3-0.1-0.4-0.1c-0.1,0-0.1,0-0.2,0V47.3z"/>
		<path class="st0" d="M76,46.3h0.2c0.2,0,0.3,0,0.4-0.1c0.1-0.1,0.1-0.2,0.1-0.3c0,0,0-0.1,0-0.1c0,0,0,0,0,0c0,0,0,0,0,0.1
			c0,0,0,0.1,0,0.1c0,0,0,0.1,0,0.1c0,0.5,0,0.6,0,0.8c0,0,0,0,0,0c0,0,0-0.1-0.1-0.1c0-0.2,0-0.3-0.1-0.3c-0.1-0.1-0.2-0.1-0.3-0.1
			L76,46.3v1.4l0.5,0c0.1,0,0.3,0,0.5-0.1c0.1-0.1,0.1-0.1,0.1-0.1c0-0.1,0.1-0.2,0.1-0.3c0,0,0-0.1,0-0.1c0,0,0,0,0,0
			c0,0,0,0,0,0.1c0,0.1,0,0.1,0,0.2c0,0.1,0,0.2,0,0.5c-0.6,0-0.5,0-1.5,0c-0.2,0-0.5,0-0.6,0c0,0,0,0,0,0c0,0,0,0,0,0l0.1,0
			c0,0,0.1,0,0.1,0c0,0,0.1,0,0.1,0c0,0,0-0.1,0-0.2v-2.1c0,0,0-0.1,0-0.1c0,0,0,0-0.1,0h-0.1c0,0,0,0,0,0c0,0,0,0,0.1,0h0.1
			c0.1,0,0.2,0,0.5,0c0.2,0,0.4,0,0.6,0c0.1,0,0.3,0,0.4,0c0.1,0,0.1,0,0.2,0c0,0,0.1,0,0.1,0c0,0.3,0,0.4,0,0.4c0,0.1,0,0.2,0,0.2
			c0,0,0,0,0,0c0,0,0,0-0.1-0.1c0-0.1-0.1-0.3-0.2-0.4c-0.1-0.1-0.3-0.1-0.5-0.1c-0.1,0-0.2,0-0.4,0V46.3z"/>
		<path class="st0" d="M80.4,47.7c0.2,0,0.6,0,0.7,0c0.2,0,0.3-0.1,0.3-0.2c0-0.1,0.1-0.3,0.1-0.3c0,0,0,0,0,0c0,0,0,0,0,0
			c0,0,0,0,0,0c0,0,0,0,0,0c0,0,0,0,0,0.1c0,0.2,0,0.2,0,0.4c0,0.1,0,0.1,0,0.2c0,0,0,0,0,0.1c-0.2,0-0.3,0-0.5,0
			C80.8,47.8,80.6,47.7,80.4,47.7c-0.1,0.1-0.1,0.1-0.1,0.1h-0.6c-0.1,0-0.1,0-0.2,0c0,0,0,0,0,0c0,0,0,0,0.1,0c0.1,0,0.2,0,0.2-0.1
			c0,0,0,0,0-0.2v-2.1c0-0.1,0-0.1,0-0.2c0,0-0.1,0-0.1,0c0,0,0,0-0.1,0c0,0-0.1,0-0.1,0c0,0,0,0,0,0c0,0,0,0,0.1,0c0,0,0,0,0.1,0
			c0.1,0,0.2,0,0.3,0c0.2,0,0.5,0,0.7,0c0,0,0.1,0,0.1,0c0,0,0,0-0.1,0c-0.1,0-0.2,0-0.2,0c0,0,0,0.1,0,0.2V47.7z"/>
		<path class="st0" d="M85.4,45.1C85.4,45.1,85.4,45.1,85.4,45.1c0,0.1,0,0.2,0,0.3c0,0.2,0,0.2,0,0.3c0,0,0,0,0,0
			c0,0-0.1-0.1-0.1-0.1c0-0.1,0-0.1-0.1-0.2c-0.1-0.1-0.1-0.2-0.2-0.3c0,0-0.1-0.1-0.3-0.1c-0.2,0-0.5,0.1-0.5,0.4
			c0,0.1,0,0.1,0.1,0.2c0.1,0.1,0.2,0.2,0.5,0.4c0.2,0.1,0.4,0.2,0.5,0.4c0.1,0.1,0.2,0.3,0.2,0.5c0,0.4-0.3,0.8-0.9,0.8
			c-0.2,0-0.3,0-0.4-0.1c-0.2-0.1-0.2-0.1-0.2-0.1c0,0,0,0,0,0c0,0,0,0,0,0c0,0.1,0,0.1,0,0.1c0,0,0,0,0,0c0,0,0,0,0-0.1
			c0-0.1,0-0.2,0-0.4c0-0.1,0-0.1,0-0.3c0,0,0-0.1,0-0.1c0,0,0,0.1,0.1,0.2c0,0.1,0.1,0.3,0.2,0.4c0.1,0.1,0.3,0.2,0.4,0.2
			c0.3,0,0.5-0.2,0.5-0.5c0-0.1,0-0.2-0.1-0.2c-0.1-0.1-0.3-0.2-0.4-0.3c-0.3-0.2-0.5-0.3-0.6-0.4C84,46.1,84,45.9,84,45.8
			c0-0.5,0.4-0.8,0.8-0.8c0.1,0,0.2,0,0.4,0.1c0.1,0,0.1,0,0.1,0c0,0,0,0,0,0C85.4,45.2,85.4,45.1,85.4,45.1
			C85.4,45,85.4,45,85.4,45.1C85.4,45,85.4,45,85.4,45.1z"/>
	</g>
</g>
</svg>
