<svg width="16" height="13" viewBox="0 0 16 13" fill="none" xmlns="http://www.w3.org/2000/svg">
<path fill-rule="evenodd" clip-rule="evenodd" d="M7 0.5C6.72386 0.5 6.5 0.723858 6.5 1C6.5 1.27614 6.72386 1.5 7 1.5H7.5V3.51329C5.88931 3.60021 4.62802 4.10719 3.65009 4.85228C2.57974 5.66779 1.87785 6.74602 1.41691 7.79959C0.956088 8.85291 0.728126 9.89941 0.614606 10.6778C0.557659 11.0683 0.529044 11.3947 0.514645 11.6251C0.50744 11.7403 0.503781 11.8318 0.501921 11.8956C0.500991 11.9275 0.500511 11.9524 0.500263 11.97L0.500039 11.9907L0.500006 11.9968L0.5 11.9988V11.9995C0.5 11.9998 0.5 12 1 12L0.5 12C0.5 12.2761 0.723858 12.5 1 12.5H15C15.2761 12.5 15.5 12.2761 15.5 12H15C15.5 12 15.5 11.9998 15.5 11.9995L15.5 11.9988L15.5 11.9968L15.5 11.9907L15.4997 11.97C15.4995 11.9524 15.499 11.9275 15.4981 11.8956C15.4962 11.8318 15.4926 11.7403 15.4854 11.6251C15.471 11.3947 15.4423 11.0683 15.3854 10.6778C15.2719 9.89941 15.0439 8.85291 14.5831 7.79959C14.1221 6.74602 13.4202 5.66779 12.3499 4.85228C11.372 4.1072 10.1107 3.60021 8.5 3.51329V1.5H9C9.27614 1.5 9.5 1.27614 9.5 1C9.5 0.723858 9.27614 0.5 9 0.5H7ZM1.52633 11.5H14.4737C14.4583 11.3144 14.4341 11.0845 14.3959 10.8222C14.2906 10.1006 14.0811 9.14709 13.6669 8.20041C13.2529 7.25398 12.6422 6.33221 11.7439 5.64772C10.852 4.96824 9.6476 4.5 7.99999 4.5C6.35239 4.5 5.14795 4.96824 4.25614 5.64772C3.35774 6.33221 2.74713 7.25398 2.33307 8.20041C1.9189 9.14709 1.70937 10.1006 1.60414 10.8222C1.56589 11.0845 1.54166 11.3144 1.52633 11.5Z" fill="white"/>
</svg>
