<?xml version="1.0" encoding="utf-8"?>
<!-- Generator: Adobe Illustrator 26.0.3, SVG Export Plug-In . SVG Version: 6.00 Build 0)  -->
<svg version="1.1" id="Capa_1" xmlns="http://www.w3.org/2000/svg" xmlns:xlink="http://www.w3.org/1999/xlink" x="0px" y="0px"
	 viewBox="0 0 30 30" style="enable-background:new 0 0 30 30;" xml:space="preserve">
<style type="text/css">
	#facebook-Capa_1 .st0{fill:#9A7611;}
</style>
<path class="st0" d="M15,1.7C7.6,1.7,1.7,7.6,1.7,15s6,13.3,13.3,13.3s13.3-6,13.3-13.3S22.4,1.7,15,1.7z M18.6,12.4l-0.2,2.5h-2.2
	v7.5h-3v-7.5h-1.5v-2.5h1.5v-1.5c0-2.1,1-3.2,3.4-3.2c0.9,0,1.5,0.1,2.3,0.3l-0.4,2.3c-0.4-0.1-1-0.1-1.3-0.1c-1,0-1,0.4-1,1.1v1.2
	H18.6z"/>
</svg>
