<?xml version="1.0" encoding="utf-8"?>
<!-- Generator: Adobe Illustrator 26.0.3, SVG Export Plug-In . SVG Version: 6.00 Build 0)  -->
<svg version="1.1" id="Capa_1" xmlns="http://www.w3.org/2000/svg" xmlns:xlink="http://www.w3.org/1999/xlink" x="0px" y="0px"
	 viewBox="0 0 100 70" style="enable-background:new 0 0 100 70;" xml:space="preserve">
<style type="text/css">
	#grand_palladium_hotels_resorts-Capa_1 .st0{fill-rule:evenodd;clip-rule:evenodd;fill:#9B751E;}
	#grand_palladium_hotels_resorts-Capa_1 .st1{fill:#002F72;}
	#grand_palladium_hotels_resorts-Capa_1 .st2{fill-rule:evenodd;clip-rule:evenodd;fill:#002F72;}
</style>
<g>
	<path class="st0" d="M56.8,27.2c0,0-0.1-1.4-0.8-2.5c-0.9-1.6-2-2-2.4-2.3c0,0,0.3-0.3,0.9-0.4c0.9-0.2,1.7,0.1,1.7,0.1
		s-0.8-1-2.7-1.2c-1.6-0.2-2.3,0.4-2.3,0.4s0.2-0.5,0.9-0.9c0.7-0.4,1.6-0.3,1.6-0.3s-0.5-0.2-1.2-0.3c-1-0.1-2.8-0.3-4,0.6
		c-1.2,0.9-0.8,2.1-0.8,2.1s1.4-0.5,3,0c1.8,0.5,3.2,1.9,3.2,4.5c0,3.2-3.3,5.3-3.3,5.3c7.1-0.2,12.7-3.4,12.7-7.3
		c0-4-6-7.3-13.4-7.3c-7.4,0-13.4,3.3-13.4,7.3c0,1.9,1.4,3.7,3.3,4.8c2,1.2,6.5,1.9,9.1,0.4c2.5-1.4,3.2-4.2,1.9-5.9
		c-1.2-1.4-3.2-1.4-4.6-0.8c-1.4,0.5-1.8,1.3-1.8,1.3c1.5-0.6,3.5-0.5,3.7,0.5c0.2,0.9-0.8,1.5-2.7,1.6c-0.8,0.1-1.7,0-2.5-0.2
		c0,0-1-0.1-2-0.7c-0.1,0-0.1-0.1-0.2-0.1c-1-0.7-1.7-1.6-1.7-2.5c0-2.6,4.8-4.6,10.8-4.6c6,0,10.8,2.1,10.8,4.6
		C60.7,25,59.2,26.3,56.8,27.2L56.8,27.2z"/>
	<path class="st1" d="M8.4,36.9c-0.5-0.1-1.1-0.2-1.6-0.2c-2.5,0-4.3,1.4-4.3,3.6c0,2.1,1.6,3.5,4.2,3.5c0.8,0,1.6-0.2,2.5-0.3
		c-0.1-0.1-0.1-0.3-0.1-0.5v-2.4c0-0.2,0-0.3,0.1-0.4v0H7.6v0c0.5,0.2,0.5,0.7,0.5,1.2v1.5c-0.5,0.1-1,0.2-1.4,0.2
		c-1.6,0-2.9-1.3-2.9-2.9c0-1.7,1.2-2.7,2.8-2.7c0.6,0,1.4,0.1,1.8,0.6h0V36.9L8.4,36.9z"/>
	<path class="st1" d="M9.8,36.9L9.8,36.9c0.5,0.2,0.5,1,0.5,1.5v3.9c0,0.5,0.1,1.2-0.5,1.4v0h2v0c-0.5-0.2-0.5-0.9-0.5-1.4v-4.6
		c0.2,0,0.5-0.1,0.7-0.1c0.7,0,1.3,0.4,1.3,1.1c0,1-1,1.3-1.8,1.5l0.9,1.5l1.3,1.6c0.3,0.4,0.6,0.5,1.2,0.5h0.9
		c-0.6-0.4-1.2-0.9-1.7-1.4l-1.5-1.9c0.8-0.2,1.6-0.9,1.6-1.8c0-0.9-0.8-1.7-2.1-1.7H9.8L9.8,36.9z"/>
	<path class="st2" d="M20,41.1l0.6,1.5c0.3,0.7,0.4,0.8-0.1,1.1v0h2.1v0c-0.6-0.3-0.8-0.9-1-1.5l-2.1-5.3h-1.6v0
		c0.5,0.2,0.3,0.6,0.2,1l-1.7,4.3c-0.2,0.6-0.4,1.2-1,1.5v0H17v0c-0.5-0.2-0.4-0.5-0.2-1.1l0.5-1.5H20L20,41.1z M19.7,40.3h-2l1-2.6
		L19.7,40.3L19.7,40.3z"/>
	<path class="st1" d="M24.2,38.3l3.5,4.5c0.5,0.6,0.8,0.9,1.5,1.2v-5.8c0-0.6,0-1,0.5-1.3v0H28v0c0.5,0.3,0.5,0.7,0.5,1.3v3.9
		l-3.8-4.8l-0.1-0.2c-0.1-0.1-0.1-0.1-0.2-0.3v0H23v0c0.5,0.3,0.5,0.7,0.5,1.3v4.1c0,0.6,0,1-0.5,1.3v0h1.8v0
		c-0.5-0.3-0.5-0.7-0.5-1.3V38.3L24.2,38.3z"/>
	<path class="st2" d="M31,42.2c0,0.6,0.1,1.1-0.5,1.5v0H33c2.3,0,3.9-1.4,3.9-3.5c0-2.1-1.5-3.3-3.8-3.3h-2.5v0
		c0.5,0.2,0.5,0.9,0.5,1.4V42.2L31,42.2z M32,37.7c0.3-0.1,0.6-0.1,0.9-0.1c1.7,0,2.7,0.9,2.7,2.7c0,1.8-1.4,2.6-2.9,2.6
		c-0.3,0-0.5,0-0.8-0.1V37.7L32,37.7z"/>
	<path class="st1" d="M40.7,36.9L40.7,36.9c0.5,0.2,0.5,1,0.5,1.5v3.9c0,0.5,0.1,1.2-0.5,1.4v0h2.1v0c-0.5-0.3-0.5-0.7-0.5-1.3v-4.6
		c0.2,0,0.5-0.1,0.7-0.1c0.8,0,1.5,0.4,1.5,1.3c0,1-1,1.5-1.8,1.6c0.2,0.1,0.5,0.1,0.8,0.1c1.2,0,2.3-0.8,2.3-1.9
		c0-1.2-1-1.8-2.4-1.8H40.7L40.7,36.9z"/>
	<path class="st2" d="M50.1,41.1l0.6,1.5c0.3,0.7,0.4,0.8-0.1,1.1v0h2.1v0c-0.6-0.3-0.8-0.9-1-1.5l-2.1-5.3h-1.6v0
		c0.5,0.2,0.3,0.6,0.2,1l-1.7,4.3c-0.2,0.6-0.4,1.2-1,1.5v0h1.9v0c-0.5-0.2-0.4-0.5-0.2-1.1l0.5-1.5H50.1L50.1,41.1z M49.8,40.3h-2
		l1-2.6L49.8,40.3L49.8,40.3z"/>
	<path class="st2" d="M54.7,42.8v-4.5c0-0.5-0.1-1.2,0.5-1.4v0h-2v0c0.5,0.2,0.5,0.9,0.5,1.4v3.9c0,0.5,0.1,1.2-0.5,1.4v0h4.2
		l0.5-1.4h0c-0.5,0.4-1.1,0.7-1.8,0.6L54.7,42.8L54.7,42.8z"/>
	<path class="st2" d="M60.1,42.8v-4.5c0-0.5-0.1-1.2,0.5-1.4v0h-2v0c0.5,0.2,0.5,0.9,0.5,1.4v3.9c0,0.5,0.1,1.2-0.5,1.4v0h4.2
		l0.5-1.4h0c-0.5,0.4-1.1,0.7-1.8,0.6L60.1,42.8L60.1,42.8z"/>
	<path class="st2" d="M68.5,41.1l0.6,1.5c0.3,0.7,0.4,0.8-0.1,1.1v0H71v0c-0.6-0.3-0.8-0.9-1-1.5l-2.1-5.3h-1.6v0
		c0.5,0.2,0.3,0.6,0.2,1l-1.7,4.3c-0.2,0.6-0.4,1.2-1,1.5v0h1.9v0c-0.5-0.2-0.4-0.5-0.2-1.1l0.5-1.5H68.5L68.5,41.1z M68.2,40.3h-2
		l1-2.6L68.2,40.3L68.2,40.3z"/>
	<path class="st2" d="M72,42.2c0,0.6,0.1,1.1-0.5,1.5v0H74c2.3,0,3.9-1.4,3.9-3.5c0-2.1-1.5-3.3-3.8-3.3h-2.5v0
		c0.5,0.2,0.5,0.9,0.5,1.4V42.2L72,42.2z M73.1,37.7c0.3-0.1,0.6-0.1,0.9-0.1c1.7,0,2.7,0.9,2.7,2.7c0,1.8-1.4,2.6-2.9,2.6
		c-0.3,0-0.5,0-0.8-0.1V37.7L73.1,37.7z"/>
	<path class="st1" d="M79.1,42.2c0,0.5,0.1,1.2-0.5,1.4v0h2v0c-0.5-0.2-0.5-0.9-0.5-1.4v-3.9c0-0.5-0.1-1.2,0.5-1.4v0h-2v0
		c0.5,0.2,0.5,0.9,0.5,1.4V42.2L79.1,42.2z"/>
	<path class="st1" d="M86.2,43.7h1.5v0c-0.5-0.2-0.5-0.9-0.5-1.4v-3.9c0-0.5-0.1-1.2,0.5-1.4l0,0h-2v0c0.5,0.2,0.5,0.9,0.5,1.4v3.1
		c0,0.4,0,0.6-0.2,0.9c-0.3,0.5-0.9,0.7-1.5,0.7c-1.1,0-1.6-0.6-1.6-2v-2.8c0-0.5-0.1-1.2,0.5-1.4v0h-2v0c0.5,0.2,0.5,0.9,0.5,1.4
		v2.8c0,0.7,0,1.4,0.5,2c0.5,0.5,1.2,0.7,1.9,0.7c0.7,0,1.6-0.2,2-0.8V43.7L86.2,43.7z"/>
	<path class="st1" d="M93,41.9L91,37.3c-0.1-0.1-0.1-0.3-0.1-0.5v0h-1.8v0c0.5,0.3,0.4,0.7,0.3,1l-0.6,4.3c-0.1,0.6-0.1,1.1-0.6,1.4
		v0h1.7v0c-0.5-0.2-0.4-0.7-0.3-1.3l0.6-4.4l2,4.6c0.2,0.6,0.4,0.9,0.9,1.2l2.3-5.9l0.6,5c0,0.4-0.1,0.7-0.4,0.8v0h2v0
		c-0.4-0.3-0.5-0.6-0.5-1.1l-0.7-5.1c0-0.2,0.1-0.5,0.3-0.6v0h-1.8v0c0,0.2-0.1,0.4-0.2,0.6L93,41.9L93,41.9z"/>
	<g>
		<path class="st1" d="M26.4,50.2h-2.1v1.1c0,0.2,0,0.4,0,0.5c0,0.2,0.1,0.3,0.2,0.3v0h-1.1v0c0.1,0,0.2-0.2,0.2-0.3
			c0-0.1,0-0.2,0-0.5v-2.2c0-0.2,0-0.4,0-0.5c0-0.2-0.1-0.3-0.2-0.3v0h1.1v0c-0.1,0-0.2,0.2-0.2,0.3c0,0.1,0,0.2,0,0.5v0.7h2.1v-0.7
			c0-0.2,0-0.4,0-0.5c0-0.2-0.1-0.3-0.2-0.3v0h1.1v0c-0.1,0-0.2,0.2-0.2,0.3c0,0.1,0,0.2,0,0.5v2.2c0,0.2,0,0.4,0,0.5
			c0,0.2,0.1,0.3,0.2,0.3v0h-1.1v0c0.1,0,0.2-0.2,0.2-0.3c0-0.1,0-0.2,0-0.5V50.2z"/>
		<path class="st1" d="M29.8,48.1c0.6,0,1.1,0.2,1.5,0.6c0.4,0.4,0.6,0.9,0.6,1.4c0,0.6-0.2,1.1-0.6,1.5c-0.4,0.4-0.9,0.6-1.5,0.6
			s-1.1-0.2-1.5-0.6c-0.4-0.4-0.6-0.9-0.6-1.5c0-0.6,0.2-1,0.6-1.4C28.7,48.3,29.2,48.1,29.8,48.1z M29.8,48.6
			c-0.5,0-0.8,0.1-1.1,0.4c-0.3,0.3-0.4,0.7-0.4,1.1c0,0.4,0.1,0.8,0.4,1.2c0.3,0.4,0.7,0.5,1.1,0.5c0.4,0,0.8-0.1,1.1-0.4
			c0.3-0.3,0.4-0.7,0.4-1.1c0-0.5-0.1-0.8-0.4-1.2C30.6,48.7,30.3,48.6,29.8,48.6z"/>
		<path class="st1" d="M33.8,48.7v2.7c0,0.2,0,0.4,0,0.4c0,0.1,0.1,0.2,0.3,0.3v0h-1.2v0c0.1,0,0.2-0.2,0.2-0.3c0-0.1,0-0.2,0-0.5
			v-2.6h-0.5c-0.3,0-0.5,0.1-0.7,0.2h0l0.2-0.7h0c0,0,0.1,0,0.2,0h2.4c0.1,0,0.2,0,0.3,0h0l-0.2,0.7h0c-0.1-0.2-0.2-0.2-0.5-0.2
			H33.8z"/>
		<path class="st1" d="M36,50.2v1.4l0.8,0.1c0,0,0.1,0,0.1,0c0.4,0,0.7-0.1,1-0.4h0l-0.3,0.8h-2.5v0c0.1,0,0.2-0.2,0.2-0.3
			c0-0.1,0-0.2,0-0.5v-2.2c0-0.2,0-0.4,0-0.5c0-0.2-0.1-0.3-0.2-0.3v0H37c0.2,0,0.2,0,0.3,0h0v0.7h0c-0.1-0.2-0.4-0.2-0.7-0.2
			c-0.3,0-0.5,0-0.6,0v1.1h0.7c0.1,0,0.2,0,0.3,0h0v0.6h0c-0.1-0.1-0.2-0.2-0.5-0.2H36z"/>
		<path class="st1" d="M39.1,51.7l0.8,0.1c0.4,0,0.7-0.1,1-0.4h0l-0.3,0.8h-2.4v0c0.1,0,0.2-0.2,0.2-0.3c0-0.1,0-0.2,0-0.5v-2.2
			c0-0.2,0-0.4,0-0.5c0-0.2-0.1-0.3-0.2-0.3v0h1.1v0c-0.1,0-0.2,0.2-0.2,0.3c0,0.1,0,0.2,0,0.5V51.7z"/>
		<path class="st1" d="M43.6,48.3v0.7c-0.2-0.2-0.6-0.4-0.9-0.4c-0.2,0-0.4,0-0.5,0.1c-0.2,0.1-0.3,0.2-0.3,0.4
			c0,0.2,0.2,0.4,0.5,0.6c0.3,0.2,0.7,0.3,1,0.5c0.4,0.2,0.5,0.5,0.5,0.8c0,0.3-0.1,0.6-0.4,0.9c-0.3,0.2-0.7,0.4-1.1,0.4
			c-0.4,0-0.7-0.1-1.1-0.2l-0.2-0.7c0.4,0.3,0.8,0.5,1.3,0.5c0.2,0,0.4-0.1,0.6-0.2c0.2-0.1,0.3-0.3,0.3-0.5c0-0.2-0.2-0.5-0.5-0.7
			c-0.3-0.2-0.7-0.3-1-0.5c-0.4-0.2-0.5-0.5-0.5-0.9c0-0.3,0.2-0.6,0.5-0.8c0.3-0.2,0.6-0.2,1-0.2C43,48.1,43.3,48.2,43.6,48.3z"/>
		<path class="st1" d="M50.6,52.1H50c-0.2,0-0.4,0-0.6-0.1c-0.2-0.1-0.5-0.3-0.7-0.5c-0.3,0.5-0.7,0.7-1.2,0.7
			c-0.4,0-0.7-0.1-0.9-0.3c-0.3-0.2-0.4-0.5-0.4-0.8c0-0.3,0.1-0.5,0.2-0.7c0.1-0.2,0.3-0.3,0.6-0.6c-0.3-0.3-0.5-0.6-0.5-0.8
			c0-0.2,0.1-0.4,0.3-0.6c0.2-0.2,0.4-0.2,0.6-0.2c0.2,0,0.4,0.1,0.6,0.2c0.2,0.2,0.2,0.3,0.2,0.6c0,0.2-0.1,0.3-0.2,0.5
			c-0.1,0.1-0.2,0.2-0.4,0.4c0.7,0.7,1.2,1.1,1.4,1.3C49.6,51.5,50.1,51.9,50.6,52.1L50.6,52.1z M48.5,51.3l-1.2-1.1
			c-0.4,0.3-0.5,0.5-0.5,0.9c0,0.2,0.1,0.4,0.2,0.6c0.2,0.1,0.4,0.2,0.6,0.2C47.9,51.8,48.2,51.6,48.5,51.3z M47.4,49.5
			c0.3-0.2,0.4-0.4,0.4-0.6c0-0.1,0-0.2-0.1-0.3c-0.1-0.1-0.2-0.1-0.3-0.1c-0.3,0-0.4,0.1-0.4,0.3C47,49,47.1,49.2,47.4,49.5z"/>
		<path class="st1" d="M52.4,48.2h1.4c0.4,0,0.7,0.1,0.9,0.3c0.2,0.2,0.3,0.4,0.3,0.7c0,0.2-0.1,0.5-0.3,0.7
			c-0.2,0.2-0.4,0.3-0.7,0.4l0.9,1.1c0.2,0.3,0.6,0.6,1,0.8h-0.5c-0.3,0-0.5-0.1-0.7-0.3l-0.7-0.9l-0.5-0.8c0.7-0.1,1-0.4,1-0.8
			c0-0.2-0.1-0.4-0.2-0.5c-0.1-0.1-0.3-0.2-0.5-0.2c-0.1,0-0.3,0-0.4,0v2.7c0,0.2,0,0.4,0,0.5c0,0.2,0.1,0.3,0.2,0.3v0h-1.1v0
			c0.1,0,0.2-0.2,0.2-0.3c0-0.1,0-0.2,0-0.5v-2.2c0-0.2,0-0.4,0-0.5C52.6,48.4,52.5,48.3,52.4,48.2L52.4,48.2z"/>
		<path class="st1" d="M56.5,50.2v1.4l0.8,0.1c0,0,0.1,0,0.1,0c0.4,0,0.7-0.1,1-0.4h0l-0.3,0.8h-2.5v0c0.1,0,0.2-0.2,0.2-0.3
			c0-0.1,0-0.2,0-0.5v-2.2c0-0.2,0-0.4,0-0.5c0-0.2-0.1-0.3-0.2-0.3v0h1.9c0.2,0,0.2,0,0.3,0h0v0.7h0c-0.1-0.2-0.4-0.2-0.7-0.2
			c-0.3,0-0.5,0-0.6,0v1.1h0.7c0.1,0,0.2,0,0.3,0h0v0.6h0c-0.1-0.1-0.2-0.2-0.5-0.2H56.5z"/>
		<path class="st1" d="M61,48.3v0.7c-0.2-0.2-0.6-0.4-0.9-0.4c-0.2,0-0.4,0-0.5,0.1c-0.2,0.1-0.3,0.2-0.3,0.4c0,0.2,0.2,0.4,0.5,0.6
			c0.3,0.2,0.7,0.3,1,0.5c0.4,0.2,0.5,0.5,0.5,0.8c0,0.3-0.1,0.6-0.4,0.9c-0.3,0.2-0.7,0.4-1.1,0.4c-0.4,0-0.7-0.1-1.1-0.2l-0.2-0.7
			c0.4,0.3,0.8,0.5,1.3,0.5c0.2,0,0.4-0.1,0.6-0.2c0.2-0.1,0.3-0.3,0.3-0.5c0-0.2-0.2-0.5-0.5-0.7c-0.3-0.2-0.7-0.3-1-0.5
			c-0.4-0.2-0.5-0.5-0.5-0.9c0-0.3,0.2-0.6,0.5-0.8c0.3-0.2,0.6-0.2,1-0.2C60.4,48.1,60.7,48.2,61,48.3z"/>
		<path class="st1" d="M63.9,48.1c0.6,0,1.1,0.2,1.5,0.6c0.4,0.4,0.6,0.9,0.6,1.4c0,0.6-0.2,1.1-0.6,1.5c-0.4,0.4-0.9,0.6-1.5,0.6
			c-0.6,0-1.1-0.2-1.5-0.6c-0.4-0.4-0.6-0.9-0.6-1.5c0-0.6,0.2-1,0.6-1.4C62.7,48.3,63.3,48.1,63.9,48.1z M63.8,48.6
			c-0.5,0-0.8,0.1-1.1,0.4c-0.3,0.3-0.4,0.7-0.4,1.1c0,0.4,0.1,0.8,0.4,1.2c0.3,0.4,0.7,0.5,1.1,0.5c0.4,0,0.8-0.1,1.1-0.4
			c0.3-0.3,0.4-0.7,0.4-1.1c0-0.5-0.1-0.8-0.4-1.2C64.7,48.7,64.3,48.6,63.8,48.6z"/>
		<path class="st1" d="M66.4,48.2h1.4c0.4,0,0.7,0.1,0.9,0.3c0.2,0.2,0.3,0.4,0.3,0.7c0,0.2-0.1,0.5-0.3,0.7
			c-0.2,0.2-0.4,0.3-0.7,0.4l0.9,1.1c0.2,0.3,0.6,0.6,1,0.8h-0.5c-0.3,0-0.5-0.1-0.7-0.3l-0.7-0.9l-0.5-0.8c0.7-0.1,1-0.4,1-0.8
			c0-0.2-0.1-0.4-0.2-0.5c-0.1-0.1-0.3-0.2-0.5-0.2c-0.1,0-0.3,0-0.4,0v2.7c0,0.2,0,0.4,0,0.5c0,0.2,0.1,0.3,0.2,0.3v0h-1.1v0
			c0.1,0,0.2-0.2,0.2-0.3c0-0.1,0-0.2,0-0.5v-2.2c0-0.2,0-0.4,0-0.5C66.6,48.4,66.5,48.3,66.4,48.2L66.4,48.2z"/>
		<path class="st1" d="M71,48.7v2.7c0,0.2,0,0.4,0,0.4c0,0.1,0.1,0.2,0.3,0.3v0h-1.2v0c0.1,0,0.2-0.2,0.2-0.3c0-0.1,0-0.2,0-0.5
			v-2.6h-0.5c-0.3,0-0.5,0.1-0.7,0.2h0l0.2-0.7h0c0,0,0.1,0,0.2,0H72c0.1,0,0.2,0,0.3,0h0l-0.2,0.7h0c-0.1-0.2-0.2-0.2-0.5-0.2H71z"
			/>
		<path class="st1" d="M74.7,48.3v0.7c-0.2-0.2-0.6-0.4-0.9-0.4c-0.2,0-0.4,0-0.5,0.1C73,48.8,73,48.9,73,49.1
			c0,0.2,0.2,0.4,0.5,0.6c0.3,0.2,0.7,0.3,1,0.5c0.4,0.2,0.5,0.5,0.5,0.8c0,0.3-0.1,0.6-0.4,0.9c-0.3,0.2-0.7,0.4-1.1,0.4
			c-0.4,0-0.7-0.1-1.1-0.2l-0.2-0.7c0.4,0.3,0.8,0.5,1.3,0.5c0.2,0,0.4-0.1,0.6-0.2c0.2-0.1,0.3-0.3,0.3-0.5c0-0.2-0.2-0.5-0.5-0.7
			c-0.3-0.2-0.7-0.3-1-0.5c-0.4-0.2-0.5-0.5-0.5-0.9c0-0.3,0.2-0.6,0.5-0.8c0.3-0.2,0.6-0.2,1-0.2C74.1,48.1,74.4,48.2,74.7,48.3z"
			/>
	</g>
</g>
</svg>
