<?xml version="1.0" encoding="utf-8"?>
<!-- Generator: Adobe Illustrator 26.0.3, SVG Export Plug-In . SVG Version: 6.00 Build 0)  -->
<svg version="1.1" id="Capa_1" xmlns="http://www.w3.org/2000/svg" xmlns:xlink="http://www.w3.org/1999/xlink" x="0px" y="0px"
	 viewBox="0 0 30 30" style="enable-background:new 0 0 30 30;" xml:space="preserve">
<style type="text/css">
	.st0{fill:#9A7611;}
</style>
<g>
	<path class="st0" d="M21.2,10c-0.1-0.4-0.3-0.6-0.6-0.9c-0.3-0.3-0.5-0.5-0.9-0.6c-0.3-0.1-0.7-0.2-1.5-0.3c-0.8,0-1.1,0-3.2,0
		s-2.4,0-3.2,0c-0.8,0-1.2,0.2-1.5,0.3C9.9,8.6,9.6,8.8,9.4,9.1C9.1,9.3,8.9,9.6,8.8,10c-0.1,0.3-0.2,0.7-0.3,1.5c0,0.8,0,1.1,0,3.2
		c0,2.1,0,2.4,0,3.2c0,0.8,0.2,1.2,0.3,1.5c0.1,0.4,0.3,0.6,0.6,0.9c0.3,0.3,0.5,0.5,0.9,0.6c0.3,0.1,0.7,0.2,1.5,0.3
		c0.8,0,1.1,0,3.2,0c2.1,0,2.4,0,3.2,0c0.8,0,1.2-0.2,1.5-0.3c0.4-0.1,0.6-0.3,0.9-0.6c0.3-0.3,0.5-0.5,0.6-0.9
		c0.1-0.3,0.2-0.7,0.3-1.5c0-0.8,0-1.1,0-3.2c0-2.1,0-2.4,0-3.2C21.5,10.7,21.3,10.3,21.2,10z M15,18.8c-2.3,0-4.1-1.8-4.1-4.1
		c0-2.3,1.8-4.1,4.1-4.1c2.3,0,4.1,1.8,4.1,4.1C19.1,17,17.3,18.8,15,18.8z M19.3,11.4c-0.5,0-1-0.4-1-1s0.4-1,1-1c0.5,0,1,0.4,1,1
		S19.8,11.4,19.3,11.4z"/>
	<path class="st0" d="M15,12c-1.5,0-2.7,1.2-2.7,2.7c0,1.5,1.2,2.7,2.7,2.7c1.5,0,2.7-1.2,2.7-2.7C17.7,13.2,16.5,12,15,12z"/>
	<path class="st0" d="M15,1.4c-7.4,0-13.3,6-13.3,13.3C1.7,22.1,7.6,28,15,28c7.4,0,13.3-6,13.3-13.3C28.3,7.3,22.4,1.4,15,1.4z
		 M23,18c0,0.9-0.2,1.4-0.4,1.9c-0.2,0.5-0.5,1-0.9,1.4c-0.4,0.4-0.9,0.7-1.4,0.9c-0.5,0.2-1.1,0.3-1.9,0.4c-0.9,0-1.1,0-3.3,0
		c-2.2,0-2.4,0-3.3,0c-0.9,0-1.4-0.2-1.9-0.4c-0.5-0.2-1-0.5-1.4-0.9c-0.4-0.4-0.7-0.9-0.9-1.4C7.2,19.4,7.1,18.9,7,18
		c0-0.9,0-1.1,0-3.3c0-2.2,0-2.4,0-3.3c0-0.9,0.2-1.4,0.4-1.9c0.2-0.5,0.5-1,0.9-1.4c0.4-0.4,0.9-0.7,1.4-0.9
		c0.5-0.2,1.1-0.3,1.9-0.4c0.9,0,1.1,0,3.3,0c2.2,0,2.4,0,3.3,0c0.9,0,1.4,0.2,1.9,0.4c0.5,0.2,1,0.5,1.4,0.9
		c0.4,0.4,0.7,0.9,0.9,1.4c0.2,0.5,0.3,1.1,0.4,1.9c0,0.9,0,1.1,0,3.3C23,16.9,23,17.1,23,18z"/>
</g>
</svg>
