<?xml version="1.0" encoding="utf-8"?>
<!-- Generator: Adobe Illustrator 26.3.1, SVG Export Plug-In . SVG Version: 6.00 Build 0)  -->
<svg version="1.1" id="Capa_1" xmlns="http://www.w3.org/2000/svg" xmlns:xlink="http://www.w3.org/1999/xlink" x="0px" y="0px"
	 viewBox="0 0 24 23" style="enable-background:new 0 0 24 23;" xml:space="preserve">
<style type="text/css">
	.lang{fill-rule:evenodd;clip-rule:evenodd;fill:#AEA780;}
</style>
<path class="lang" d="M12,0.5c-6.1,0-11,4.9-11,11c0,6.1,4.9,11,11,11c6.1,0,11-4.9,11-11C23,5.4,18.1,0.5,12,0.5z M21.5,11H18
	c-0.1-3.3-1.5-6.6-3.9-8.8C18.3,3.2,21.3,6.8,21.5,11z M11,3.1V11H7.5C7.6,7.9,8.9,4.8,11,3.1z M11,12.5v7.4c-2-1.7-3.2-4.6-3.5-7.4
	H11z M12.5,20.1v-7.6h4C16.2,15.3,14.7,18.3,12.5,20.1z M12.5,11V2.8c2.4,1.7,3.8,5,4,8.2H12.5z M9.6,2.3C7.4,4.4,6.1,7.7,6,11H2.5
	C2.7,6.9,5.6,3.4,9.6,2.3z M2.6,12.5H6c0.3,3.1,1.6,6.2,3.7,8.2C5.9,19.8,3,16.5,2.6,12.5L2.6,12.5z M14,20.8c2.3-2.2,3.7-5.1,4-8.3
	h3.5C21.1,16.6,18,19.9,14,20.8L14,20.8z"/>
</svg>
