<?xml version="1.0" encoding="utf-8"?>
<!-- Generator: Adobe Illustrator 26.0.3, SVG Export Plug-In . SVG Version: 6.00 Build 0)  -->
<svg version="1.1" id="Capa_1" xmlns="http://www.w3.org/2000/svg" xmlns:xlink="http://www.w3.org/1999/xlink" x="0px" y="0px"
	 viewBox="0 0 100 70" style="enable-background:new 0 0 100 70;" xml:space="preserve">
<style type="text/css">
	#only_you_hotels-Capa_1 .st0{fill:#0D0C17;}
</style>
<g>
	<g>
		<polygon class="st0" points="34.1,50.8 34.1,44.1 29.6,30.1 32.6,30.1 35.6,40.4 38.6,30.1 41.3,30.1 37.1,44.1 37.1,50.8 		"/>
		<path class="st0" d="M46.6,44.9c0,0.6,0.1,1.1,0.2,1.5c0.1,0.5,0.3,0.8,0.5,1.2c0.2,0.3,0.5,0.6,0.9,0.7c0.4,0.2,0.9,0.3,1.4,0.3
			c0.6,0,1-0.1,1.4-0.3c0.4-0.2,0.7-0.4,0.9-0.7c0.2-0.3,0.4-0.7,0.5-1.2c0.1-0.5,0.2-1,0.2-1.5V36c0-0.6-0.1-1.1-0.2-1.5
			c-0.1-0.5-0.3-0.8-0.5-1.2c-0.2-0.3-0.5-0.6-0.9-0.7c-0.4-0.2-0.9-0.3-1.4-0.3c-0.6,0-1,0.1-1.4,0.3c-0.4,0.2-0.7,0.4-0.9,0.7
			c-0.2,0.3-0.4,0.7-0.5,1.2c-0.1,0.5-0.2,1-0.2,1.5V44.9z M55.6,44.1c0,0.9-0.1,1.8-0.3,2.6c-0.2,0.8-0.5,1.6-1,2.2
			c-0.5,0.6-1.1,1.1-1.9,1.5c-0.8,0.4-1.7,0.6-2.9,0.6c-0.8,0-1.5-0.1-2.1-0.3c-0.6-0.2-1.1-0.4-1.6-0.7c-0.4-0.3-0.8-0.7-1.1-1.1
			c-0.3-0.4-0.6-0.9-0.7-1.4c-0.2-0.5-0.3-1-0.4-1.6c-0.1-0.6-0.1-1.2-0.1-1.8v-7.4c0-0.6,0-1.2,0.1-1.8c0.1-0.6,0.2-1.1,0.4-1.6
			c0.2-0.5,0.4-1,0.7-1.4c0.3-0.4,0.7-0.8,1.1-1.1c0.4-0.3,1-0.5,1.6-0.7c0.6-0.2,1.3-0.3,2.1-0.3c1.2,0,2.1,0.2,2.9,0.6
			c0.8,0.4,1.4,0.9,1.9,1.5c0.5,0.6,0.8,1.3,1,2.2c0.2,0.8,0.3,1.7,0.3,2.6V44.1z"/>
		<path class="st0" d="M64.3,51c-0.9,0-1.6-0.1-2.3-0.3c-0.6-0.2-1.2-0.5-1.6-0.8c-0.4-0.4-0.8-0.8-1.1-1.3c-0.3-0.5-0.5-1-0.6-1.6
			c-0.2-0.6-0.3-1.1-0.3-1.8c-0.1-0.6-0.1-1.2-0.1-1.8V30.1h3v13.3c0,0.4,0,0.8,0,1.2c0,0.4,0,0.8,0.1,1.2c0.1,0.4,0.1,0.7,0.3,1.1
			c0.1,0.3,0.3,0.6,0.5,0.9c0.2,0.3,0.5,0.5,0.9,0.6c0.3,0.2,0.8,0.2,1.3,0.2c0.5,0,0.9-0.1,1.3-0.2c0.3-0.2,0.6-0.4,0.9-0.6
			c0.2-0.3,0.4-0.6,0.5-0.9c0.1-0.3,0.2-0.7,0.3-1.1c0.1-0.4,0.1-0.8,0.1-1.2c0-0.4,0-0.8,0-1.2V30.1h3v13.3c0,0.6,0,1.2-0.1,1.8
			c-0.1,0.6-0.2,1.2-0.3,1.8c-0.2,0.6-0.4,1.1-0.6,1.6c-0.3,0.5-0.6,0.9-1.1,1.3c-0.4,0.4-1,0.6-1.6,0.8C65.9,50.9,65.2,51,64.3,51"
			/>
		<path class="st0" d="M34.7,13.2c-2.7,0-5,2.2-5,6.4c0,4.3,2.3,7.4,5.6,7.4c2.7,0,5-2.1,5-6.2C40.4,15.8,38,13.2,34.7,13.2
			 M42.6,19.8c0,4.6-3.3,7.8-7.7,7.8c-4.3,0-7.4-3.2-7.4-7.4c0-3.8,2.7-7.8,7.8-7.8C39.3,12.4,42.6,15.4,42.6,19.8"/>
		<path class="st0" d="M47.7,19c0.4-0.3,0.9-0.6,1.5-1c0.7-0.4,1.3-0.6,2-0.6c1.9,0,2.9,1.2,2.9,3v5c0,1.3,0.1,1.4,1.4,1.5v0.5h-4.8
			v-0.5c1.5-0.1,1.6-0.2,1.6-1.5V21c0-1.3-0.4-2.4-2.1-2.4c-0.9,0-1.8,0.5-2.5,1.1v5.7c0,1.3,0.1,1.4,1.5,1.5v0.5h-4.9v-0.5
			c1.6-0.1,1.7-0.2,1.7-1.5v-5.2c0-1.3,0-1.4-1.6-1.5v-0.4c1.1-0.2,2.2-0.5,3.3-0.9V19z"/>
		<path class="st0" d="M58.1,14.1c0-1.3,0-1.3-1.6-1.5v-0.4c1.1-0.2,2.6-0.6,3.4-0.8v13.9c0,1.3,0.1,1.4,1.7,1.5v0.5h-5.1v-0.5
			c1.6-0.1,1.7-0.2,1.7-1.5V14.1z"/>
		<path class="st0" d="M66.3,18.1l-0.7,0.1c-0.5,0.1-0.5,0.4-0.3,1l2,5.5c0.6-1.3,2-4.8,2.2-5.6c0.3-0.7,0.2-0.9-0.3-1l-0.8-0.1
			v-0.5h4v0.5c-1.2,0.2-1.3,0.3-2,1.6c-0.6,1.1-1.4,3-2.9,6.3c-1.5,3.5-2.1,4.9-2.4,6.1c-0.1,0.4-0.5,0.6-0.7,0.6
			c-0.6,0-1.1-0.5-1.1-1c0-0.3,0.3-0.5,0.6-0.8c0.6-0.4,1.2-1.1,1.6-1.9c0.3-0.7,0.6-1.4,0.7-1.6c0.1-0.2,0.1-0.5,0-0.7
			c-0.8-2.4-1.9-5.1-2.5-6.8c-0.5-1.4-0.6-1.5-2-1.7v-0.5h4.6V18.1z"/>
	</g>
	<g>
		<path class="st0" d="M34.1,54c0-0.1,0.1-0.1,0.1-0.1h0.4c0.1,0,0.1,0.1,0.1,0.1v1.8h2.4V54c0-0.1,0.1-0.1,0.1-0.1h0.4
			c0.1,0,0.1,0.1,0.1,0.1v4.4c0,0.1-0.1,0.1-0.1,0.1h-0.4c-0.1,0-0.1-0.1-0.1-0.1v-1.9h-2.4v1.9c0,0.1-0.1,0.1-0.1,0.1h-0.4
			c-0.1,0-0.1-0.1-0.1-0.1V54z"/>
		<path class="st0" d="M42.8,53.8c1.3,0,2.4,1.1,2.4,2.4c0,1.3-1.1,2.4-2.4,2.4c-1.3,0-2.4-1-2.4-2.4C40.5,54.9,41.5,53.8,42.8,53.8
			 M42.8,57.9c0.9,0,1.7-0.8,1.7-1.7c0-0.9-0.8-1.7-1.7-1.7c-0.9,0-1.7,0.8-1.7,1.7C41.1,57.1,41.9,57.9,42.8,57.9"/>
		<path class="st0" d="M48.7,54.5h-1.1c-0.1,0-0.1-0.1-0.1-0.1V54c0-0.1,0.1-0.1,0.1-0.1h2.8c0.1,0,0.1,0.1,0.1,0.1v0.4
			c0,0.1-0.1,0.1-0.1,0.1h-1.1v3.9c0,0.1-0.1,0.1-0.1,0.1h-0.4c-0.1,0-0.1-0.1-0.1-0.1V54.5z"/>
		<path class="st0" d="M53.1,54c0-0.1,0.1-0.1,0.1-0.1h2.6c0.1,0,0.1,0.1,0.1,0.1v0.4c0,0.1-0.1,0.1-0.1,0.1h-2.1v1.3h1.8
			c0.1,0,0.1,0.1,0.1,0.1v0.4c0,0.1-0.1,0.1-0.1,0.1h-1.8v1.4h2.1c0.1,0,0.1,0.1,0.1,0.1v0.4c0,0.1-0.1,0.1-0.1,0.1h-2.6
			c-0.1,0-0.1-0.1-0.1-0.1V54z"/>
		<path class="st0" d="M58.8,54c0-0.1,0.1-0.1,0.1-0.1h0.4c0.1,0,0.1,0.1,0.1,0.1v3.9h1.8c0.1,0,0.1,0.1,0.1,0.1v0.4
			c0,0.1-0.1,0.1-0.1,0.1h-2.3c-0.1,0-0.1-0.1-0.1-0.1V54z"/>
		<path class="st0" d="M63.6,57.8c0.1-0.1,0.1-0.2,0.2-0.3c0.1-0.1,0.2-0.1,0.2-0.1c0,0,0.5,0.5,1.1,0.5c0.5,0,0.7-0.3,0.7-0.6
			c0-0.4-0.3-0.6-1-0.9c-0.7-0.3-1.2-0.6-1.2-1.4c0-0.5,0.4-1.2,1.4-1.2c0.7,0,1.2,0.3,1.2,0.4c0.1,0,0.1,0.1,0,0.2
			c-0.1,0.1-0.1,0.2-0.2,0.3c-0.1,0.1-0.1,0.1-0.2,0.1c0,0-0.5-0.3-0.9-0.3c-0.6,0-0.7,0.3-0.7,0.6c0,0.4,0.3,0.6,0.8,0.8
			c0.8,0.3,1.4,0.7,1.4,1.5c0,0.7-0.6,1.2-1.5,1.2c-0.8,0-1.3-0.4-1.4-0.5C63.6,58,63.6,58,63.6,57.8"/>
	</g>
</g>
</svg>
