<?xml version="1.0" encoding="utf-8"?>
<!-- Generator: Adobe Illustrator 26.0.3, SVG Export Plug-In . SVG Version: 6.00 Build 0)  -->
<svg version="1.1" id="Capa_1" xmlns="http://www.w3.org/2000/svg" xmlns:xlink="http://www.w3.org/1999/xlink" x="0px" y="0px"
	 viewBox="0 0 100 70" style="enable-background:new 0 0 100 70;" xml:space="preserve">
<style type="text/css">
	.st0{fill:url(#SVGID_1_);}
	.st1{fill:url(#SVGID_00000057842964907824935720000002127450354317039531_);}
	.st2{fill:url(#SVGID_00000091011289837303823240000005501530649457938821_);}
	.st3{fill:url(#SVGID_00000135667204603034162830000015991542832494104502_);}
	.st4{fill:url(#SVGID_00000138562952789379910160000010266580627766838946_);}
	.st5{fill:url(#SVGID_00000064342087584113496970000018239387019251320507_);}
	.st6{fill:url(#SVGID_00000181769369985184738770000010823214667738150031_);}
	.st7{fill:url(#SVGID_00000029723791078442206860000001155051936715355789_);}
	.st8{fill:url(#SVGID_00000021802630293052453430000012056566633366962876_);}
	.st9{fill:url(#SVGID_00000044164617886544689650000014556325115580222399_);}
	.st10{fill:url(#SVGID_00000165918533770564876110000010036201957467808423_);}
	.st11{fill:url(#SVGID_00000001664793869819031950000018280177730646138011_);}
	.st12{fill:url(#SVGID_00000167398748940798169980000004820638956247750580_);}
	.st13{fill:#FFFFFF;}
	.st14{fill-rule:evenodd;clip-rule:evenodd;fill:url(#SVGID_00000157299383910065082000000009810516295828774032_);}
	.st15{fill-rule:evenodd;clip-rule:evenodd;fill:#584296;}
	.st16{fill-rule:evenodd;clip-rule:evenodd;fill:#5C328E;}
	.st17{fill:#231F20;}
	.st18{fill:#808184;}
</style>
<g>
	<g>
		<linearGradient id="SVGID_1_" gradientUnits="userSpaceOnUse" x1="31.2706" y1="29.6106" x2="33.7179" y2="30.5013">
			<stop  offset="0" style="stop-color:#BBBDBF"/>
			<stop  offset="0.3436" style="stop-color:#A6A8AB"/>
			<stop  offset="0.5706" style="stop-color:#808184"/>
			<stop  offset="1" style="stop-color:#58595B"/>
		</linearGradient>
		<path class="st0" d="M31.2,31.6c-0.1,0-0.1,0-0.2-0.1l0,0c-0.1,0-0.2-0.1-0.2-0.2c0,0,0,0,0-0.1c0,0,0-0.1,0-0.2
			c0-0.1,0-0.2,0.1-0.2c0.3-0.3,0.6-0.5,0.8-0.6c0.7-0.6,1.1-0.9,2.2-1.6c0.1,0,0.2-0.1,0.2,0c0.1,0,0.1,0.1,0.2,0.1
			c0.1,0.3,0,0.5-0.1,0.6c0,0,0,0.1,0,0.1c0,0.1-0.1,0.1-0.1,0.1l-2.3,1.6c0,0,0,0,0,0c0,0.1-0.1,0.2-0.2,0.3
			C31.3,31.6,31.3,31.6,31.2,31.6z"/>
		
			<linearGradient id="SVGID_00000092440198924999340780000004558438151997502119_" gradientUnits="userSpaceOnUse" x1="31.4045" y1="27.4784" x2="33.2617" y2="27.4784">
			<stop  offset="0" style="stop-color:#BBBDBF"/>
			<stop  offset="0.3436" style="stop-color:#A6A8AB"/>
			<stop  offset="0.5706" style="stop-color:#808184"/>
			<stop  offset="1" style="stop-color:#58595B"/>
		</linearGradient>
		<path style="fill:url(#SVGID_00000092440198924999340780000004558438151997502119_);" d="M31.9,28c-0.1,0-0.2,0-0.3,0
			c-0.1,0-0.1-0.1-0.2-0.2c0-0.1,0-0.2,0-0.2c0.2-0.3,0.6-0.4,0.9-0.5c0.1,0,0.2,0,0.3-0.1c0.1,0,0.2,0,0.3,0.1c0,0,0,0,0,0
			c0.1,0,0.2,0.1,0.3,0.3c0,0.1,0,0.2,0,0.2c0,0.1-0.1,0.1-0.2,0.1c-0.1,0-0.3,0.1-0.4,0.1C32.4,27.9,32.1,28,31.9,28z"/>
		
			<linearGradient id="SVGID_00000093861981924173831330000007096155642259047571_" gradientUnits="userSpaceOnUse" x1="34.3855" y1="31.1745" x2="35.6841" y2="31.1745">
			<stop  offset="0" style="stop-color:#BBBDBF"/>
			<stop  offset="0.3436" style="stop-color:#A6A8AB"/>
			<stop  offset="0.5706" style="stop-color:#808184"/>
			<stop  offset="1" style="stop-color:#58595B"/>
		</linearGradient>
		<path style="fill:url(#SVGID_00000093861981924173831330000007096155642259047571_);" d="M34.8,32.1c-0.1,0-0.1,0-0.2,0
			c-0.5-0.3-0.3-0.8-0.1-1.1c0.1-0.1,0.1-0.2,0.1-0.3c0-0.1,0-0.1,0.1-0.1c0.1-0.1,0.2-0.1,0.3-0.2l0,0c0.1,0,0.2,0,0.2,0l0,0
			c0.1,0.1,0.3,0.2,0.3,0.4c0,0.1,0,0.2-0.1,0.3l-0.5,0.9C35.1,32,35,32,34.8,32.1C34.9,32.1,34.9,32.1,34.8,32.1z"/>
		
			<linearGradient id="SVGID_00000119831413883510396850000009904026176591019711_" gradientUnits="userSpaceOnUse" x1="29.1349" y1="20.1067" x2="33.2531" y2="21.6056">
			<stop  offset="0" style="stop-color:#BBBDBF"/>
			<stop  offset="0.3436" style="stop-color:#A6A8AB"/>
			<stop  offset="0.5706" style="stop-color:#808184"/>
			<stop  offset="1" style="stop-color:#58595B"/>
		</linearGradient>
		<path style="fill:url(#SVGID_00000119831413883510396850000009904026176591019711_);" d="M32.9,22C32.9,22,32.9,22,32.9,22
			l-0.4-0.1c0,0,0,0-0.1,0l-3.1-1.4c-0.1,0-0.2-0.2-0.2-0.3l0-0.2c0-0.1,0.1-0.2,0.1-0.2c0.1,0,0.2-0.1,0.3,0l3.5,1.5
			c0.1,0,0.2,0.2,0.2,0.3l0,0.2c0,0.1,0,0.2-0.1,0.2C33,21.9,33,22,32.9,22z"/>
		
			<linearGradient id="SVGID_00000005971130763001208230000014995423592411829161_" gradientUnits="userSpaceOnUse" x1="30.9011" y1="23.3846" x2="33.0101" y2="23.3846">
			<stop  offset="0" style="stop-color:#BBBDBF"/>
			<stop  offset="0.3436" style="stop-color:#A6A8AB"/>
			<stop  offset="0.5706" style="stop-color:#808184"/>
			<stop  offset="1" style="stop-color:#58595B"/>
		</linearGradient>
		<path style="fill:url(#SVGID_00000005971130763001208230000014995423592411829161_);" d="M32.7,23.9
			C32.7,23.9,32.7,23.9,32.7,23.9c-0.6,0-1.1-0.1-1.6-0.3c-0.1,0-0.2-0.1-0.2-0.2c-0.1-0.3,0.1-0.5,0.5-0.6c0,0,0.1,0,0.1,0
			c0.2,0,0.3,0.1,0.5,0.1c0.3,0,0.5,0,0.8,0.1c0.1,0.1,0.2,0.2,0.2,0.3l0,0.3C33,23.8,32.8,23.9,32.7,23.9z"/>
		
			<linearGradient id="SVGID_00000103987222963171075110000002164604257298932352_" gradientUnits="userSpaceOnUse" x1="32.8866" y1="20.0763" x2="34.3042" y2="20.0763">
			<stop  offset="0" style="stop-color:#BBBDBF"/>
			<stop  offset="0.3436" style="stop-color:#A6A8AB"/>
			<stop  offset="0.5706" style="stop-color:#808184"/>
			<stop  offset="1" style="stop-color:#58595B"/>
		</linearGradient>
		<path style="fill:url(#SVGID_00000103987222963171075110000002164604257298932352_);" d="M33.9,20.7c0,0-0.1,0-0.1,0
			c-0.3-0.2-0.6-0.5-0.8-0.8c-0.1-0.1-0.1-0.2-0.1-0.3c0-0.1,0.1-0.2,0.2-0.2c0.1,0,0.1,0,0.2,0c0.3,0,0.5,0.2,0.6,0.4
			c0.1,0.1,0.2,0.2,0.2,0.2c0.1,0,0.2,0.2,0.2,0.3c0,0.2-0.1,0.3-0.1,0.3c0,0,0,0,0,0C34.1,20.7,34,20.7,33.9,20.7z"/>
		
			<linearGradient id="SVGID_00000149346822577713017100000005352843277235074727_" gradientUnits="userSpaceOnUse" x1="28.5627" y1="25.4603" x2="33.075" y2="25.4603">
			<stop  offset="0" style="stop-color:#BBBDBF"/>
			<stop  offset="0.3436" style="stop-color:#A6A8AB"/>
			<stop  offset="0.5706" style="stop-color:#808184"/>
			<stop  offset="1" style="stop-color:#58595B"/>
		</linearGradient>
		<path style="fill:url(#SVGID_00000149346822577713017100000005352843277235074727_);" d="M28.9,26.1c-0.1,0-0.1,0-0.2-0.1
			c-0.1-0.1-0.2-0.2-0.2-0.3c0-0.1,0-0.2,0-0.2c0-0.1,0.1-0.1,0.2-0.1c1.2-0.1,1.6-0.2,1.9-0.3c0.4-0.1,0.7-0.2,2.1-0.2
			c0.2,0,0.3,0.1,0.3,0.3l0,0.2c0,0.2-0.1,0.3-0.2,0.3L28.9,26.1C28.9,26.1,28.9,26.1,28.9,26.1z"/>
		
			<linearGradient id="SVGID_00000152258093469569516920000011987458003190219666_" gradientUnits="userSpaceOnUse" x1="38.5958" y1="13.3513" x2="37.887" y2="17.3712">
			<stop  offset="0" style="stop-color:#BBBDBF"/>
			<stop  offset="0.3436" style="stop-color:#A6A8AB"/>
			<stop  offset="0.5706" style="stop-color:#808184"/>
			<stop  offset="1" style="stop-color:#58595B"/>
		</linearGradient>
		<path style="fill:url(#SVGID_00000152258093469569516920000011987458003190219666_);" d="M38.6,17.5c-0.1,0-0.2-0.1-0.3-0.2
			c-0.4-1.3-0.5-1.6-0.5-2c-0.1-0.3-0.1-0.7-0.4-1.8c0-0.1,0-0.2,0-0.2c0-0.1,0.1-0.1,0.2-0.1l0,0c0,0,0,0,0.1,0
			c0.1,0,0.2,0,0.3,0.1c0.1,0,0.1,0.1,0.1,0.2l1,3.6c0,0.1,0,0.2,0,0.2c0,0.1-0.1,0.1-0.2,0.1L38.6,17.5
			C38.7,17.5,38.6,17.5,38.6,17.5z"/>
		
			<linearGradient id="SVGID_00000119088506647741108260000009560465677569501087_" gradientUnits="userSpaceOnUse" x1="32.1467" y1="17.3602" x2="35.7762" y2="18.0002">
			<stop  offset="0" style="stop-color:#BBBDBF"/>
			<stop  offset="0.3436" style="stop-color:#A6A8AB"/>
			<stop  offset="0.5706" style="stop-color:#808184"/>
			<stop  offset="1" style="stop-color:#58595B"/>
		</linearGradient>
		<path style="fill:url(#SVGID_00000119088506647741108260000009560465677569501087_);" d="M35.2,19.4c-0.1,0-0.2,0-0.2-0.1
			l-2.5-2.8c-0.1-0.1-0.1-0.2-0.1-0.2c0-0.1,0.1-0.2,0.2-0.2l0.2-0.1c0.1,0,0.2,0,0.3,0.1l2.3,2.5c0,0,0,0,0,0l0.2,0.3
			c0,0.1,0,0.2,0,0.2c0,0.1-0.1,0.1-0.2,0.2l-0.1,0.1C35.2,19.4,35.2,19.4,35.2,19.4z"/>
		
			<linearGradient id="SVGID_00000174562039608527807110000016257121451573889195_" gradientUnits="userSpaceOnUse" x1="43.7182" y1="13.758" x2="43.0188" y2="17.7242">
			<stop  offset="0" style="stop-color:#BBBDBF"/>
			<stop  offset="0.3436" style="stop-color:#A6A8AB"/>
			<stop  offset="0.5706" style="stop-color:#808184"/>
			<stop  offset="1" style="stop-color:#58595B"/>
		</linearGradient>
		<path style="fill:url(#SVGID_00000174562039608527807110000016257121451573889195_);" d="M42.7,17.7L42.7,17.7
			C42.7,17.7,42.7,17.7,42.7,17.7c-0.1,0-0.2-0.1-0.3-0.1c0-0.1-0.1-0.2,0-0.2c0.2-1,0.4-1.5,0.6-2c0.1-0.3,0.3-0.7,0.5-1.3
			c0-0.1,0.1-0.1,0.2-0.2c0,0,0.1,0,0.2,0c0,0,0,0,0,0c0,0,0.2,0,0.2,0.1l0,0c0.1,0.1,0.2,0.2,0.1,0.4c0,0.1-0.1,0.2-0.2,0.3
			c0,0,0,0,0,0l-0.7,2.5c0,0.1,0,0.1-0.1,0.1c0,0,0,0-0.1,0.1C43.1,17.5,43,17.7,42.7,17.7z"/>
		
			<linearGradient id="SVGID_00000131347161659595346430000001568146302992002721_" gradientUnits="userSpaceOnUse" x1="35.5732" y1="17.2128" x2="37.218" y2="17.2128">
			<stop  offset="0" style="stop-color:#BBBDBF"/>
			<stop  offset="0.3436" style="stop-color:#A6A8AB"/>
			<stop  offset="0.5706" style="stop-color:#808184"/>
			<stop  offset="1" style="stop-color:#58595B"/>
		</linearGradient>
		<path style="fill:url(#SVGID_00000131347161659595346430000001568146302992002721_);" d="M36.7,18.2c-0.1,0-0.1,0-0.2-0.1
			c-0.2-0.2-0.4-0.4-0.5-0.6c-0.1-0.2-0.2-0.3-0.3-0.4c0,0-0.1-0.1-0.1-0.1c-0.1-0.3,0-0.6,0.3-0.7c0.1,0,0.2,0,0.3,0.1
			c0.4,0.3,0.7,0.8,1,1.3c0.1,0.1,0,0.3-0.1,0.4l-0.3,0.2C36.8,18.2,36.7,18.2,36.7,18.2z"/>
		
			<linearGradient id="SVGID_00000182508674261792166990000013507831600278792582_" gradientUnits="userSpaceOnUse" x1="40.1776" y1="16.2393" x2="41.0699" y2="16.2393">
			<stop  offset="0" style="stop-color:#BBBDBF"/>
			<stop  offset="0.3436" style="stop-color:#A6A8AB"/>
			<stop  offset="0.5706" style="stop-color:#808184"/>
			<stop  offset="1" style="stop-color:#58595B"/>
		</linearGradient>
		<path style="fill:url(#SVGID_00000182508674261792166990000013507831600278792582_);" d="M40.8,17.2
			C40.8,17.2,40.8,17.2,40.8,17.2c-0.2,0-0.3-0.1-0.3-0.2c0,0,0,0,0,0c-0.1,0-0.2-0.2-0.2-0.3c0-0.1,0-0.2,0-0.3
			c0-0.3-0.1-0.7,0.2-1c0.1-0.1,0.1-0.1,0.2-0.1h0c0.1,0,0.2,0,0.2,0.1c0.2,0.3,0.2,0.7,0.2,1c0,0.2,0,0.3,0,0.4
			c0,0.1,0,0.2-0.1,0.2C40.9,17.1,40.9,17.2,40.8,17.2z"/>
		
			<linearGradient id="SVGID_00000078729318812309568510000005081362372334454423_" gradientUnits="userSpaceOnUse" x1="33.8404" y1="22.467" x2="42.5386" y2="25.6329">
			<stop  offset="0" style="stop-color:#BBBDBF"/>
			<stop  offset="0.4444" style="stop-color:#828386"/>
			<stop  offset="0.4601" style="stop-color:#808184"/>
			<stop  offset="0.8712" style="stop-color:#58595B"/>
		</linearGradient>
		<path style="fill:url(#SVGID_00000078729318812309568510000005081362372334454423_);" d="M38.7,31.7l0.9-5l3.1-1.7l-0.2-3.3l1-2.9
			l0.4-0.1c-1.9-1.1-4.2-1.3-6.4-0.3c-3.6,1.6-5.3,5.8-3.7,9.4c1,2.2,3,3.7,5.2,4.2L38.7,31.7z"/>
	</g>
	<path class="st13" d="M44.5,30.4"/>
	
		<linearGradient id="SVGID_00000172411251349874420180000011757250264862577556_" gradientUnits="userSpaceOnUse" x1="25" y1="28.5" x2="75" y2="28.5">
		<stop  offset="0" style="stop-color:#BBBDBF"/>
		<stop  offset="0.3436" style="stop-color:#A6A8AB"/>
		<stop  offset="0.5706" style="stop-color:#808184"/>
		<stop  offset="1" style="stop-color:#58595B"/>
	</linearGradient>
	<path style="fill-rule:evenodd;clip-rule:evenodd;fill:url(#SVGID_00000172411251349874420180000011757250264862577556_);" d="
		M65.3,39C65.3,39,65.4,39,65.3,39c-0.3-4.9-1-18.1-1-18.1s1.5-0.7,1.5-2.8c0-0.1,0-0.1,0-0.2c0-0.1,0-0.1,0-0.2
		c0-0.1-0.1-0.1-0.1-0.2c0-0.1,0-0.2-0.1-0.3c0,0-0.1-0.1-0.1-0.1c0-0.1,0-0.1-0.1-0.2c0-0.1-0.1-0.1-0.2-0.1c0,0,0-0.2-0.1-0.2
		c0-0.1-0.2,0-0.2-0.1c-0.1-0.1-0.1-0.2-0.1-0.3c0,0-0.1,0-0.2,0c0,0,0-0.1-0.1-0.2c0,0-0.1,0-0.1,0c0,0,0-0.1,0-0.1
		c0,0-0.1-0.1-0.1-0.1c0,0-0.1,0-0.2,0c0,0,0-0.1-0.1-0.2c-0.1-0.1-0.2,0-0.3-0.1c0,0-0.1-0.1-0.1-0.2c-0.1-0.1-0.3,0-0.4-0.1
		c-0.1,0-0.1-0.2-0.2-0.2c-0.1,0-0.2,0-0.3,0c-0.1,0-0.1-0.2-0.2-0.2c-0.1,0-0.2,0-0.3,0c-0.1,0-0.1-0.2-0.2-0.2
		c-0.1,0-0.2,0.1-0.3,0c-0.1,0-0.2-0.2-0.3-0.2c-0.1,0-0.3,0.1-0.4,0.1c-0.1,0-0.1-0.2-0.3-0.2c-0.1,0-0.3,0.2-0.4,0.1
		c-0.1,0-0.2-0.3-0.3-0.3c-0.1,0-0.2,0.2-0.3,0.2c-0.1,0-0.2-0.3-0.3-0.3c-0.1,0-0.3,0.2-0.4,0.2c-0.1,0-0.1-0.2-0.2-0.2
		c-0.1,0-0.3,0.2-0.4,0.2c-0.1,0-0.2-0.3-0.3-0.3c-0.1,0-0.3,0.2-0.4,0.2c-0.1,0-0.2-0.2-0.3-0.3c-0.1,0-0.3,0.2-0.4,0.2
		c-0.1,0-0.2-0.2-0.4-0.2c-0.1,0-0.2,0.3-0.4,0.3c-0.1,0-0.2-0.2-0.3-0.2c-0.1,0-0.2,0.2-0.3,0.2c-0.1,0-0.1-0.2-0.2-0.2
		c0,0-0.1,0.2-0.2,0.1c-0.1,0-0.2-0.2-0.2-0.1c-0.1,0-0.1,0.1-0.2,0.2c-0.1,0-0.2-0.1-0.2-0.1c-0.1,0-0.1,0.2-0.2,0.2
		c-0.1,0-0.2-0.1-0.3-0.1c-0.1,0-0.1,0.2-0.2,0.2c-0.1,0-0.2-0.1-0.4-0.1c-0.1,0-0.1,0.2-0.2,0.2c-0.1,0-0.3-0.1-0.4-0.1
		c-0.1,0-0.1,0.2-0.2,0.2c-0.1,0-0.3-0.1-0.4-0.1c-0.1,0-0.2,0.3-0.3,0.3c-0.2,0-0.4-0.2-0.5-0.1c-0.1,0-0.2,0.2-0.3,0.3
		c-0.1,0-0.2-0.1-0.4-0.1c-0.1,0-0.2,0.3-0.3,0.4c-0.1,0-0.3-0.2-0.4-0.2c-0.1,0-0.2,0.3-0.3,0.4c-0.1,0-0.3-0.2-0.4-0.2
		c-0.1,0-0.1,0.3-0.3,0.4c-0.1,0-0.3-0.2-0.5-0.1c-0.1,0-0.2,0.4-0.3,0.4c-0.1,0-0.3-0.2-0.5-0.1c-0.1,0-0.1,0.4-0.2,0.4
		c-0.1,0-0.3-0.2-0.4-0.2c-0.1,0-0.1,0.3-0.2,0.4c-0.1,0-0.3-0.1-0.4-0.1c-0.1,0.1-0.1,0.3-0.2,0.4c-0.1,0-0.3-0.1-0.4-0.1
		c-0.1,0,0,0.3-0.1,0.4c-0.1,0-0.3-0.1-0.4-0.1c-0.1,0,0,0.3-0.1,0.3c-0.1,0-0.3-0.1-0.4,0c-0.1,0-0.1,0.2-0.1,0.3
		c-0.1,0-0.2,0-0.3,0c-0.1,0.1-0.1,0.2-0.2,0.2c-0.1,0-0.2,0-0.3,0.1c-0.1,0.1-0.1,0.2-0.1,0.3c-0.1,0.1-0.2,0-0.3,0.1
		c-0.1,0.1-0.1,0.2-0.1,0.2c-0.1,0.1-0.2,0-0.3,0.1c-0.1,0,0,0.2-0.1,0.2c-0.1,0-0.2,0-0.2,0.1c-0.1,0.1-0.1,0.2-0.1,0.2
		c0,0-0.1,0-0.2,0.1c0,0,0,0.1-0.1,0.2c0,0-0.1,0-0.2,0.1c-0.1,0.1-0.1,0.2-0.1,0.3c0,0.1-0.1,0.1-0.2,0.1c-0.1,0.1-0.1,0.3-0.2,0.4
		c0,0.1-0.1,0.1-0.2,0.2c0,0.1,0,0.2-0.1,0.2c0,0.1-0.1,0.1-0.1,0.2c0,0.1,0,0.2-0.1,0.3c0,0.1-0.1,0.1-0.1,0.2
		c-0.3,1.1-0.1,2.1,1,3.1c0,0.2,0,0.7-0.1,1.3c-2.1,0.9-4.3,1.9-4.3,1.9l0,0.3l0.8-0.1l-0.2,4.8l-3,0.4l-3.6,1l0.1,0.5l0.2,0l0,1.4
		l-1.4,0.1L29.4,36l0,0.3l0.2,0.1l-0.1,2.5C28.8,39,27.2,38.8,25,38c1.4,1.2,6.4,2.9,13.9,2.5C34.5,41.3,30,42,26.1,42
		c2.5,0.9,5.5,2.3,17.4,0.1c9.8-2.7,23.3-1.7,31.5,1C73.9,42,70.7,40.1,65.3,39z M31.2,38.4l-0.7,0.1c0,0,0-2,0.4-2
		C31.2,36.4,31.2,38.4,31.2,38.4z M35.3,38.4l-1.1,0c0,0-0.1-4.1,0.5-4.1C35.3,34.2,35.3,38.4,35.3,38.4z M40.4,35.6l-0.8,0.1
		l0.1-1.9l0.8,0.1L40.4,35.6z M40.6,31.3l-0.8,0.2l0.1-2l0.8-0.1L40.6,31.3z M41.7,35.7l-0.9-0.2l0.1-1.7l0.9-0.2L41.7,35.7z
		 M41.8,31.3l-0.9,0.1l0.1-2l0.9-0.4L41.8,31.3z M43.8,23.8c-0.2,0.1-0.4,0.3-0.6,0.4l0.1-2.4c0,0,0.3-0.9,0.6-1.6
		C43.9,20.5,43.8,23,43.8,23.8z M45,19.6c0,0,1.5-1.3,3.2-2l0.1,4c-1.3,0.4-2.4,0.9-3.4,1.5C44.9,22,45,19.6,45,19.6z M48.7,34
		l0,2.3l-3.7,0.1c0,0,0-1.7,0-2c0-0.3-0.1-1.9,1.7-2C48.8,32.3,48.7,34,48.7,34z M48.7,29l-3.6,0.6c0,0,0-0.6,0-1.3
		c0.1-1.1,0.3-2.4,1.8-2.5c1.9-0.1,1.8,1.1,1.8,1.6C48.8,27.8,48.7,29,48.7,29z M62.4,27c0,0.5,0,1.3,0,1.3s-3.1-0.1-3.1-0.1
		c0-0.4,0.1-3.3,0.1-3.3s0.1-0.8,1.7-0.6C62.7,24.6,62.4,26.5,62.4,27z M55.7,26.8v1.5l-3.6,0.2c0,0,0.1-1.3,0.1-1.6
		c0-0.3-0.1-2,1.4-2.1C55.9,24.8,55.7,26.8,55.7,26.8z M49.3,17.1c2.6-0.8,3.9-0.8,3.9-0.8l0.1,4.2c0,0-0.1,0-0.1,0
		c-1.4,0.2-2.7,0.4-3.9,0.8C49.3,20,49.3,17.4,49.3,17.1z M55.7,35.9L51.8,36c0,0,0-1.7,0-1.8c0-0.1-0.1-2.2,1.8-2.2
		c2.1,0,2.1,1.9,2.1,1.9L55.7,35.9z M55.4,20.3c0-1.1,0-4.1,0-4.5c2.7-0.2,5.4,0.8,5.4,0.8l0.1,4.1C59.2,20.4,57.3,20.2,55.4,20.3z
		 M62.7,35.8c-0.5,0-3.2,0.3-3.7,0.1c0.1-1.5-0.1-3.9,1.8-3.9C62.8,32.1,62.8,34.3,62.7,35.8z M63.2,19.5c0,0.5,0,1.5,0,1.9
		c-0.3-0.1-0.6-0.2-0.8-0.3l-0.1-4c0,0,1,1,1.1,1.7C63.2,19,63.2,18.8,63.2,19.5z"/>
	<path class="st15" d="M65.3,39C65.3,39,65.4,39,65.3,39c-7.8-1.7-16.9-0.6-26.4,1.5C34.5,41.3,30,42,26.1,42
		c2.5,0.9,5.5,2.3,17.4,0.1c9.8-2.7,23.3-1.7,31.5,1C73.9,42,70.7,40.1,65.3,39z"/>
	<path class="st16" d="M65.4,39c-15.6-4.7-30.1,2.5-40.4-1c1.4,1.2,6.4,2.9,13.9,2.5C34.5,41.3,30,42,26.1,42
		c2.5,0.9,5.5,2.3,17.4,0.1c9.8-2.7,23.3-1.7,31.5,1C73.9,42,65.4,39,65.4,39z"/>
	<g>
		<g>
			<g>
				<path class="st17" d="M53.3,48.7c-0.9,0.7-2,1.1-3.3,1.1c-0.4,0-0.8,0-1.3-0.1c-0.2,0.3-0.7,1-1.3,2.1c-0.6,1-1.2,1.8-1.7,2.4
					c-0.6,0.7-1.3,1.3-1.9,1.6c-0.8,0.4-1.7,0.6-2.6,0.6c-0.3,0-0.6,0-0.8-0.1c-0.4-0.1-0.7-0.2-0.7-0.4c0-0.2,0.1-0.4,0.5-0.5
					c0.2-0.1,0.5-0.1,0.7-0.1c0.4,0,0.8,0.1,1,0.4c0.1,0.1,0.2,0.2,0.3,0.2c0.2,0,0.3-0.1,0.6-0.2c0.4-0.2,0.8-0.7,1.2-1.3
					c0.2-0.3,0.6-0.9,1-1.6c0.8-1.4,1.5-2.4,2.2-3.2c-0.1,0-0.3,0-0.6,0c-0.8-0.1-1.4-0.1-1.6-0.1c-0.8,0-1.3,0.3-1.6,0.9
					c-0.1,0.2-0.1,0.4-0.1,0.6c0,0.3,0.1,0.5,0.2,0.7c0.2,0.3,0.4,0.4,0.8,0.4c0.4,0,0.8-0.1,1.2-0.4c0.1-0.1,0.2-0.1,0.2-0.1
					c0,0,0,0,0,0c0,0,0,0.1-0.1,0.2c-0.6,0.6-1.2,0.9-1.7,0.9c-0.5,0-0.9-0.1-1.2-0.4c-0.2-0.2-0.3-0.5-0.3-0.8
					c0-0.6,0.3-1.2,0.9-1.8c0.8-0.8,1.8-1.2,3.2-1.2c0.2,0,0.5,0,0.7,0c0.1,0,0.8,0.1,2,0.4c1.2,0.2,2,0.3,2.6,0.3
					c0.2,0,0.4,0,0.5,0c0.4-0.1,0.7-0.2,1-0.3c0.1,0,0.1,0,0.1,0C53.4,48.6,53.4,48.6,53.3,48.7z"/>
				<path class="st17" d="M52.6,53.3c-0.1,0.2-0.4,0.5-0.9,1.1c-0.4,0.4-0.7,0.8-1,1.1c-0.5,0.4-0.8,0.6-1,0.6
					c-0.2,0-0.4-0.1-0.5-0.3c-0.1-0.2-0.1-0.4-0.1-0.6c0-0.3,0.1-0.6,0.2-0.8c-0.1,0.1-0.2,0.2-0.3,0.2c-0.2,0.2-0.4,0.5-0.8,0.9
					c-0.4,0.5-0.8,0.7-1.1,0.6c-0.2,0-0.4-0.2-0.5-0.4c-0.1-0.2-0.2-0.4-0.2-0.7c0-0.5,0.2-1.1,0.7-1.7c0.4-0.6,0.9-1,1.4-1.2
					c0.3-0.2,0.6-0.2,0.8-0.2c0.3,0,0.5,0.1,0.8,0.2c0.3,0.1,0.5,0.3,0.7,0.5c0.1,0,0.2,0.1,0.4,0.1c0.1,0,0.2,0.1,0.3,0.1
					c0,0.1,0,0.1,0,0.2c0,0-0.2,0.2-0.5,0.7c-0.2,0.3-0.4,0.6-0.5,0.9c0,0.1,0,0.1,0,0.1c0,0,0,0,0,0c0.8-0.6,1.5-1.1,2-1.5
					c0.1-0.1,0.1-0.1,0.1-0.1c0,0,0,0,0,0C52.7,53.1,52.7,53.2,52.6,53.3z M50.1,52.6c0,0-0.1-0.1-0.2,0c-0.3,0-0.7,0.3-1.1,0.8
					c-0.4,0.4-0.7,0.8-0.8,1.1c0,0.1-0.1,0.2-0.1,0.2c0,0,0,0.1,0.1,0c0.1,0,0.4-0.2,0.8-0.5c0.3-0.3,0.6-0.5,0.8-0.6
					c0.4-0.3,0.6-0.6,0.6-0.8C50.1,52.6,50.1,52.6,50.1,52.6z"/>
				<path class="st17" d="M56.6,50.8c-0.1,0.5-0.5,1-1.1,1.6c-0.6,0.5-1.3,0.9-2.1,1.2c0,0.1-0.1,0.2-0.1,0.4
					c-0.1,0.2-0.1,0.4-0.1,0.6c0,0.2,0,0.2,0.1,0.2c0.1,0,0.2-0.1,0.4-0.3c0.7-0.7,1.5-1.4,2.3-2.3c0,0,0,0,0,0c0,0,0,0,0,0
					c0,0,0,0,0,0c-0.1,0.1-0.2,0.4-0.5,0.9c-0.3,0.5-0.5,0.8-0.6,1c-0.3,0.5-0.6,0.8-0.7,1c-0.3,0.4-0.6,0.7-0.8,0.8
					C53.3,56,53.1,56,52.9,56c-0.2,0-0.4,0-0.5-0.1c-0.4-0.2-0.6-0.7-0.6-1.3c0-0.4,0.1-0.8,0.3-1.3c0.2-0.7,0.6-1.3,1-2
					c0.5-0.8,1.1-1.3,1.6-1.5c0.2-0.1,0.3-0.1,0.5-0.1c0.4,0,0.7,0.1,1.1,0.3c0.2,0.1,0.3,0.3,0.3,0.5
					C56.6,50.6,56.6,50.7,56.6,50.8z M55.7,50.4c0-0.1,0-0.1,0-0.1c0,0-0.1,0-0.1,0c-0.3,0.1-0.6,0.4-0.9,0.8
					c-0.5,0.6-0.9,1.2-1,1.7c0,0,0,0.1,0,0.1c0,0,0,0,0.1,0c0.2-0.2,0.5-0.5,0.9-0.9c0.4-0.5,0.7-0.9,0.9-1.2
					C55.6,50.6,55.7,50.4,55.7,50.4z"/>
				<path class="st17" d="M61.2,53.3c-0.1,0.2-0.4,0.5-0.9,1.1c-0.4,0.4-0.7,0.8-1,1.1c-0.5,0.4-0.8,0.6-1,0.6
					c-0.2,0-0.4-0.1-0.5-0.3c-0.1-0.2-0.1-0.4-0.1-0.6c0-0.3,0.1-0.6,0.2-0.8c-0.1,0.1-0.2,0.2-0.3,0.2c-0.2,0.2-0.4,0.5-0.8,0.9
					c-0.4,0.5-0.8,0.7-1.1,0.6c-0.2,0-0.4-0.2-0.5-0.4C55.1,55.5,55,55.3,55,55c0-0.5,0.2-1.1,0.7-1.7c0.4-0.6,0.9-1,1.4-1.2
					c0.3-0.2,0.6-0.2,0.8-0.2c0.3,0,0.5,0.1,0.8,0.2c0.3,0.1,0.5,0.3,0.7,0.5c0.1,0,0.2,0.1,0.4,0.1c0.1,0,0.2,0.1,0.3,0.1
					c0,0.1,0,0.1,0,0.2c0,0-0.2,0.2-0.5,0.7c-0.2,0.3-0.4,0.6-0.5,0.9c0,0.1,0,0.1,0,0.1c0,0,0,0,0,0c0.8-0.6,1.5-1.1,2-1.5
					c0.1-0.1,0.1-0.1,0.1-0.1c0,0,0,0,0,0C61.3,53.1,61.2,53.2,61.2,53.3z M58.6,52.6c0,0-0.1-0.1-0.2,0c-0.3,0-0.7,0.3-1.1,0.8
					c-0.4,0.4-0.7,0.8-0.8,1.1c0,0.1-0.1,0.2-0.1,0.2c0,0,0,0.1,0.1,0c0.1,0,0.4-0.2,0.8-0.5c0.3-0.3,0.6-0.5,0.8-0.6
					c0.4-0.3,0.6-0.6,0.6-0.8C58.7,52.6,58.7,52.6,58.6,52.6z"/>
				<path class="st17" d="M64.3,52.6c-0.1,0.1-0.3,0.4-0.7,0.9c-0.4,0.5-0.9,1.2-1.5,1.9c-0.2,0.2-0.3,0.3-0.4,0.4
					C61.5,56,61.4,56,61.2,56c-0.1,0-0.3,0-0.4-0.1c-0.4-0.2-0.6-0.6-0.6-1c0-0.5,0.2-1,0.6-1.8c0.4-0.7,0.8-1.2,1.2-1.4
					c0.1-0.1,0.1-0.1,0.2-0.1c0.1,0,0.3,0,0.5,0c0.2,0,0.4,0,0.6,0.1c0.1,0,0.2,0.1,0.2,0.2c0,0,0,0.1-0.1,0.2
					c-0.2,0.2-0.5,0.6-0.9,1c-0.5,0.6-0.8,1.1-0.9,1.3c0,0,0,0,0,0c0,0,0,0,0.1,0c0.5-0.4,1.3-1,2.2-1.7
					C64.1,52.6,64.2,52.6,64.3,52.6C64.3,52.5,64.3,52.5,64.3,52.6C64.3,52.5,64.3,52.5,64.3,52.6z M64.6,49.8c0,0-0.1,0.1-0.1,0.1
					c-0.1,0-0.2,0-0.2,0c-0.2,0-0.3,0.1-0.5,0.2c0.2,0,0.3,0,0.5,0.1c0.2,0.1,0.3,0.2,0.3,0.3c0,0.1,0,0.1-0.1,0.2
					c-0.1,0.1-0.3,0.3-0.6,0.4c-0.3,0.1-0.6,0.2-0.9,0.2c-0.2,0-0.3,0-0.4-0.1c-0.1-0.1-0.2-0.2-0.2-0.3c0-0.1,0-0.2,0.1-0.3
					c-0.1,0-0.3,0-0.5,0.1c0,0-0.1,0-0.1,0c0,0,0,0,0,0c0,0,0.1-0.1,0.1-0.1c0.2-0.1,0.4-0.1,0.7-0.2c0.2-0.2,0.5-0.3,0.7-0.4
					c0.3-0.1,0.7-0.2,1-0.2C64.5,49.7,64.6,49.8,64.6,49.8z M63.5,50.6c0-0.1-0.1-0.1-0.1,0c-0.1,0.1-0.1,0.2-0.2,0.3c0,0,0,0,0,0.1
					c0,0,0,0,0.1,0c0.1,0,0.1-0.1,0.2-0.1C63.5,50.7,63.5,50.6,63.5,50.6z"/>
				<path class="st17" d="M69.5,53.3c-0.1,0.2-0.4,0.5-0.9,1.1c-0.4,0.4-0.7,0.8-1,1.1c-0.5,0.4-0.8,0.6-1,0.6
					c-0.2,0-0.4-0.1-0.5-0.3C66,55.5,66,55.3,66,55.1c0-0.3,0.1-0.6,0.2-0.8c-0.1,0.1-0.2,0.2-0.3,0.2c-0.2,0.2-0.4,0.5-0.8,0.9
					c-0.4,0.5-0.8,0.7-1.1,0.6c-0.2,0-0.4-0.2-0.5-0.4c-0.1-0.2-0.2-0.4-0.2-0.7c0-0.5,0.2-1.1,0.7-1.7c0.4-0.6,0.9-1,1.4-1.2
					c0.3-0.2,0.6-0.2,0.8-0.2c0.3,0,0.5,0.1,0.8,0.2c0.3,0.1,0.5,0.3,0.7,0.5c0.1,0,0.2,0.1,0.4,0.1c0.1,0,0.2,0.1,0.3,0.1
					c0,0.1,0,0.1,0,0.2c0,0-0.2,0.2-0.5,0.7c-0.2,0.3-0.4,0.6-0.5,0.9c0,0.1,0,0.1,0,0.1c0,0,0,0,0,0c0.8-0.6,1.5-1.1,2-1.5
					c0.1-0.1,0.1-0.1,0.1-0.1c0,0,0,0,0,0C69.6,53.1,69.6,53.2,69.5,53.3z M67,52.6c0,0-0.1-0.1-0.2,0c-0.3,0-0.7,0.3-1.1,0.8
					c-0.4,0.4-0.7,0.8-0.8,1.1c0,0.1-0.1,0.2-0.1,0.2c0,0,0,0.1,0.1,0c0.1,0,0.4-0.2,0.8-0.5c0.3-0.3,0.6-0.5,0.8-0.6
					c0.4-0.3,0.6-0.6,0.6-0.8C67.1,52.6,67.1,52.6,67,52.6z"/>
			</g>
		</g>
		<g>
			<path class="st17" d="M35.1,50.5c0,0.2-0.1,0.3-0.2,0.6c-0.2,0.4-0.4,0.7-0.6,0.8c-0.3,0.2-0.5,0.4-0.9,0.4
				c-0.3,0-0.5-0.1-0.6-0.2c-0.1-0.1-0.2-0.3-0.2-0.5c0-0.4,0.2-0.9,0.7-1.6c-0.1,0-0.2,0-0.4,0c-0.3,0.1-0.4,0.3-0.6,0.5
				c-0.1,0.2-0.2,0.5-0.2,0.8c0,0.4,0.3,0.9,0.6,1.4c0.2,0.3,0.4,0.6,0.5,0.7c0.2,0.3,0.2,0.6,0.3,0.8c0,0.5-0.3,1.1-0.9,1.6
				c-0.9,0.7-1.7,1-2.4,1c-0.4,0-0.8-0.1-1.1-0.3c-0.3-0.2-0.6-0.5-0.7-0.8c-0.2-0.3-0.2-0.6-0.2-0.9c0-0.5,0.2-1.1,0.7-1.6
				c0.4-0.4,0.8-0.8,1.4-1.1c0.1-0.1,0.2-0.1,0.3-0.1c0,0,0,0,0,0c0,0,0,0.1-0.1,0.1c-0.3,0.4-0.6,0.8-0.8,1.2
				c-0.2,0.4-0.3,0.9-0.3,1.3c0,0.3,0,0.6,0.1,0.8c0.2,0.5,0.6,0.7,1.1,0.7c0.2,0,0.3,0,0.5-0.1c0.6-0.2,0.9-0.7,0.9-1.4
				c0-0.5-0.2-1-0.5-1.6c-0.3-0.4-0.4-0.7-0.5-0.9c-0.2-0.4-0.2-0.7-0.2-1c0-0.5,0.2-1,0.6-1.3c0.4-0.4,1-0.6,1.8-0.6
				c0.1,0,0.2,0,0.4,0l0.2,0c0.1,0,0.1-0.1,0.2-0.1c0,0,0,0.1,0,0.1c0.1,0,0.3,0.1,0.4,0.1C34.8,50,35.1,50.2,35.1,50.5z M34,50.6
				c0-0.1,0-0.1,0-0.1c0-0.2-0.1-0.3-0.2-0.3l-0.1,0l0,0c-0.3,0.6-0.4,1-0.4,1.1c0,0.1,0.1,0.2,0.2,0.2c0.1,0,0.2-0.2,0.3-0.4
				C33.9,50.9,34,50.7,34,50.6z"/>
			<path class="st17" d="M39.8,53.3c-0.1,0.2-0.4,0.5-0.9,1.1c-0.4,0.4-0.7,0.8-1,1.1c-0.5,0.4-0.8,0.6-1,0.6
				c-0.2,0-0.4-0.1-0.5-0.3c-0.1-0.2-0.1-0.4-0.1-0.6c0-0.3,0.1-0.6,0.2-0.8c-0.1,0.1-0.2,0.2-0.3,0.2c-0.2,0.2-0.4,0.5-0.8,0.9
				c-0.4,0.5-0.8,0.7-1.1,0.6c-0.2,0-0.4-0.2-0.5-0.4c-0.1-0.2-0.2-0.4-0.2-0.7c0-0.5,0.2-1.1,0.7-1.7c0.4-0.6,0.9-1,1.4-1.2
				c0.3-0.2,0.6-0.2,0.8-0.2c0.3,0,0.5,0.1,0.8,0.2c0.3,0.1,0.5,0.3,0.7,0.5c0.1,0,0.2,0.1,0.4,0.1c0.1,0,0.2,0.1,0.3,0.1
				c0,0.1,0,0.1,0,0.2c0,0-0.2,0.2-0.5,0.7c-0.2,0.3-0.4,0.6-0.5,0.9c0,0.1,0,0.1,0,0.1c0,0,0,0,0,0c0.8-0.6,1.5-1.1,2-1.5
				c0.1-0.1,0.1-0.1,0.1-0.1c0,0,0,0,0,0C39.9,53.2,39.9,53.2,39.8,53.3z M37.3,52.6c0,0-0.1-0.1-0.2,0c-0.3,0-0.7,0.3-1.1,0.8
				c-0.4,0.4-0.7,0.8-0.8,1.1c0,0.1-0.1,0.2-0.1,0.2c0,0,0,0.1,0.1,0c0.1,0,0.4-0.2,0.8-0.5c0.3-0.3,0.6-0.5,0.8-0.6
				c0.4-0.3,0.6-0.6,0.6-0.8C37.3,52.7,37.3,52.6,37.3,52.6z"/>
		</g>
	</g>
	<g>
		<path class="st18" d="M40.4,44.2C40.4,44.2,40.4,44.2,40.4,44.2c0.1-0.1,0.1-0.1,0.1,0c0,0.1,0.4,1.1,0.6,1.5
			c0.1,0.2,0.2,0.2,0.2,0.3c0,0,0.1,0,0.1,0c0,0,0,0,0,0c0,0,0,0-0.1,0c0,0-0.2,0-0.4,0c0,0-0.1,0-0.1,0c0,0,0,0,0,0c0,0,0,0,0-0.1
			l-0.2-0.6c0,0,0,0,0,0h-0.6c0,0,0,0,0,0l-0.1,0.4c0,0.1,0,0.1,0,0.2c0,0,0,0.1,0.1,0.1h0c0,0,0,0,0,0c0,0,0,0,0,0
			c-0.1,0-0.2,0-0.2,0c0,0-0.2,0-0.3,0c0,0,0,0,0,0c0,0,0,0,0,0c0,0,0.1,0,0.1,0c0.1,0,0.2-0.1,0.2-0.2L40.4,44.2z M40.6,45.3
			C40.7,45.3,40.7,45.3,40.6,45.3l-0.2-0.7c0,0,0,0,0,0l-0.2,0.7c0,0,0,0,0,0H40.6z"/>
		<path class="st18" d="M42.9,45.4c0-0.2,0-0.2-0.1-0.2c0,0-0.1,0-0.1,0c0,0,0,0,0,0c0,0,0,0,0,0c0.1,0,0.3,0,0.3,0c0,0,0.2,0,0.2,0
			c0,0,0,0,0,0c0,0,0,0,0,0c0,0,0,0-0.1,0c-0.1,0-0.1,0-0.1,0.1c0,0.1,0,0.1,0,0.3v0.3c0,0.1,0,0.1,0,0.1c-0.2,0.1-0.4,0.1-0.5,0.1
			c-0.2,0-0.5,0-0.8-0.3c-0.2-0.1-0.3-0.4-0.3-0.7c0-0.4,0.2-0.7,0.4-0.8c0.2-0.1,0.5-0.2,0.7-0.2c0.2,0,0.3,0,0.4,0
			c0.1,0,0.1,0,0.2,0c0,0,0,0,0,0c0,0,0,0.1,0,0.3c0,0,0,0.1,0,0.1c0,0,0,0,0,0c0,0,0-0.1-0.1-0.2c-0.1-0.1-0.3-0.2-0.6-0.2
			c-0.2,0-0.3,0-0.5,0.2c-0.1,0.1-0.2,0.3-0.2,0.6c0,0.3,0.2,0.6,0.3,0.7c0.2,0.2,0.4,0.3,0.6,0.3c0.1,0,0.2,0,0.3,0
			c0,0,0.1,0,0.1-0.1V45.4z"/>
		<path class="st18" d="M43.9,44.9c0-0.4,0-0.4,0-0.5c0-0.1,0-0.1-0.1-0.1c0,0-0.1,0-0.1,0c0,0,0,0,0,0c0,0,0,0,0,0
			c0.1,0,0.3,0,0.3,0c0,0,0.2,0,0.3,0c0.2,0,0.3,0,0.5,0.1c0.1,0,0.2,0.2,0.2,0.3c0,0.2-0.1,0.4-0.3,0.6c0.2,0.3,0.4,0.5,0.5,0.6
			c0.1,0.1,0.2,0.2,0.3,0.2c0,0,0.1,0,0.1,0c0,0,0,0,0,0c0,0,0,0-0.1,0h-0.2c-0.1,0-0.2,0-0.3,0c-0.1-0.1-0.2-0.2-0.3-0.4
			c-0.1-0.1-0.2-0.3-0.3-0.4c0,0,0,0,0,0l-0.3,0c0,0,0,0,0,0v0.1c0,0.2,0,0.4,0,0.5c0,0.1,0,0.1,0.1,0.1c0,0,0.1,0,0.1,0
			c0,0,0,0,0,0c0,0,0,0,0,0c-0.1,0-0.3,0-0.3,0c0,0-0.2,0-0.2,0c0,0,0,0,0,0c0,0,0,0,0,0c0,0,0.1,0,0.1,0c0,0,0.1-0.1,0.1-0.1
			c0-0.1,0-0.3,0-0.5V44.9z M44.1,45.1C44.1,45.1,44.1,45.1,44.1,45.1c0.1,0.1,0.2,0.1,0.3,0.1c0.1,0,0.1,0,0.2,0
			c0.1-0.1,0.2-0.2,0.2-0.4c0-0.3-0.2-0.5-0.4-0.5c-0.1,0-0.2,0-0.2,0c0,0,0,0,0,0V45.1z"/>
		<path class="st18" d="M46.6,44.2c0.6,0,1,0.3,1,0.9c0,0.5-0.4,1-1,1c-0.7,0-1-0.5-1-1C45.6,44.7,45.9,44.2,46.6,44.2z M46.6,46
			c0.2,0,0.7-0.1,0.7-0.8c0-0.6-0.4-0.9-0.7-0.9c-0.4,0-0.7,0.3-0.7,0.8C45.9,45.6,46.2,46,46.6,46z"/>
		<path class="st18" d="M48.7,45.3c0,0.2,0,0.4,0,0.5c0,0.1,0,0.1,0.1,0.1c0,0,0.1,0,0.1,0c0,0,0,0,0,0c0,0,0,0,0,0
			c-0.1,0-0.3,0-0.3,0c0,0-0.2,0-0.3,0c0,0,0,0,0,0c0,0,0,0,0,0c0,0,0.1,0,0.1,0c0.1,0,0.1-0.1,0.1-0.1c0-0.1,0-0.3,0-0.5v-1l-0.4,0
			c-0.2,0-0.2,0-0.3,0.1c0,0,0,0.1,0,0.1c0,0,0,0,0,0c0,0,0,0,0,0c0,0,0.1-0.2,0.1-0.3c0,0,0,0,0,0c0,0,0,0,0.1,0c0.1,0,0.2,0,0.2,0
			h0.9c0.1,0,0.1,0,0.2,0c0,0,0.1,0,0.1,0c0,0,0,0,0,0c0,0.1,0,0.2,0,0.3c0,0,0,0,0,0c0,0,0,0,0,0l0,0c0-0.1-0.1-0.1-0.3-0.1l-0.3,0
			V45.3z"/>
		<path class="st18" d="M49.7,44.9c0-0.4,0-0.4,0-0.5c0-0.1,0-0.1-0.1-0.1c0,0-0.1,0-0.1,0c0,0,0,0,0,0c0,0,0,0,0,0
			c0.1,0,0.3,0,0.3,0c0,0,0.2,0,0.3,0c0,0,0,0,0,0c0,0,0,0,0,0c0,0,0,0-0.1,0c-0.1,0-0.1,0.1-0.1,0.1c0,0.1,0,0.1,0,0.5v0.3
			c0,0.4,0.1,0.5,0.2,0.6c0.1,0.1,0.2,0.1,0.4,0.1c0.2,0,0.3-0.1,0.4-0.2c0.1-0.1,0.1-0.3,0.1-0.6v-0.3c0-0.4,0-0.4,0-0.5
			c0-0.1,0-0.1-0.1-0.1c0,0-0.1,0-0.1,0c0,0,0,0,0,0c0,0,0,0,0,0c0.1,0,0.3,0,0.3,0c0,0,0.1,0,0.2,0c0,0,0,0,0,0c0,0,0,0,0,0
			c0,0,0,0-0.1,0c-0.1,0-0.1,0.1-0.1,0.1c0,0.1,0,0.1,0,0.5v0.3c0,0.3,0,0.6-0.2,0.7c-0.2,0.2-0.4,0.2-0.5,0.2c-0.1,0-0.3,0-0.5-0.2
			c-0.1-0.1-0.2-0.3-0.2-0.6V44.9z"/>
		<path class="st18" d="M51.9,44.9c0-0.4,0-0.4,0-0.5c0-0.1,0-0.1-0.1-0.1c0,0-0.1,0-0.1,0c0,0,0,0,0,0c0,0,0,0,0,0
			c0.1,0,0.3,0,0.3,0c0,0,0.2,0,0.3,0c0.2,0,0.3,0,0.5,0.1c0.1,0,0.2,0.2,0.2,0.3c0,0.2-0.1,0.4-0.3,0.6c0.2,0.3,0.4,0.5,0.5,0.6
			c0.1,0.1,0.2,0.2,0.3,0.2c0,0,0.1,0,0.1,0c0,0,0,0,0,0c0,0,0,0-0.1,0h-0.2c-0.1,0-0.2,0-0.3,0c-0.1-0.1-0.2-0.2-0.3-0.4
			c-0.1-0.1-0.2-0.3-0.3-0.4c0,0,0,0,0,0l-0.3,0c0,0,0,0,0,0v0.1c0,0.2,0,0.4,0,0.5c0,0.1,0,0.1,0.1,0.1c0,0,0.1,0,0.1,0
			c0,0,0,0,0,0c0,0,0,0,0,0c-0.1,0-0.3,0-0.3,0c0,0-0.2,0-0.2,0c0,0,0,0,0,0c0,0,0,0,0,0c0,0,0.1,0,0.1,0c0,0,0.1-0.1,0.1-0.1
			c0-0.1,0-0.3,0-0.5V44.9z M52.1,45.1C52.1,45.1,52.2,45.1,52.1,45.1c0.1,0.1,0.2,0.1,0.3,0.1c0.1,0,0.1,0,0.2,0
			c0.1-0.1,0.2-0.2,0.2-0.4c0-0.3-0.2-0.5-0.4-0.5c-0.1,0-0.2,0-0.2,0c0,0,0,0,0,0V45.1z"/>
		<path class="st18" d="M54.1,45.3c0,0.2,0,0.4,0,0.5c0,0.1,0,0.1,0.1,0.1c0,0,0.1,0,0.1,0c0,0,0,0,0,0c0,0,0,0,0,0
			c-0.1,0-0.3,0-0.3,0c0,0-0.2,0-0.2,0c0,0,0,0,0,0c0,0,0,0,0,0c0,0,0.1,0,0.1,0c0,0,0.1-0.1,0.1-0.1c0-0.1,0-0.3,0-0.5v-0.4
			c0-0.4,0-0.4,0-0.5c0-0.1,0-0.1-0.1-0.1c0,0-0.1,0-0.1,0c0,0,0,0,0,0c0,0,0,0,0,0c0.1,0,0.2,0,0.3,0c0,0,0.2,0,0.3,0c0,0,0,0,0,0
			c0,0,0,0,0,0c0,0,0,0-0.1,0c-0.1,0-0.1,0-0.1,0.1c0,0.1,0,0.1,0,0.5V45.3z"/>
		<path class="st18" d="M54.7,46C54.7,46,54.7,46,54.7,46c0-0.2,0-0.3,0-0.3c0,0,0,0,0,0c0,0,0,0,0,0c0,0,0,0.1,0,0.1
			c0,0.2,0.2,0.2,0.4,0.2c0.2,0,0.4-0.1,0.4-0.3c0-0.2-0.1-0.3-0.3-0.4l-0.1-0.1c-0.3-0.2-0.4-0.4-0.4-0.5c0-0.3,0.2-0.5,0.6-0.5
			c0.1,0,0.2,0,0.3,0c0,0,0.1,0,0.1,0c0,0,0,0,0,0c0,0,0,0.1,0,0.3c0,0,0,0.1,0,0.1c0,0,0,0,0,0c0,0,0-0.1,0-0.1
			c0,0-0.1-0.1-0.3-0.1c-0.2,0-0.3,0.1-0.3,0.3c0,0.2,0.1,0.2,0.3,0.4l0.1,0c0.3,0.2,0.4,0.4,0.4,0.6c0,0.1-0.1,0.3-0.2,0.4
			c-0.1,0.1-0.3,0.1-0.4,0.1C55,46.1,54.8,46,54.7,46z"/>
		<path class="st18" d="M58.3,45.7c0,0.1,0,0.2,0.1,0.3c0.1,0,0.1,0,0.2,0c0,0,0,0,0,0c0,0,0,0-0.1,0c-0.1,0-0.3,0-0.4,0
			c-0.1,0-0.1,0-0.1,0c0,0,0,0,0,0c0,0,0,0,0-0.1L58,44.7h0l-0.6,1.2C57.3,46,57.3,46,57.3,46c0,0,0,0-0.1-0.1
			c-0.1-0.1-0.2-0.4-0.3-0.6c-0.1-0.2-0.3-0.6-0.3-0.7h0l-0.1,1.1c0,0,0,0.1,0,0.1c0,0,0,0.1,0.1,0.1c0,0,0.1,0,0.1,0c0,0,0,0,0,0
			c0,0,0,0,0,0c-0.1,0-0.2,0-0.2,0c0,0-0.1,0-0.2,0c0,0,0,0,0,0c0,0,0,0,0,0c0,0,0,0,0.1,0c0.1,0,0.1-0.1,0.1-0.2l0.2-1.6
			c0,0,0,0,0,0c0,0,0,0,0.1,0l0.8,1.5l0.7-1.5c0,0,0,0,0,0c0,0,0,0,0,0.1L58.3,45.7z"/>
		<path class="st18" d="M59.8,44.2c0.6,0,1,0.3,1,0.9c0,0.5-0.4,1-1,1c-0.7,0-1-0.5-1-1C58.8,44.7,59.1,44.2,59.8,44.2z M59.8,46
			c0.2,0,0.7-0.1,0.7-0.8c0-0.6-0.4-0.9-0.7-0.9c-0.4,0-0.7,0.3-0.7,0.8C59,45.6,59.4,46,59.8,46z"/>
	</g>
</g>
</svg>
