<?xml version="1.0" encoding="utf-8"?>
<!-- Generator: Adobe Illustrator 27.0.1, SVG Export Plug-In . SVG Version: 6.00 Build 0)  -->
<svg version="1.1" id="Capa_1" xmlns="http://www.w3.org/2000/svg" xmlns:xlink="http://www.w3.org/1999/xlink" x="0px" y="0px"
	 viewBox="0 0 1080 1080" style="enable-background:new 0 0 1080 1080;" xml:space="preserve">
<style type="text/css">
	.st0{fill:#5D5F56;}
</style>
<g>
	<path class="st0" d="M-1398.2,687.8L-1398.2,687.8c-5,0-9.1-4.1-9.1-9.1V570.1c0-5,4.1-9.1,9.1-9.1l0,0c5,0,9.1,4.1,9.1,9.1v108.5
		C-1389.1,683.7-1393.2,687.8-1398.2,687.8z"/>
	<path class="st0" d="M-1378.3,692.4L-1378.3,692.4c-4.5-2.3-6.2-7.8-3.8-12.3l27.9-53.3c2.3-4.5,7.8-6.2,12.3-3.8v0
		c4.5,2.3,6.2,7.8,3.8,12.3l-27.9,53.3C-1368.3,693.1-1373.8,694.8-1378.3,692.4z"/>
	<path class="st0" d="M-1362.7,705.8L-1362.7,705.8c-2.9-4.1-1.8-9.8,2.3-12.7l49.4-34.3c4.1-2.9,9.8-1.8,12.7,2.3v0
		c2.9,4.1,1.8,9.8-2.3,12.7l-49.4,34.3C-1354.2,711-1359.9,710-1362.7,705.8z"/>
	<path class="st0" d="M-1370,743.8c-1.8,0.8-2.5,0-4.1,0.9c0.7-7.8,10.4-11.1,16.9-7.8c0.7,0.2,1.5,0.4,2.1,0.7c0,0,0.7,0.2,2,0.7
		c7.4,2.5,33.4,11.1,33.4,11.1c4.7,1.8,7.1,7,5.4,11.7l0,0c-1.8,4.7-7,7.1-11.7,5.4l-35.4-11.8c-0.7-0.3-1.5-0.7-2.2-1.1
		c-0.7-0.5-1.5-1-2.2-1.6c-0.3-0.4-0.6-0.8-0.9-1.1c-0.3-0.6-0.6-1.1-0.9-1.7c-0.8-1.9,0.2-7.1-1.6-5.9
		C-1370,743.8-1370,744.4-1370,743.8z"/>
	<path class="st0" d="M-1368.7,762.4L-1368.7,762.4c3.7-3.4,9.5-3.1,12.9,0.7l24.1,24c3.4,3.7,3.1,9.5-0.7,12.9l0,0
		c-3.7,3.4-9.5,3.1-12.9-0.7l-24.1-24C-1372.7,771.5-1372.4,765.7-1368.7,762.4z"/>
	<path class="st0" d="M-1386.6,772.3L-1386.6,772.3c4.9-1.2,9.8,1.7,11.1,6.6l10.3,37.5c1.2,4.9-1.7,9.8-6.6,11.1l0,0
		c-4.9,1.2-9.8-1.7-11.1-6.6l-10.3-37.5C-1394.4,778.5-1391.5,773.5-1386.6,772.3z"/>
	<path class="st0" d="M-1407.1,772.7L-1407.1,772.7c4.9,1.1,7.9,6,6.8,10.9l-9.1,47c-1.1,4.9-6,7.9-10.9,6.8l0,0
		c-4.9-1.1-7.9-6-6.8-10.9l9.1-47C-1416.9,774.6-1412,771.5-1407.1,772.7z"/>
	<path class="st0" d="M-1425.5,763.6L-1425.5,763.6c3.8,3.3,4.2,9,0.9,12.8l-39.3,45.5c-3.3,3.8-9,4.2-12.8,0.9l0,0
		c-3.8-3.3-4.2-9-0.9-12.8l39.3-45.5C-1435,760.7-1429.3,760.3-1425.5,763.6z"/>
	<path class="st0" d="M-1437.5,747L-1437.5,747c1.8,4.7-0.4,10-5.1,11.8l-60.5,26.7c-4.7,1.8-10-0.4-11.8-5.1l0,0
		c-1.8-4.7,0.4-10,5.1-11.8l60.5-26.7C-1444.7,740-1439.4,742.3-1437.5,747z"/>
	<path class="st0" d="M-1440.5,726.7L-1440.5,726.7c-0.5,5-5,8.6-10,8.1l-71.3-6.3c-5-0.5-8.6-5-8.1-10l0,0c0.5-5,5-8.6,10-8.1
		l71.3,6.3C-1443.6,717.2-1440,721.7-1440.5,726.7z"/>
	<path class="st0" d="M-1433.8,707.3L-1433.8,707.3c-2.8,4.2-8.4,5.3-12.6,2.5l-70.8-44.8c-4.2-2.8-5.3-8.4-2.5-12.6l0,0
		c2.8-4.2,8.4-5.3,12.6-2.5l70.8,44.8C-1432.2,697.5-1431,703.2-1433.8,707.3z"/>
	<path class="st0" d="M-1418.9,693.3L-1418.9,693.3c-4.4,2.4-9.9,0.8-12.4-3.6l-40.5-78.1c-2.4-4.4-0.8-9.9,3.6-12.4l0,0
		c4.4-2.4,9.9-0.8,12.4,3.6l40.5,78.1C-1412.8,685.3-1414.4,690.9-1418.9,693.3z"/>
</g>
<g>
	<rect x="-1452.1" y="615.5" style="fill:none;" width="116.9" height="200.1"/>
	
		<text transform="matrix(1 0 0 1 -1452.0929 774.1127)" class="st0" style="font-family:'Aeonik-Medium'; font-size:189.4825px; letter-spacing:3;">c</text>
</g>
<g>
	<g>
		<g>
			<path class="st0" d="M410.7,826.4c3.6-2.1,7.8-3.1,12.6-3.1c3.7,0,7.1,0.7,10.1,2.1c3,1.4,5.4,3.4,7.3,6c1.9,2.6,3.1,5.6,3.6,9.1
				h-8.1c-0.8-3.2-2.4-5.6-4.7-7.4c-2.3-1.8-5.2-2.7-8.6-2.7c-3.1,0-5.7,0.8-8.1,2.3c-2.3,1.5-4.1,3.7-5.3,6.4
				c-1.2,2.7-1.8,5.8-1.8,9.4c0,3.5,0.6,6.6,1.8,9.3c1.2,2.7,3,4.9,5.3,6.4c2.3,1.5,5,2.3,8.1,2.3c3.4,0,6.2-0.9,8.5-2.7
				c2.3-1.8,3.8-4.3,4.6-7.4h8.1c-0.5,3.5-1.7,6.5-3.6,9.1c-1.9,2.6-4.3,4.6-7.2,6c-3,1.4-6.3,2.1-10.1,2.1c-4.8,0-9-1-12.6-3.1
				c-3.6-2.1-6.4-5-8.3-8.8c-2-3.8-2.9-8.2-2.9-13.3c0-5,1-9.4,2.9-13.2C404.4,831.4,407.1,828.5,410.7,826.4z"/>
			<path class="st0" d="M479.6,823.7h9.7l18.4,49.5h-8.7l-4.7-12.2h-20.3l-4.6,12.2h-8.4L479.6,823.7z M492.1,854l-7.9-21.6
				l-7.8,21.6H492.1z"/>
			<path class="st0" d="M556.9,825.6c2.6,1.3,4.6,3.1,6,5.5s2.2,5.1,2.2,8.3c0,3.3-0.9,6.2-2.6,8.7c-1.7,2.5-4.1,4.3-7,5.3
				l10.5,19.7h-9l-9.4-18h-11v18h-8.1v-49.5h19.5C551.3,823.7,554.3,824.3,556.9,825.6z M547.3,848.1c2.9,0,5.2-0.8,7-2.4
				s2.6-3.7,2.6-6.3c0-2.6-0.9-4.7-2.6-6.3s-4-2.4-7-2.4h-10.7v17.4H547.3z"/>
			<path class="st0" d="M620.4,823.7v7.2h-24.2v13.7h19.9v7h-19.9v14.3h25v7.2h-33.1v-49.5H620.4z"/>
			<path class="st0" d="M653.2,864.1c2.1,1.8,4.9,2.7,8.4,2.7c3,0,5.5-0.6,7.3-1.9c1.9-1.3,2.8-3.1,2.8-5.4c0-1.6-0.5-3-1.5-3.9
				c-1-1-2.4-1.7-4.1-2.2c-1.7-0.5-4.2-1.1-7.4-1.6c-3.2-0.6-5.9-1.3-8.2-2.2c-2.3-0.9-4.1-2.3-5.6-4.2c-1.4-1.9-2.2-4.4-2.2-7.4
				c0-2.8,0.7-5.3,2.2-7.6c1.5-2.2,3.6-3.9,6.2-5.2c2.7-1.2,5.7-1.8,9.2-1.8c3.5,0,6.7,0.7,9.5,2c2.8,1.3,5,3.1,6.6,5.4
				c1.6,2.3,2.5,4.9,2.6,7.9h-8c-0.3-2.5-1.4-4.6-3.3-6.1c-1.9-1.6-4.4-2.3-7.4-2.3c-2.9,0-5.2,0.6-6.9,1.9c-1.7,1.2-2.6,3-2.6,5.3
				c0,1.6,0.5,2.9,1.5,3.8c1,0.9,2.4,1.6,4.1,2.1c1.7,0.5,4.1,1,7.3,1.6c3.2,0.6,6,1.3,8.3,2.3c2.3,0.9,4.2,2.3,5.7,4.2
				c1.5,1.8,2.2,4.3,2.2,7.3c0,2.9-0.8,5.5-2.3,7.8c-1.6,2.3-3.7,4.1-6.5,5.4s-5.9,1.9-9.5,1.9c-3.9,0-7.4-0.7-10.3-2.1
				c-3-1.4-5.3-3.4-7-5.9c-1.7-2.5-2.5-5.4-2.6-8.7l8,0.1C649.8,860,651,862.3,653.2,864.1z"/>
		</g>
		<g>
			<path class="st0" d="M215.2,700.3c3.9,7.4,5.8,16.1,5.8,26c0,9.7-1.9,18.3-5.8,25.7c-3.9,7.4-9.2,13.1-16,17.2
				s-14.6,6.1-23.3,6.1c-7.1,0-13.2-1.3-18.5-3.9c-5.2-2.6-9.4-6.2-12.5-10.6v50.7h-20.1V678.6h17.5l2.4,14.2
				c7.7-10.2,18.1-15.3,31.2-15.3c8.7,0,16.5,2,23.3,5.9C206,687.3,211.4,692.9,215.2,700.3z M200.5,726.3c0-9.5-2.6-17.1-7.7-22.9
				c-5.2-5.8-11.9-8.8-20.2-8.8c-8.3,0-15.1,2.9-20.1,8.7c-5.1,5.8-7.6,13.3-7.6,22.7c0,9.6,2.5,17.4,7.6,23.3c5.1,6,11.8,9,20.1,9
				c8.3,0,15.1-3,20.2-9C197.9,743.3,200.5,735.7,200.5,726.3z"/>
			<path class="st0" d="M332.4,774.1h-10.6c-6.2,0-10.7-1.3-13.4-3.9c-2.7-2.6-4.1-6.4-4.1-11.4c-7.2,10.9-17.7,16.4-31.5,16.4
				c-10.7,0-19.3-2.5-25.7-7.5s-9.7-11.8-9.7-20.5c0-9.8,3.5-17.4,10.4-22.7c7-5.3,17.1-7.9,30.4-7.9h24.1v-5.8
				c0-5.3-1.9-9.5-5.6-12.6c-3.7-3-8.9-4.6-15.5-4.6c-5.8,0-10.7,1.3-14.5,3.8c-3.8,2.5-6.1,5.9-6.8,10.2H240
				c1-9.6,5.2-17,12.7-22.3c7.5-5.3,17.2-7.9,29.3-7.9c12.8,0,22.7,3,29.7,9s10.4,14.6,10.4,25.7v37.7c0,4.5,2.1,6.7,6.3,6.7h3.9
				V774.1z M277.1,731.6c-6.2,0-11,1.2-14.4,3.6c-3.4,2.4-5,6-5,10.7c0,4.1,1.6,7.4,4.8,9.9c3.2,2.5,7.5,3.7,13,3.7
				c8.3,0,14.8-2.2,19.5-6.7c4.7-4.5,7.1-10.4,7.2-17.9v-3.4H277.1z"/>
			<path class="st0" d="M367.2,643.5v130.6h-20.1V643.5H367.2z"/>
			<path class="st0" d="M410.9,643.5v130.6h-20.1V643.5H410.9z"/>
			<path class="st0" d="M525.8,774.1h-10.6c-6.2,0-10.7-1.3-13.4-3.9c-2.7-2.6-4.1-6.4-4.1-11.4c-7.2,10.9-17.7,16.4-31.5,16.4
				c-10.7,0-19.3-2.5-25.7-7.5s-9.7-11.8-9.7-20.5c0-9.8,3.5-17.4,10.4-22.7c7-5.3,17.1-7.9,30.4-7.9h24.1v-5.8
				c0-5.3-1.9-9.5-5.6-12.6c-3.7-3-8.9-4.6-15.5-4.6c-5.8,0-10.7,1.3-14.5,3.8c-3.8,2.5-6.1,5.9-6.8,10.2h-19.8
				c1-9.6,5.2-17,12.7-22.3c7.5-5.3,17.2-7.9,29.3-7.9c12.8,0,22.7,3,29.7,9s10.4,14.6,10.4,25.7v37.7c0,4.5,2.1,6.7,6.3,6.7h3.9
				V774.1z M470.6,731.6c-6.2,0-11,1.2-14.4,3.6c-3.4,2.4-5,6-5,10.7c0,4.1,1.6,7.4,4.8,9.9c3.2,2.5,7.5,3.7,13,3.7
				c8.3,0,14.8-2.2,19.5-6.7c4.7-4.5,7.1-10.4,7.2-17.9v-3.4H470.6z"/>
			<path class="st0" d="M633.3,774.1h-17.5l-2.4-14.4c-7.6,10.3-18,15.5-31.2,15.5c-8.7,0-16.5-2-23.3-5.9c-6.8-3.9-12.2-9.6-16-17
				c-3.9-7.4-5.8-16.1-5.8-26c0-9.7,2-18.3,5.9-25.7c3.9-7.4,9.3-13.1,16.1-17.2c6.8-4,14.6-6.1,23.1-6.1c7,0,13.1,1.3,18.3,3.8
				c5.2,2.6,9.5,6.1,12.7,10.5v-48.3h20.1V774.1z M613.3,726.7c0-9.6-2.6-17.3-7.7-23.2c-5.1-5.9-11.8-8.9-20.1-8.9
				c-8.3,0-15,3-20.1,8.9c-5.1,5.9-7.7,13.5-7.7,22.9c0,9.5,2.6,17.1,7.7,23c5.1,5.9,11.8,8.9,20.1,8.9c8.3,0,15.1-2.9,20.1-8.8
				C610.8,743.6,613.3,736,613.3,726.7z"/>
			<path class="st0" d="M679.2,652.5c0,3.5-1.2,6.4-3.5,8.7c-2.4,2.3-5.3,3.5-8.8,3.5c-3.5,0-6.4-1.1-8.8-3.5
				c-2.4-2.3-3.5-5.2-3.5-8.7c0-3.5,1.2-6.4,3.5-8.7c2.4-2.3,5.3-3.5,8.8-3.5c3.5,0,6.4,1.2,8.8,3.5
				C678,646.1,679.2,649,679.2,652.5z M676.9,678.6v95.5h-20.1v-95.5H676.9z"/>
			<path class="st0" d="M786.1,774.1h-17.7l-2.2-12.1c-7.2,8.8-17,13.2-29.5,13.2c-11.2,0-20.3-3.5-27.2-10.4
				c-7-7-10.4-18.2-10.4-33.6v-52.6h20.1v50.6c0,9.3,1.9,16.4,5.6,21.3c3.7,4.9,9.3,7.3,16.6,7.3c7.7,0,13.7-2.8,18.1-8.5
				c4.4-5.7,6.5-13.4,6.5-23.2v-47.4h20.1V774.1z"/>
			<path class="st0" d="M955.3,720.2v53.9h-20.1v-53.7c0-8.3-1.7-14.7-5-19c-3.4-4.4-8.3-6.5-14.9-6.5c-7,0-12.5,2.5-16.5,7.4
				c-4,4.9-6.1,11.7-6.1,20.2v51.7h-20.3v-53.7c0-8.5-1.7-14.8-5.1-19.1c-3.4-4.3-8.4-6.4-15-6.4c-6.8,0-12.3,2.5-16.3,7.6
				c-4,5.1-6.1,11.9-6.1,20.5v51.1h-20.1v-95.5h17.5l2.2,12.5c6.8-9,16.2-13.5,28-13.6c6.7,0,12.6,1.4,17.7,4.3
				c5.1,2.9,9,7.2,11.8,13.1c3.4-5.5,7.8-9.7,13.2-12.8c5.5-3,12.1-4.6,19.8-4.6c10.4,0,19,3.4,25.6,10.2
				C952,694.4,955.3,705.3,955.3,720.2z"/>
		</g>
	</g>
	<g>
		<g>
			<g>
				<path class="st0" d="M708.5,375c-5,3.5-9.9,6.9-14.9,10.4c-10.2,7.1-20.4,14.1-30.5,21.2c-10.2,7.1-20.5,14.1-31,21
					c-1.2,0.8-2.1,1.9-2.2,3.3c-0.1,1.1,2.1,4.3-0.2,4.3c-4.8,0-9.7-0.1-14.5-0.1c-4.9,0-9.9,0-14.8,0c-0.3,0-0.7,0-0.9-0.3
					c-0.1-0.2-0.2-0.4-0.3-0.6c-0.4-1.7-0.8-3.3-1.5-4.9c-0.8-1.9-1.7-3.7-2.7-5.4c-2.1-3.3-4.8-6.3-7.9-8.8
					c-6.2-4.9-13.9-7.4-22.9-7.4c-12.3,0-22.1,4.4-29.6,13.3c-7.5,8.9-11.2,20.4-11.2,34.6c0,14.3,3.7,26,11.2,35
					c7.5,9,17.3,13.5,29.6,13.5c9.4,0,17.3-2.5,23.5-7.5c5.4-4.4,9.2-10,11.3-17c0.2-0.8,0.5-1.6,0.7-2.4c0.1-0.3,0.2-0.5,0.3-0.8
					c7.1-15.7,28.3-6.1,39.9-2.2c10.7,3.6,21.3,7.4,32,10.9c2.8,0.9,5.6,1.9,8.4,2.8c5.5,2,8.9,7.2,8.9,12.8c0,1.6-0.3,3.2-0.9,4.7
					c-2.6,7-10.5,10.6-17.5,8l-46.8-15.5c-1.2,2.3-2.5,4.4-4,6.5c2.3,0.7,4.5,2,6.2,3.9l36,35.8c2.3,2.6,3.5,5.9,3.5,9.1
					c0,3.7-1.5,7.4-4.5,10.1c-5.6,5-14.2,4.6-19.2-1l-36-35.8c-1.6-1.8-2.7-3.9-3.2-6.1c-3.1,1.9-6.5,3.6-10,4.9
					c1.8,1.7,3.2,3.9,3.9,6.5L612,588c0.3,1.1,0.4,2.3,0.4,3.4c0,6.1-4.1,11.6-10.2,13.2c-7.3,1.9-14.7-2.5-16.6-9.8l-15.5-56.1
					c-0.3-1.1-0.4-2.3-0.4-3.4c0-1.8,0.4-3.6,1.1-5.3c-2.2,0.2-4.5,0.2-6.8,0.2c-1.9,0-3.7-0.1-5.5-0.2c1.3,2.7,1.7,5.9,1,9
					l-13.7,70.3c-1.5,6.3-7.1,10.5-13.2,10.5c-1,0-2.1-0.1-3.1-0.4c-7.3-1.7-11.9-9-10.1-16.4l13.7-70.3c0.6-2.8,2.1-5.1,4-6.9
					c-3.7-1.3-7.2-2.8-10.5-4.7c-0.3,2.5-1.4,5-3.2,7l-58.8,68c-2.7,3.1-6.5,4.7-10.3,4.7c-3.2,0-6.3-1.1-8.9-3.3
					c-5.7-4.9-6.3-13.5-1.4-19.2l58.8-68c1.6-1.9,3.6-3.2,5.8-4c-2.3-2.8-4.5-5.8-6.4-9.1c-1.5,2-3.5,3.6-5.9,4.5l-90.5,40
					c-1.6,0.6-3.3,1-5,1c-5.4,0-10.5-3.3-12.7-8.6c-2.8-7,0.7-14.9,7.6-17.7l90.5-40c2.5-1,5.2-1.2,7.6-0.7
					c-0.8-3.6-1.4-7.4-1.7-11.3c-2.3,1.2-4.9,1.7-7.7,1.5l-106.6-9.4c-7-0.7-12.2-6.6-12.2-13.5c0-0.5,0-1,0.1-1.4
					c0.8-7.5,7.5-12.9,15-12.1l106.6,9.4c2,0.2,3.9,0.9,5.6,1.9c0.5-3.5,1.3-6.9,2.3-10.1c-1.6-0.4-3.1-1-4.5-1.9l-105.9-67
					c-3.9-2.6-6.1-6.9-6.1-11.3c0-2.6,0.7-5.2,2.3-7.5c4.2-6.3,12.6-8,18.9-3.8l105.9,67c0.5,0.3,1,0.7,1.5,1.1
					c2.1-2.7,4.4-5.1,6.9-7.4c-0.3-0.4-0.5-0.8-0.7-1.2l-60.5-116.7c-1.1-2.1-1.7-4.3-1.7-6.5c0-4.8,2.5-9.5,7.1-11.9
					c6.6-3.6,14.9-1.2,18.5,5.4l60.5,116.7c0.1,0.2,0.2,0.4,0.3,0.5c3.7-1.3,7.6-2.3,11.6-3c0-0.3,0-0.6,0-1V220
					c0-3.8,1.5-7.2,4-9.6c2.5-2.5,5.9-4,9.6-4c7.5,0,13.6,6.1,13.6,13.6v162.2c0,0.1,0,0.2,0,0.3c3.6,0.5,7.1,1.1,10.4,2l0.1-0.1
					l41.7-79.7c2.4-4.6,7.2-7.3,12.1-7.3c2.1,0,4.3,0.5,6.3,1.5c6.7,3.5,9.2,11.7,5.8,18.4l-41.7,79.7c-0.1,0.1-0.1,0.2-0.2,0.3
					c2.6,2.3,5,4.8,7.2,7.5c0.4-0.3,0.8-0.7,1.2-1l73.8-51.3c6.2-4.3,14.6-2.8,18.9,3.4C716.2,362.2,714.7,370.7,708.5,375z"/>
			</g>
		</g>
		<g>
			<g>
				<path class="st0" d="M599.5,477.3c-0.2,0.8-0.4,1.6-0.7,2.4C599,478.8,599.2,478,599.5,477.3z"/>
			</g>
		</g>
	</g>
	<g>
		<g>
			<g>
				<path class="st0" d="M540,476.5c-0.1,0.3-0.1,0.5-0.2,0.8c0.1-0.3,0.2-0.5,0.3-0.8H540z"/>
			</g>
		</g>
	</g>
</g>
<g>
	
		<text transform="matrix(1 0 0 1 -1435.402 1432.725)" class="st0" style="font-family:'Aeonik-Medium'; font-size:42.0218px; letter-spacing:9;">CARES</text>
	<rect x="-1603.1" y="1279.5" style="fill:none;" width="505.1" height="117.1"/>
	
		<text transform="matrix(1 0 0 1 -1603.09 1372.391)" class="st0" style="font-family:'Aeonik-Medium'; font-size:110.9246px; letter-spacing:2;">palladium</text>
</g>
<g>
	<g>
		<path class="st0" d="M-1250.3,1136.5l-43.9,30.5c-1,0.7-2,1.1-3.1,1.3c0.3,1.3,0.6,2.6,0.9,4h-18.7c-1.2-4.9-3.7-8.9-7.4-11.8
			c-3.7-2.9-8.3-4.4-13.6-4.4c-7.3,0-13.2,2.6-17.6,7.9c-4.4,5.3-6.7,12.1-6.7,20.5c0,8.5,2.2,15.5,6.7,20.8c4.4,5.3,10.3,8,17.6,8
			c5.6,0,10.3-1.5,14-4.5c3.2-2.6,5.5-6,6.7-10.1c0.1-0.5,0.3-0.9,0.4-1.4c0,0,0,0,0,0c0.1-0.2,0.1-0.3,0.2-0.5
			c2.3-5,9.3-6.8,14.4-4.3c0.7,0.2,1.3,0.4,1.9,0.6c0,0,0.6,0.2,1.7,0.6c6.6,2.2,29.7,9.9,29.7,9.9c3.3,1.2,5.3,4.3,5.3,7.6
			c0,0.9-0.2,1.9-0.5,2.8c-1.6,4.2-6.2,6.3-10.4,4.8l-27.8-9.2c-0.7,1.4-1.5,2.6-2.4,3.9c1.4,0.4,2.7,1.2,3.7,2.3l21.4,21.3
			c1.4,1.5,2.1,3.5,2.1,5.4c0,2.2-0.9,4.4-2.7,6c-3.3,3-8.4,2.7-11.4-0.6l-21.4-21.3c-1-1.1-1.6-2.3-1.9-3.6
			c-1.9,1.1-3.8,2.1-5.9,2.9c1.1,1,1.9,2.3,2.3,3.9l9.2,33.3c0.2,0.7,0.3,1.4,0.3,2c0,3.6-2.4,6.9-6.1,7.8c-4.3,1.1-8.7-1.5-9.8-5.8
			l-9.2-33.3c-0.2-0.7-0.3-1.4-0.3-2c0-1.1,0.2-2.1,0.6-3.1c-1.3,0.1-2.7,0.1-4.1,0.1c-1.1,0-2.2,0-3.3-0.1c0.8,1.6,1,3.5,0.6,5.4
			l-8.1,41.8c-0.9,3.7-4.2,6.2-7.9,6.2c-0.6,0-1.2-0.1-1.9-0.2c-4.3-1-7-5.4-6-9.7l8.1-41.8c0.4-1.6,1.2-3,2.4-4.1
			c-2.2-0.8-4.3-1.7-6.3-2.8c-0.2,1.5-0.8,2.9-1.9,4.2l-34.9,40.5c-1.6,1.9-3.9,2.8-6.1,2.8c-1.9,0-3.8-0.6-5.3-2
			c-3.4-2.9-3.8-8-0.8-11.4l34.9-40.5c1-1.1,2.2-1.9,3.4-2.3c-1.4-1.7-2.7-3.5-3.8-5.4c-0.9,1.2-2.1,2.1-3.5,2.7l-53.8,23.8
			c-1,0.4-2,0.6-3,0.6c-3.2,0-6.3-1.9-7.5-5.1c-1.6-4.2,0.4-8.9,4.5-10.5l53.8-23.8c1.5-0.6,3.1-0.7,4.5-0.4c-0.5-2.2-0.8-4.4-1-6.7
			c-1.4,0.7-2.9,1-4.6,0.9l-63.4-5.6c-4.2-0.4-7.2-3.9-7.2-8c0-0.3,0-0.6,0-0.9c0.5-4.4,4.4-7.7,8.9-7.2l63.4,5.6
			c1.2,0.1,2.3,0.5,3.3,1.1c0.3-2.1,0.8-4.1,1.3-6c-0.9-0.2-1.8-0.6-2.7-1.2l-62.9-39.8c-2.3-1.6-3.6-4.1-3.6-6.7
			c0-1.5,0.4-3.1,1.4-4.5c2.5-3.7,7.5-4.7,11.2-2.3l62.9,39.8c0.3,0.2,0.6,0.4,0.9,0.7c1.3-1.6,2.6-3.1,4.1-4.4
			c-0.2-0.2-0.3-0.5-0.4-0.7l-36-69.4c-0.7-1.2-1-2.6-1-3.9c0-2.9,1.5-5.6,4.2-7.1c3.9-2.2,8.8-0.7,11,3.2l36,69.4
			c0.1,0.1,0.1,0.2,0.2,0.3c2.2-0.8,4.5-1.4,6.9-1.8c0-0.2,0-0.4,0-0.6v-96.5c0-2.2,0.9-4.3,2.4-5.7c1.5-1.5,3.5-2.4,5.7-2.4
			c4.5,0,8.1,3.6,8.1,8.1v96.5c0,0.1,0,0.1,0,0.2c2.2,0.3,4.2,0.7,6.2,1.2l0-0.1l24.8-47.4c1.4-2.8,4.3-4.3,7.2-4.3
			c1.3,0,2.5,0.3,3.7,0.9c4,2.1,5.5,7,3.4,10.9l-24.8,47.4c0,0.1-0.1,0.1-0.1,0.2c1.6,1.4,3,2.9,4.3,4.5c0.2-0.2,0.5-0.4,0.7-0.6
			l43.9-30.5c3.7-2.5,8.7-1.6,11.3,2S-1246.7,1134-1250.3,1136.5z"/>
	</g>
	<g>
		<path class="st0" d="M-1315.1,1197.3c-0.1,0.5-0.2,1-0.4,1.4C-1315.4,1198.3-1315.3,1197.8-1315.1,1197.3z"/>
	</g>
</g>
<g>
	<g>
		<path class="st0" d="M-1350.5,1196.9c0,0.2-0.1,0.3-0.1,0.5C-1350.6,1197.2-1350.5,1197-1350.5,1196.9L-1350.5,1196.9z"/>
	</g>
</g>
</svg>
