<?xml version="1.0" encoding="utf-8"?>
<!-- Generator: Adobe Illustrator 26.0.3, SVG Export Plug-In . SVG Version: 6.00 Build 0)  -->
<svg version="1.1" id="Capa_1" xmlns="http://www.w3.org/2000/svg" xmlns:xlink="http://www.w3.org/1999/xlink" x="0px" y="0px"
	 viewBox="0 0 100 70" style="enable-background:new 0 0 100 70;" xml:space="preserve">
<style type="text/css">
	#palladium_hotels-Capa_1 .st0{fill-rule:evenodd;clip-rule:evenodd;fill:#9B751E;}
	#palladium_hotels-Capa_1 .st1{fill:#002F72;}
</style>
<g>
	<path class="st0" d="M57.3,25.3c0,0-0.1-1.5-0.8-2.7c-1-1.7-2.1-2.2-2.5-2.4c0,0,0.3-0.3,0.9-0.4c0.9-0.2,1.8,0.1,1.8,0.1
		s-0.8-1.1-2.8-1.3c-1.7-0.2-2.4,0.5-2.4,0.5s0.2-0.6,1-1c0.7-0.4,1.7-0.3,1.7-0.3s-0.5-0.2-1.2-0.3c-1-0.1-3-0.3-4.2,0.7
		c-1.3,1-0.9,2.2-0.9,2.2s1.5-0.5,3.1,0c1.9,0.6,3.4,2,3.4,4.8c0,3.4-3.5,5.7-3.5,5.7c7.5-0.2,13.5-3.6,13.5-7.8
		c0-4.3-6.4-7.8-14.3-7.8c-7.9,0-14.3,3.5-14.3,7.8c0,2,1.5,3.9,3.5,5.1c2.2,1.3,6.9,2,9.7,0.4c2.7-1.5,3.4-4.5,2-6.2
		c-1.2-1.5-3.4-1.4-4.8-0.9c-1.4,0.6-1.9,1.4-1.9,1.4c1.6-0.6,3.7-0.5,3.9,0.5c0.2,1-0.9,1.6-2.9,1.7c-0.9,0.1-1.8,0-2.6-0.2
		c0,0-1.1-0.1-2.2-0.7c-0.1,0-0.2-0.1-0.2-0.1c-1.1-0.8-1.8-1.7-1.8-2.6c0-2.7,5.1-4.9,11.5-4.9c6.3,0,11.5,2.2,11.5,4.9
		C61.5,23,59.8,24.3,57.3,25.3L57.3,25.3z"/>
	<g>
		<polygon class="st1" points="30.1,44.4 30.1,35.7 28.9,35.7 28.9,45.2 33.9,45.2 33.9,44.4 		"/>
		<polygon class="st1" points="36.9,44.4 36.9,35.7 35.6,35.7 35.6,45.2 40.7,45.2 40.7,44.4 		"/>
		<path class="st1" d="M46.1,35.5l-4.2,9.7h0.9l1.5-3.7h3.4c0.1,0.3,0.2,0.6,0.4,1c0.1,0.3,0.3,0.7,0.4,1c0.1,0.3,0.3,0.6,0.4,0.9
			c0.1,0.3,0.2,0.6,0.3,0.8h1.5c-0.1-0.2-0.3-0.5-0.5-1c-0.2-0.4-0.4-0.9-0.6-1.5c-0.2-0.5-0.5-1.1-0.8-1.8
			c-0.3-0.6-0.5-1.3-0.8-1.9c-0.3-0.6-0.5-1.3-0.8-1.9c-0.1-0.3-0.3-0.6-0.4-0.9c-0.1-0.3-0.2-0.6-0.3-0.8H46.1z M44.5,40.9l1.4-3.5
			l1.5,3.5H44.5z"/>
		<path class="st1" d="M22.5,35.5l-4.2,9.7h0.9l1.5-3.7H24c0.1,0.3,0.2,0.6,0.4,1c0.1,0.3,0.3,0.7,0.4,1c0.1,0.3,0.3,0.6,0.4,0.9
			c0.1,0.3,0.2,0.6,0.3,0.8h1.5c-0.1-0.2-0.3-0.5-0.5-1c-0.2-0.4-0.4-0.9-0.6-1.5c-0.2-0.5-0.5-1.1-0.8-1.8
			c-0.3-0.6-0.5-1.3-0.8-1.9c-0.3-0.6-0.5-1.3-0.8-1.9c-0.1-0.3-0.3-0.6-0.4-0.9c-0.1-0.3-0.2-0.6-0.3-0.8H22.5z M20.9,40.9l1.4-3.5
			l1.5,3.5H20.9z"/>
		<path class="st1" d="M60.6,38.4c-0.2-0.6-0.4-1.1-0.8-1.4c-0.4-0.4-0.8-0.7-1.4-0.9c-0.5-0.2-1.2-0.3-1.9-0.3v0h-4.4c0,0,0,0,0,0
			v9.5l0,0h3.8v0c0.5,0,1.1-0.1,1.6-0.2c0.6-0.2,1.1-0.4,1.6-0.8c0.5-0.4,0.9-0.9,1.2-1.5c0.3-0.6,0.5-1.4,0.5-2.3
			C60.9,39.6,60.8,38.9,60.6,38.4z M59.2,42.5c-0.3,0.6-0.6,1-1,1.4c-0.4,0.3-0.9,0.6-1.4,0.7c-0.5,0.1-1,0.2-1.5,0.2
			c-0.4,0-0.7,0-1,0c-0.3,0-0.6-0.1-0.8-0.1v-8.2l0,0v0c0.3,0,0.6-0.1,1-0.1c0.4,0,0.7,0,1.2,0c0.6,0,1.1,0.1,1.6,0.2
			c0.5,0.1,0.9,0.3,1.2,0.6c0.3,0.3,0.6,0.7,0.8,1.2c0.2,0.5,0.3,1.2,0.3,2C59.5,41.2,59.4,41.9,59.2,42.5z"/>
		<rect x="62.7" y="35.7" class="st1" width="1.4" height="9.5"/>
		<path class="st1" d="M74.8,35.7h-1.2v3.2c0,0,0,0.1,0,0.1c0,0.5,0,1,0,1.5c0,0.3,0,0.6,0,1c0,0.3,0,0.7-0.1,1
			c-0.1,0.3-0.1,0.6-0.3,0.9c-0.1,0.3-0.3,0.5-0.5,0.8c-0.2,0.2-0.5,0.4-0.9,0.5c-0.3,0.1-0.7,0.2-1.2,0.2c-0.4,0-0.8-0.1-1.2-0.2
			c-0.4-0.1-0.6-0.3-0.9-0.5c-0.2-0.2-0.4-0.5-0.5-0.8C68,43,68,42.7,67.9,42.4c-0.1-0.3-0.1-0.6-0.1-1c0-0.3,0-0.7,0-1
			c0-0.5,0-1,0-1.5c0,0,0-0.1,0-0.1v-3.2h-1.2l0,5.7c0,0,0,0.1,0,0.1c0,1.4,0.3,2.4,0.9,3c0.6,0.6,1.6,0.9,3,0.9c0,0,0.1,0,0.1,0
			c0,0,0.1,0,0.1,0c1.4,0,2.4-0.3,3-0.9c0.6-0.6,0.9-1.6,0.9-3c0,0,0-0.1,0-0.1L74.8,35.7z"/>
		<path class="st1" d="M86.4,35.5h-0.2c-0.2,0.4-0.5,0.9-0.7,1.4c-0.3,0.5-0.5,1-0.8,1.5c-0.3,0.5-0.5,1-0.8,1.5
			c-0.3,0.5-0.5,1-0.7,1.4c-0.2,0.4-0.4,0.8-0.6,1.1c-0.2,0.3-0.3,0.6-0.4,0.8l-4-7.6h-0.2l-1.3,9.7h1l0.7-7.1l3.6,7.1h0.1l3.6-7.1
			l0.7,7.1h1.3L86.4,35.5z"/>
		<path class="st1" d="M18.4,37c-0.1-0.3-0.3-0.5-0.4-0.7c-0.2-0.2-0.4-0.3-0.6-0.4c-0.2-0.1-0.4-0.2-0.7-0.2
			c-0.2,0-0.4-0.1-0.6-0.1c-0.1,0-0.3,0-0.4,0v0h-3.2h0c0,0,0,0,0,0v9.5l0,0h0h1.2v-0.7h0v-2.9v-0.8c0.2,0,0.4,0,0.5,0
			c0.2,0,0.4,0,0.6,0c0.3,0,0.7,0,1.1-0.1c0.4-0.1,0.8-0.2,1.2-0.4c0.4-0.2,0.7-0.5,1-0.9c0.3-0.4,0.4-0.9,0.4-1.5
			C18.6,37.6,18.6,37.3,18.4,37z M17.1,39.3c-0.2,0.3-0.4,0.5-0.6,0.7c-0.3,0.2-0.5,0.3-0.8,0.4c-0.3,0.1-0.6,0.1-0.9,0.1
			c-0.3,0-0.7,0-1-0.1v-4.1H15c0.4,0,0.7,0,1,0.1c0.3,0.1,0.5,0.1,0.7,0.3c0.2,0.1,0.4,0.3,0.5,0.6c0.1,0.2,0.2,0.6,0.2,1
			C17.3,38.6,17.2,39,17.1,39.3z"/>
	</g>
	<g>
		<g>
			<path class="st1" d="M38.1,49.6v2.1h2.4v-2.1h0.7v5.1h-0.7v-2.4h-2.4v2.4h-0.7v-5.1H38.1z"/>
			<path class="st1" d="M47,52.1c0,1.7-1.1,2.7-2.3,2.7c-1.3,0-2.3-1-2.3-2.6c0-1.6,1-2.7,2.3-2.7C46.1,49.5,47,50.6,47,52.1z
				 M43,52.1c0,1.1,0.6,2.1,1.6,2.1c1,0,1.6-1,1.6-2.1c0-1-0.5-2.1-1.6-2.1C43.6,50,43,51,43,52.1z"/>
			<path class="st1" d="M48.9,50.1h-1.5v-0.6h3.7v0.6h-1.5v4.5h-0.7V50.1z"/>
			<path class="st1" d="M54.5,52.3h-2v1.8h2.2v0.5h-2.8v-5.1h2.7v0.5h-2.1v1.6h2V52.3z"/>
			<path class="st1" d="M55.9,49.6h0.7v4.5h2.2v0.6h-2.8V49.6z"/>
			<path class="st1" d="M59.7,53.9c0.3,0.2,0.7,0.3,1.2,0.3c0.7,0,1.1-0.3,1.1-0.9c0-0.5-0.3-0.7-1-1c-0.8-0.3-1.3-0.7-1.3-1.4
				c0-0.8,0.7-1.4,1.6-1.4c0.5,0,0.9,0.1,1.1,0.2l-0.2,0.5c-0.2-0.1-0.5-0.2-1-0.2c-0.7,0-1,0.4-1,0.8c0,0.5,0.3,0.7,1,1
				c0.9,0.3,1.3,0.7,1.3,1.5c0,0.8-0.6,1.5-1.8,1.5c-0.5,0-1-0.1-1.3-0.3L59.7,53.9z"/>
		</g>
	</g>
</g>
</svg>
