<?xml version="1.0" encoding="utf-8"?>
<!-- Generator: Adobe Illustrator 26.3.1, SVG Export Plug-In . SVG Version: 6.00 Build 0)  -->
<svg version="1.1" id="Capa_1" xmlns="http://www.w3.org/2000/svg" xmlns:xlink="http://www.w3.org/1999/xlink" x="0px" y="0px"
	 viewBox="0 0 16 14.4" style="enable-background:new 0 0 16 14.4;" xml:space="preserve">
<style type="text/css">
	.st0{fill:none;stroke:#FFFFFF;stroke-linecap:round;stroke-linejoin:round;}
</style>
<path class="st0" d="M15.1,10.5v2c0,0.2,0,0.4-0.1,0.5c-0.1,0.2-0.2,0.3-0.3,0.4c-0.1,0.1-0.3,0.2-0.5,0.3c-0.2,0.1-0.4,0.1-0.5,0.1
	c-2.1-0.2-4-0.9-5.8-2c-1.6-1-3-2.4-4-4C2.7,6.1,2,4.1,1.8,2c0-0.2,0-0.4,0.1-0.5C1.9,1.3,2,1.1,2.2,1s0.3-0.2,0.4-0.3
	C2.8,0.6,3,0.6,3.1,0.6h2c0.3,0,0.6,0.1,0.9,0.3c0.2,0.2,0.4,0.5,0.5,0.8C6.6,2.3,6.7,3,6.9,3.6C7,3.8,7.1,4.1,7,4.3
	C6.9,4.6,6.8,4.8,6.6,5L5.8,5.8c0.9,1.7,2.3,3.1,4,4L10.6,9c0.2-0.2,0.4-0.3,0.7-0.4c0.2-0.1,0.5,0,0.7,0.1c0.6,0.2,1.2,0.4,1.9,0.5
	c0.3,0,0.6,0.2,0.8,0.5C15,9.9,15.1,10.2,15.1,10.5z"/>
</svg>
