<?xml version="1.0" encoding="utf-8"?>
<!-- Generator: Adobe Illustrator 24.0.1, SVG Export Plug-In . SVG Version: 6.00 Build 0)  -->
<svg version="1.1" id="Capa_1" xmlns="http://www.w3.org/2000/svg" xmlns:xlink="http://www.w3.org/1999/xlink" x="0px" y="0px"
	 viewBox="0 0 30 30" style="enable-background:new 0 0 30 30;" xml:space="preserve">
<style type="text/css">
	#twitter-Capa_1 .st0{fill:#9A7611;}
</style>
<g>
	<polygon class="st0" points="15.8,13.4 12.8,9 11.1,9 14.9,14.4 15.4,15.1 15.4,15.1 18.6,19.7 20.3,19.7 16.3,14.1 	"/>
	<path class="st0" d="M15,1.7C7.6,1.7,1.7,7.6,1.7,15s6,13.3,13.3,13.3s13.3-6,13.3-13.3S22.4,1.7,15,1.7z M18.1,20.5l-3.3-4.8
		l-4.1,4.8h-1l4.7-5.5L9.7,8.2h3.6l3.1,4.5l3.9-4.5h1.1l-4.5,5.2l0,0l4.9,7.1H18.1z"/>
</g>
</svg>
