<?xml version="1.0" encoding="utf-8"?>
<!-- Generator: Adobe Illustrator 26.0.3, SVG Export Plug-In . SVG Version: 6.00 Build 0)  -->
<svg version="1.1" id="Capa_1" xmlns="http://www.w3.org/2000/svg" xmlns:xlink="http://www.w3.org/1999/xlink" x="0px" y="0px"
	 viewBox="0 0 100 70" style="enable-background:new 0 0 100 70;" xml:space="preserve">
<style type="text/css">
	.st0{fill:#DE2826;}
</style>
<g>
	<g>
		<rect x="54.8" y="44.6" class="st0" width="0.2" height="2.2"/>
		<g>
			<path class="st0" d="M56.3,46.8v-2.2h0.5c0.1,0,0.2,0,0.3,0c0.1,0,0.2,0.1,0.2,0.1c0.1,0.1,0.1,0.1,0.1,0.2
				c0,0.1,0.1,0.2,0.1,0.2c0,0.1,0,0.2-0.1,0.2c0,0.1-0.1,0.1-0.2,0.2c0.1,0,0.2,0.1,0.3,0.2c0.1,0.1,0.1,0.2,0.1,0.3
				c0,0.1,0,0.2-0.1,0.3c0,0.1-0.1,0.2-0.2,0.2c0,0-0.1,0-0.1,0.1c0,0-0.1,0-0.1,0c0,0-0.1,0-0.2,0c-0.1,0-0.1,0-0.2,0H56.3z
				 M56.6,45.5h0.3c0.1,0,0.2,0,0.2,0c0.1,0,0.1,0,0.1,0c0.1,0,0.1-0.1,0.1-0.1c0-0.1,0-0.1,0-0.2c0-0.1,0-0.1,0-0.2
				c0-0.1-0.1-0.1-0.1-0.1c0,0-0.1-0.1-0.2-0.1c-0.1,0-0.1,0-0.2,0h-0.3V45.5z M56.6,46.6h0.3c0.1,0,0.2,0,0.2,0c0.1,0,0.1,0,0.2,0
				c0.1,0,0.1-0.1,0.2-0.1c0-0.1,0.1-0.1,0.1-0.2c0-0.1,0-0.2-0.1-0.2c0-0.1-0.1-0.1-0.2-0.1c0,0-0.1,0-0.1,0c0,0-0.1,0-0.1,0
				c0,0-0.1,0-0.1,0c0,0-0.1,0-0.1,0h-0.3V46.6z"/>
		</g>
		<rect x="58.9" y="44.6" class="st0" width="0.2" height="2.2"/>
		<polygon class="st0" points="60.2,46.8 60.2,46.6 61.3,44.8 60.3,44.8 60.3,44.6 61.5,44.6 61.5,44.8 60.5,46.6 61.6,46.6 
			61.6,46.8 		"/>
		<path class="st0" d="M62.5,46.8l0.9-2.2h0.2l0.9,2.2h-0.2L64,46.1h-1l-0.3,0.7H62.5z M63.1,45.9H64l-0.4-1L63.1,45.9z"/>
		<g>
			<path class="st0" d="M68.1,46.8v-2.2h0.5c0.1,0,0.2,0,0.3,0c0.1,0,0.2,0.1,0.2,0.1c0.1,0.1,0.1,0.1,0.1,0.2c0,0.1,0,0.2,0,0.2
				c0,0.1,0,0.2-0.1,0.2c0,0.1-0.1,0.1-0.2,0.2c0.1,0,0.2,0.1,0.3,0.2c0.1,0.1,0.1,0.2,0.1,0.3c0,0.1,0,0.2-0.1,0.3
				c0,0.1-0.1,0.2-0.2,0.2c0,0-0.1,0-0.1,0.1c0,0-0.1,0-0.1,0c0,0-0.1,0-0.2,0c-0.1,0-0.1,0-0.2,0H68.1z M68.3,45.5h0.3
				c0.1,0,0.2,0,0.2,0c0.1,0,0.1,0,0.1,0c0.1,0,0.1-0.1,0.1-0.1c0-0.1,0-0.1,0-0.2c0-0.1,0-0.1,0-0.2c0-0.1-0.1-0.1-0.1-0.1
				c0,0-0.1-0.1-0.2-0.1c-0.1,0-0.1,0-0.2,0h-0.3V45.5z M68.3,46.6h0.3c0.1,0,0.2,0,0.2,0c0.1,0,0.1,0,0.2,0c0.1,0,0.1-0.1,0.2-0.1
				c0-0.1,0.1-0.1,0.1-0.2c0-0.1,0-0.2-0.1-0.2c0-0.1-0.1-0.1-0.2-0.1c0,0-0.1,0-0.1,0c0,0-0.1,0-0.1,0c0,0-0.1,0-0.1,0
				c0,0-0.1,0-0.2,0h-0.3V46.6z"/>
		</g>
		<polygon class="st0" points="70.7,46.8 70.7,44.6 71.8,44.6 71.8,44.8 70.9,44.8 70.9,45.6 71.8,45.6 71.8,45.8 70.9,45.8 
			70.9,46.6 71.8,46.6 71.8,46.8 		"/>
		<path class="st0" d="M72.8,46.8l0.9-2.2H74l0.9,2.2h-0.2l-0.3-0.7h-1l-0.3,0.7H72.8z M73.5,45.9h0.8l-0.4-1L73.5,45.9z"/>
		<g>
			<path class="st0" d="M77.6,46.4C77.6,46.4,77.7,46.3,77.6,46.4c0.1-0.1,0.1-0.1,0.2-0.2H78c-0.1,0.2-0.2,0.3-0.4,0.4
				c-0.2,0.1-0.4,0.2-0.6,0.2c-0.2,0-0.3,0-0.4-0.1c-0.1-0.1-0.3-0.1-0.4-0.2c-0.1-0.1-0.2-0.2-0.2-0.4c-0.1-0.1-0.1-0.3-0.1-0.4
				c0-0.2,0-0.3,0.1-0.4c0.1-0.1,0.1-0.3,0.2-0.4c0.1-0.1,0.2-0.2,0.4-0.2c0.1-0.1,0.3-0.1,0.4-0.1c0.2,0,0.3,0,0.4,0.1
				c0.1,0.1,0.3,0.1,0.4,0.2c0,0,0.1,0.1,0.1,0.1c0,0,0,0,0.1,0.1c0,0,0,0,0,0.1c0,0,0,0,0,0.1h-0.2c-0.1-0.1-0.2-0.2-0.3-0.3
				c-0.1-0.1-0.3-0.1-0.4-0.1c-0.1,0-0.2,0-0.4,0.1c-0.1,0.1-0.2,0.1-0.3,0.2c-0.1,0.1-0.2,0.2-0.2,0.3c0,0.1-0.1,0.2-0.1,0.4
				c0,0.1,0,0.2,0.1,0.4c0.1,0.1,0.1,0.2,0.2,0.3c0.1,0.1,0.2,0.2,0.3,0.2c0.1,0.1,0.2,0.1,0.3,0.1c0.1,0,0.2,0,0.3-0.1
				C77.4,46.5,77.5,46.5,77.6,46.4"/>
		</g>
		<polygon class="st0" points="79.2,46.8 79.2,44.6 79.4,44.6 79.4,45.6 80.5,45.6 80.5,44.6 80.7,44.6 80.7,46.8 80.5,46.8 
			80.5,45.8 79.4,45.8 79.4,46.8 		"/>
		<polygon class="st0" points="84.3,46.8 84.3,44.6 84.5,44.6 84.5,45.6 85.6,45.6 85.6,44.6 85.8,44.6 85.8,46.8 85.6,46.8 
			85.6,45.8 84.5,45.8 84.5,46.8 		"/>
		<g>
			<path class="st0" d="M88.1,46.8c-0.2,0-0.3,0-0.4-0.1c-0.1-0.1-0.3-0.1-0.4-0.2c-0.1-0.1-0.2-0.2-0.2-0.4C87,46,87,45.9,87,45.7
				c0-0.2,0-0.3,0.1-0.4c0.1-0.1,0.1-0.3,0.2-0.4c0.1-0.1,0.2-0.2,0.4-0.2c0.1-0.1,0.3-0.1,0.4-0.1c0.2,0,0.3,0,0.4,0.1
				c0.1,0.1,0.3,0.1,0.4,0.2c0.1,0.1,0.2,0.2,0.2,0.4c0.1,0.1,0.1,0.3,0.1,0.4c0,0.2,0,0.3-0.1,0.4c-0.1,0.1-0.1,0.3-0.2,0.4
				c-0.1,0.1-0.2,0.2-0.4,0.2C88.4,46.8,88.3,46.8,88.1,46.8 M88.1,44.8c-0.1,0-0.2,0-0.4,0.1c-0.1,0.1-0.2,0.1-0.3,0.2
				c-0.1,0.1-0.2,0.2-0.2,0.3c-0.1,0.1-0.1,0.2-0.1,0.4c0,0.1,0,0.2,0.1,0.4c0.1,0.1,0.1,0.2,0.2,0.3c0.1,0.1,0.2,0.2,0.3,0.2
				c0.1,0.1,0.2,0.1,0.4,0.1c0.1,0,0.2,0,0.4-0.1c0.1,0,0.2-0.1,0.3-0.2c0.1-0.1,0.2-0.2,0.2-0.3c0-0.1,0.1-0.2,0.1-0.4
				c0-0.1,0-0.2-0.1-0.4c-0.1-0.1-0.1-0.2-0.2-0.3c-0.1-0.1-0.2-0.2-0.3-0.2C88.4,44.8,88.3,44.8,88.1,44.8"/>
		</g>
		<polygon class="st0" points="90.7,46.8 90.7,44.8 90.2,44.8 90.2,44.6 91.5,44.6 91.5,44.8 91,44.8 91,46.8 		"/>
		<polygon class="st0" points="92.5,46.8 92.5,44.6 93.7,44.6 93.7,44.8 92.8,44.8 92.8,45.6 93.7,45.6 93.7,45.8 92.8,45.8 
			92.8,46.6 93.7,46.6 93.7,46.8 		"/>
		<polygon class="st0" points="94.9,46.8 94.9,44.6 95.2,44.6 95.2,46.6 96.1,46.6 96.1,46.8 		"/>
		<g>
			<path class="st0" d="M91.1,38.9c0.2,0,0.4,0,0.7,0c0.3,0,0.6,0,0.9,0c0.3,0,0.6,0.1,0.9,0.1c0.3,0,0.5,0.1,0.6,0.1
				c0.1,0,0.1,0.1,0.3,0.3c0.1,0.2,0.2,0.4,0.4,0.7c0.1,0.2,0.2,0.5,0.3,0.7c0.1,0.2,0.2,0.4,0.2,0.5c0,0.1,0.1,0.3,0.2,0.4
				c0.1,0.1,0.2,0.2,0.3,0.2c0.1,0,0.1,0,0.3,0.1l0.4,0.1c0.1,0,0.3,0,0.4,0c0.1,0,0.2,0,0.3,0c0.1,0,0.2,0,0.3,0
				c0.1,0,0.1-0.1,0.1-0.3c0,0,0-0.1-0.1-0.2c-0.1-0.1-0.2-0.2-0.4-0.4c-0.2-0.2-0.4-0.5-0.7-1c-0.3-0.4-0.6-1-1-1.7
				c-0.6-1.1-1.2-2.1-1.6-3.1c-0.4-0.9-0.8-1.8-1.2-2.6c-0.1-0.2-0.2-0.4-0.4-0.5c-0.1-0.1-0.2-0.2-0.3-0.2c-0.1,0-0.1,0-0.2,0.1
				c-0.1,0-0.2,0.1-0.3,0.2c-0.1,0.1-0.2,0.1-0.3,0.2C91,32.8,91,32.9,91,32.9c0,0,0,0.1,0,0.2c0,0.1,0,0.1,0.1,0.2
				c0,0.1,0.1,0.2,0.1,0.2c0,0.1,0,0.1,0,0.1c0,0.3-0.1,0.6-0.2,1c-0.2,0.4-0.4,0.9-0.6,1.4c-0.2,0.5-0.5,1-0.8,1.6l-0.8,1.5
				l-0.6,1.2c-0.2,0.3-0.3,0.5-0.3,0.6c-0.1,0.3-0.3,0.5-0.4,0.6c-0.2,0.1-0.3,0.2-0.5,0.2c-0.1,0-0.1,0.1-0.2,0.1c0,0,0,0.1,0,0.3
				c0,0.1,0,0.1,0,0.2c0,0.1,0.1,0.1,0.1,0.1h0.2l0.4,0l0.4,0c0.2,0,0.3,0,0.4-0.1c0.1,0,0.1,0,0.2-0.1c0.1-0.1,0.1-0.2,0.1-0.4
				c0-0.1,0.1-0.2,0.2-0.4c0.1-0.2,0.2-0.4,0.3-0.7c0.1-0.2,0.2-0.5,0.4-0.7c0.1-0.2,0.2-0.4,0.3-0.6c0-0.1,0.1-0.2,0.2-0.3
				c0.1-0.1,0.1-0.1,0.2-0.2c0.1,0,0.2-0.1,0.4-0.1C90.7,38.9,90.9,38.9,91.1,38.9 M93.8,38.1h-3c-0.2,0-0.3,0-0.3-0.1
				c0-0.1,0-0.1,0.1-0.2l0.3-0.6l0.9-1.8c0-0.1,0.1-0.1,0.1-0.2l0.1-0.2l0.1-0.2c0-0.1,0.1-0.1,0.1-0.1c0.1,0,0.1,0.1,0.2,0.2
				c0,0.1,0.1,0.3,0.3,0.6L93.8,38.1z M83.1,37.4v2.3l0,1.5c0,0.4,0,0.7,0.1,1c0,0.2,0.1,0.4,0.1,0.5c0,0.1,0.1,0.2,0.2,0.2
				c0.1,0,0.1,0.1,0.2,0.1c0.2,0,0.3-0.1,0.4-0.3c0.1-0.2,0.1-0.7,0.1-1.3c0-2,0-3.6,0-4.8c0-1.2,0.1-2,0.1-2.5c0-0.2,0-0.4,0.1-0.5
				c0.1-0.1,0.1-0.3,0.1-0.4c0-0.1-0.1-0.1-0.2-0.2c-0.2-0.1-0.3-0.2-0.4-0.2c-0.1,0-0.2,0-0.3,0.1c-0.1,0.1-0.3,0.2-0.4,0.3
				c-0.1,0.1-0.3,0.2-0.4,0.4c-0.1,0.1-0.2,0.2-0.2,0.3c0,0.1,0,0.2,0,0.3c0,0.1,0.1,0.2,0.2,0.3c0.1,0.1,0.1,0.2,0.1,0.3
				c0,0.1,0,0.2,0,0.4c0,0.3,0,0.6,0,0.9C83.1,36.3,83.1,36.8,83.1,37.4 M81.2,31.4c0,0,0,0.1,0.1,0.2c0,0.1,0.1,0.1,0.2,0.2
				c0.1,0.1,0.1,0.1,0.2,0.2c0.1,0,0.1,0.1,0.2,0.1c0.1,0,0.2,0,0.3-0.1c0.3-0.2,0.5-0.4,0.6-0.5c0.1-0.1,0.1-0.2,0.1-0.3
				c0-0.1,0-0.1-0.1-0.2c-0.1-0.1-0.1-0.2-0.2-0.3c-0.1-0.1-0.2-0.2-0.3-0.2c-0.1-0.1-0.2-0.1-0.2-0.1c-0.1,0-0.2,0-0.3,0.1
				c-0.1,0.1-0.2,0.2-0.3,0.3c-0.1,0.1-0.1,0.2-0.2,0.4C81.3,31.2,81.2,31.3,81.2,31.4 M84.4,31c0,0.1,0,0.2,0.1,0.3
				c0.1,0.1,0.2,0.2,0.3,0.3c0.1,0.1,0.2,0.2,0.4,0.3c0.1,0.1,0.3,0.1,0.5,0.1c0,0,0.1,0,0.2-0.1c0.1-0.1,0.1-0.1,0.2-0.2
				c0.1-0.1,0.1-0.2,0.1-0.3c0-0.1,0.1-0.2,0.1-0.2c0-0.1,0-0.1-0.1-0.2c-0.1-0.1-0.1-0.2-0.2-0.3c-0.1-0.1-0.2-0.2-0.3-0.2
				c-0.1-0.1-0.2-0.1-0.2-0.1c0,0-0.1,0-0.2,0.1c-0.1,0-0.2,0.1-0.3,0.2c-0.1,0.1-0.2,0.1-0.3,0.2C84.5,30.9,84.4,30.9,84.4,31
				 M74.2,39c0.2,0,0.4,0,0.7,0c0.3,0,0.6,0,0.9,0c0.3,0,0.6,0.1,0.9,0.1c0.3,0,0.5,0.1,0.6,0.1c0.1,0,0.1,0.1,0.3,0.3
				c0.1,0.2,0.2,0.4,0.4,0.7c0.1,0.2,0.2,0.5,0.3,0.7c0.1,0.2,0.2,0.4,0.2,0.5c0,0.1,0.1,0.3,0.2,0.4c0.1,0.1,0.2,0.2,0.3,0.2
				c0.1,0,0.1,0,0.3,0.1l0.4,0.1c0.1,0,0.3,0,0.4,0.1c0.1,0,0.2,0,0.3,0c0.1,0,0.2,0,0.3-0.1c0.1,0,0.1-0.1,0.1-0.3
				c0,0,0-0.1-0.1-0.2c-0.1-0.1-0.2-0.2-0.4-0.4c-0.2-0.2-0.4-0.5-0.7-1c-0.3-0.4-0.6-1-1-1.7c-0.6-1.1-1.2-2.1-1.6-3.1
				c-0.4-0.9-0.8-1.8-1.2-2.6c-0.1-0.2-0.2-0.4-0.4-0.5c-0.1-0.1-0.2-0.2-0.3-0.2c-0.1,0-0.1,0-0.2,0.1c-0.1,0-0.2,0.1-0.3,0.2
				c-0.1,0.1-0.2,0.1-0.3,0.2C74,32.9,74,32.9,74,33c0,0,0,0.1,0,0.2c0,0.1,0,0.1,0.1,0.2c0,0.1,0.1,0.2,0.1,0.2c0,0.1,0,0.1,0,0.1
				c0,0.3-0.1,0.6-0.2,1c-0.2,0.4-0.4,0.9-0.6,1.4c-0.2,0.5-0.5,1-0.8,1.6l-0.8,1.5l-0.6,1.2c-0.2,0.3-0.3,0.5-0.3,0.6
				c-0.1,0.3-0.3,0.5-0.4,0.6c-0.2,0.1-0.3,0.2-0.5,0.2c-0.1,0-0.1,0.1-0.2,0.1c0,0,0,0.1,0,0.3c0,0.1,0,0.1,0,0.2
				c0,0.1,0.1,0.1,0.1,0.1h0.2l0.4,0l0.4,0c0.2,0,0.3,0,0.4-0.1c0.1,0,0.1,0,0.2-0.1c0.1-0.1,0.1-0.2,0.1-0.4c0-0.1,0.1-0.2,0.2-0.4
				c0.1-0.2,0.2-0.4,0.3-0.7c0.1-0.2,0.2-0.5,0.4-0.7c0.1-0.2,0.2-0.4,0.3-0.6c0-0.1,0.1-0.2,0.2-0.3c0.1-0.1,0.1-0.1,0.2-0.2
				c0.1,0,0.2,0,0.4,0C73.7,39,73.9,39,74.2,39 M76.8,38.2h-3c-0.2,0-0.3,0-0.3-0.1c0-0.1,0-0.1,0.1-0.2l0.3-0.6l0.9-1.8
				c0-0.1,0.1-0.1,0.1-0.2l0.1-0.2l0.1-0.2c0-0.1,0.1-0.1,0.1-0.1c0.1,0,0.1,0.1,0.2,0.2c0,0.1,0.1,0.3,0.3,0.6L76.8,38.2z
				 M55.5,33.8c0,0.3,0.1,0.8,0.4,1.3c0.2,0.5,0.6,1.1,0.9,1.8c0.4,0.6,0.8,1.2,1.3,1.9c0.5,0.6,1,1.2,1.6,1.7
				c0.5,0.5,1.1,0.9,1.6,1.2c0.5,0.3,1,0.5,1.5,0.5c0.8,0,1.5-0.2,2.1-0.6c0.6-0.4,1.2-0.9,1.7-1.4c0.5-0.6,1-1.2,1.3-1.9
				c0.4-0.7,0.7-1.3,1-1.9c0.3-0.6,0.5-1.1,0.6-1.5c0.1-0.4,0.2-0.7,0.2-0.7c0-0.1,0-0.2-0.1-0.3c0-0.1-0.1-0.1-0.2-0.2
				c-0.5-0.2-0.8-0.3-0.9-0.3c-0.2,0-0.3,0.1-0.4,0.3c0,0.2-0.1,0.5-0.1,0.9c0,0.2,0,0.5-0.1,0.9c-0.1,0.4-0.2,0.8-0.4,1.3
				c-0.2,0.5-0.4,1-0.6,1.4c-0.3,0.5-0.6,0.9-0.9,1.3c-0.4,0.4-0.8,0.7-1.2,1c-0.5,0.3-1,0.4-1.5,0.4c-0.4,0-0.9-0.1-1.3-0.3
				c-0.5-0.2-0.9-0.5-1.4-0.9c-0.4-0.4-0.9-0.8-1.3-1.2c-0.4-0.5-0.8-0.9-1.1-1.4c-0.3-0.5-0.6-0.9-0.8-1.3c-0.2-0.4-0.3-0.7-0.3-1
				c0-0.3,0-0.5,0-0.8c0-0.2,0-0.4,0-0.6c0-0.3-0.1-0.4-0.3-0.4c-0.1,0-0.1,0-0.3,0c-0.1,0-0.2,0-0.3,0.1c-0.1,0-0.2,0.1-0.3,0.1
				c-0.1,0-0.2,0-0.2,0.1C55.6,33.5,55.5,33.6,55.5,33.8 M46.4,41.8V39c0-0.1,0-0.2,0-0.3c0-0.1,0-0.2,0.1-0.3
				c0.2,0,0.4-0.1,0.8-0.1c0.4,0,0.8-0.1,1.2-0.1c0.4,0,0.9,0,1.3,0c0.4,0,0.8,0,1.1,0l0.2,12.3c0,0.2,0,0.3,0.1,0.4
				c0.1,0.1,0.2,0.1,0.3,0.1c0.1,0,0.1,0,0.2-0.1c0.1-0.1,0.1-0.1,0.2-0.2c0-0.1,0.1-0.2,0.1-0.3c0-0.1,0-8.6,0-8.6l0-3.3
				c0-0.1,0.1-0.2,0.2-0.2c0.1,0,0.1,0,0.1,0c0,0,0.1,0,0.1,0c0.1,0,0.2-0.1,0.3-0.3c0.1-0.2,0.1-0.3,0.1-0.4c0-0.1,0-0.2-0.1-0.2
				c0,0-0.1-0.1-0.2-0.1c-0.1,0-0.2,0-0.3,0c-0.1,0-0.2,0-0.3,0v-0.6l0-0.7c0-0.2,0-0.5,0.1-0.7c0-0.2,0.1-0.5,0.1-0.7
				c0-0.2,0.1-0.3,0.1-0.4c0-0.1,0.1-0.2,0.1-0.3l0.1-0.2c0-0.1,0.1-0.1,0.1-0.2c0-0.2-0.1-0.2-0.3-0.2c-0.1,0-0.2,0-0.4,0.1
				c-0.2,0-0.3,0.1-0.5,0.1c-0.1,0-0.3,0.1-0.4,0.2C51,33.6,51,33.7,51,33.7c0,0.2,0,0.4,0,0.7c0,0.3,0.1,0.7,0.1,1.1
				c0,0.3,0,0.6,0,0.9c0,0.3,0,0.5,0,0.8h-4.5c0-0.4,0-0.8,0-1.3c0-0.4,0-0.9,0-1.3c0-0.3,0.1-0.5,0.1-0.7c0.1-0.2,0.1-0.3,0.1-0.4
				c0-0.1-0.1-0.1-0.2-0.2c-0.1-0.1-0.2-0.1-0.3-0.2C46.3,33.1,46.1,33,46,33c-0.1,0-0.3-0.1-0.4-0.1c-0.1,0-0.2,0-0.4,0.1
				c-0.1,0.1-0.2,0.1-0.3,0.2c-0.1,0.1-0.1,0.2-0.2,0.2c0,0.1-0.1,0.1-0.1,0.2c0,0.1,0,0.2,0.1,0.2l0.3,0.2c0.1,0.1,0.2,0.2,0.3,0.3
				c0.1,0.1,0.1,0.2,0.1,0.3l0,0.8c0,0.3,0,0.6,0,0.9c0,0.3,0,0.7,0,1v1c0,0.7,0,1.4-0.1,2c0,0.6-0.1,1.2-0.1,1.8
				c0,0.1,0,0.2,0.1,0.3c0,0.1,0.1,0.1,0.3,0.1C46.2,42.6,46.4,42.3,46.4,41.8 M37.4,42c0,0.1,0,0.2,0,0.3c0,0.1,0,0.2,0.1,0.3
				c0,0.1,0.1,0.1,0.2,0.2c0.1,0.1,0.3,0.1,0.4,0.2c0.2,0.1,0.3,0.1,0.5,0.1c0.2,0,0.3,0,0.4,0c0.4,0,0.7-0.1,1-0.4
				c0.3-0.2,0.5-0.5,0.6-0.8c0.2-0.3,0.3-0.6,0.3-0.9c0.1-0.3,0.1-0.5,0.1-0.6c0-0.5-0.1-1-0.3-1.5c-0.2-0.5-0.4-1.1-0.6-1.6
				L39.4,36c-0.2-0.4-0.3-0.8-0.3-1.1c0-0.5,0.2-0.9,0.5-1.2c0.3-0.3,0.9-0.5,1.6-0.5c0.3,0,0.5-0.1,0.6-0.1
				c0.1-0.1,0.1-0.2,0.1-0.4c0-0.1-0.1-0.2-0.2-0.2c-0.1-0.1-0.2-0.1-0.4-0.2c-0.1,0-0.3-0.1-0.5-0.1c-0.1,0-0.3,0-0.3,0
				c-0.4,0-0.7,0.1-1,0.4c-0.3,0.3-0.6,0.6-0.9,0.9c-0.2,0.4-0.4,0.7-0.6,1.1c-0.1,0.3-0.2,0.6-0.2,0.8c0,0.2,0,0.5,0.2,0.8
				c0.1,0.3,0.2,0.6,0.4,1c0.2,0.3,0.3,0.7,0.5,1.1c0.2,0.4,0.4,0.7,0.5,1.1c0.2,0.3,0.3,0.7,0.4,1c0.1,0.3,0.2,0.6,0.2,0.8
				c0,0.2-0.1,0.5-0.3,0.7c-0.2,0.2-0.4,0.3-0.7,0.3c-0.3,0-0.6-0.1-0.8-0.2c-0.2-0.1-0.4-0.2-0.6-0.2c-0.1,0-0.1,0-0.2,0.1
				C37.4,41.8,37.4,41.9,37.4,42 M20.8,33.7c0,0.3,0.1,0.8,0.4,1.3c0.2,0.5,0.6,1.1,0.9,1.7c0.4,0.6,0.8,1.2,1.3,1.9
				c0.5,0.6,1,1.2,1.6,1.7c0.5,0.5,1.1,0.9,1.6,1.2c0.5,0.3,1,0.5,1.5,0.5c0.8,0,1.5-0.2,2.1-0.6c0.6-0.4,1.2-0.9,1.7-1.4
				c0.5-0.6,1-1.2,1.3-1.9c0.4-0.7,0.7-1.3,1-1.9c0.3-0.6,0.5-1.1,0.6-1.5C35,34.4,35,34.1,35,34c0-0.1,0-0.2-0.1-0.3
				c0-0.1-0.1-0.1-0.2-0.2c-0.5-0.2-0.8-0.3-0.9-0.3c-0.2,0-0.3,0.1-0.4,0.3c0,0.2-0.1,0.5-0.1,0.9c0,0.2,0,0.5-0.1,0.9
				c-0.1,0.4-0.2,0.8-0.4,1.3c-0.2,0.5-0.4,1-0.6,1.4c-0.3,0.5-0.6,0.9-0.9,1.3c-0.4,0.4-0.8,0.7-1.2,1c-0.5,0.3-1,0.4-1.5,0.4
				c-0.4,0-0.9-0.1-1.3-0.3c-0.5-0.2-0.9-0.5-1.4-0.9c-0.4-0.4-0.9-0.8-1.3-1.2c-0.4-0.5-0.8-0.9-1.1-1.4c-0.3-0.5-0.6-0.9-0.8-1.3
				c-0.2-0.4-0.3-0.7-0.3-1c0-0.3,0-0.5,0-0.8c0-0.2,0.1-0.4,0.1-0.6c0-0.3-0.1-0.4-0.3-0.4c-0.1,0-0.1,0-0.3,0
				c-0.1,0-0.2,0-0.3,0.1c-0.1,0-0.2,0.1-0.3,0.1c-0.1,0-0.2,0-0.2,0.1C20.9,33.3,20.8,33.5,20.8,33.7"/>
		</g>
	</g>
	<g>
		<path class="st0" d="M23.1,27.1L23.1,27.1C23.1,27.1,23.1,27.1,23.1,27.1C23,27,23,27,23.1,27.1C23,27,23,27,23,27
			c-0.2-0.2-0.4-0.3-0.7-0.4c0,0,0,0,0,0c-0.4-0.2-0.8-0.4-1.2-0.6c-0.1-0.1-0.3-0.1-0.4-0.2l0,0c-0.2-0.1-0.4-0.1-0.5-0.2
			c-0.1,0-0.1,0-0.1,0c-0.1-0.1-0.3-0.1-0.4-0.1l0,0l0,0l0,0l0,0l0,0l0,0c-0.3-0.1-0.5-0.2-0.7-0.4c0,0-0.1,0-0.1-0.1
			c-0.3-0.2-1-0.8-1.5-1c-0.1,0-0.1,0-0.2-0.1c0,0-0.1,0-0.1,0c-0.4-0.1-0.7,0-1,0.1c-0.4,0.1-1.1,0.4-1.5,0.6
			c-0.5,0.2-2.1,0.6-2.2,0.7h0c-0.2,0.1-0.6,0.1-1-0.3c-0.4-0.4-2.1-1.8-2.8-2.4c-0.4-0.4-1.2-0.7-2.2-1.1c0,0-0.1,0-0.1,0
			c-0.5-0.2-1-0.4-1.5-0.7c0,0,0,0-0.1,0c-1.6-0.9-1.8-1.2-1.8-1.3c0,0-0.1-0.1-0.1-0.1c0,0,0,0-0.1,0c0,0,0,0,0,0
			c-0.1,0-0.1,0-0.2,0.1l0,0c-0.1,0.2,0.3,0.8,0.3,0.8l0,0c-0.1,0.4,0.5,1.2,0.5,1.2l0,0c-0.2,0.5,0.7,1.3,0.7,1.3
			c0,0.8,0.8,1.3,0.8,1.3c0,0,0,0.1,0,0.1c0,0,0,0,0,0.1l0,0v0C4.8,24.6,5.4,25,5.4,25s-0.3,0.2,0.1,0.6c0.3,0.3,0.8,0.6,0.8,0.6
			c-0.7,0.5,0.5,0.9,0.5,0.9c-0.1,0.4,0.2,0.6,0.5,0.7c0.2,0.1,0.5,0.1,0.5,0.1c-0.2,0.4,0.1,0.6,0.3,0.6c0.2,0.1,0.3,0.1,0.3,0.1
			l0.2,0.2c0,0.1,0,0.1-0.1,0.2l0,0c0,0.1,0,0.1-0.1,0.2c-0.1,0.5-0.3,1-0.4,1.6c0,0.2-0.1,0.3-0.1,0.5C8,31.9,7.9,32.4,7.9,33
			c0,0.8,0,2.8,0.1,3.3c0,0.3,0.2,1.7,0.3,2.5c0,0,0.3,1.7,0.3,1.8c0,0.1,0.4,1.1,0.4,1.2c0,0,0-0.1,0-0.2C9,41.3,9,41.1,9,40.8
			c-0.3-3.2,0.8-5.9,2-7.4c0.4-0.5,1.5-1.6,2.2-2.4c0.5-0.6,1.8-2.9,1.8-2.9c0.5,0,1.2-0.6,1.6-0.9c0.2-0.1,0.4-0.2,0.7-0.4
			c0.4-0.2,0.8-0.4,0.9-0.5c0.1-0.1,0.4-0.2,0.6-0.2h0c0.1,0,0.2,0,0.2,0c0.5-0.1,1.2,0,1.9,0.2c0,0,0,0,0,0c0,0,0,0,0,0
			c0.8,0.3,1.6,0.6,1.9,0.7c0.1,0,0.1,0.1,0.1,0.1l0,0C23,27.1,23,27.1,23.1,27.1C23,27.1,23.1,27.1,23.1,27.1
			C23.2,27.2,23.1,27.1,23.1,27.1 M16.8,25.7c-0.3,0-0.5-0.2-0.5-0.5c0-0.1,0.1-0.2,0.1-0.3c0,0,0,0,0,0c0.1-0.1,0.2-0.1,0.3-0.1
			c0.3,0,0.5,0.2,0.5,0.5C17.3,25.4,17.1,25.7,16.8,25.7"/>
	</g>
</g>
</svg>
