<?xml version="1.0" encoding="utf-8"?>
<!-- Generator: Adobe Illustrator 26.0.3, SVG Export Plug-In . SVG Version: 6.00 Build 0)  -->
<svg version="1.1" id="Capa_1" xmlns="http://www.w3.org/2000/svg" xmlns:xlink="http://www.w3.org/1999/xlink" x="0px" y="0px"
	 viewBox="0 0 30 30" style="enable-background:new 0 0 30 30;" xml:space="preserve">
<style type="text/css">
	.st0{fill:#9A7611;}
</style>
<g>
	<path class="st0" d="M15,1.7C7.6,1.7,1.7,7.6,1.7,15s6,13.3,13.3,13.3s13.3-6,13.3-13.3S22.4,1.7,15,1.7z M23.1,19.1
		c-0.1,0.4-0.3,0.7-0.6,1c-0.3,0.3-0.6,0.5-1,0.6C20.3,21,14.9,21,14.9,21s-5.4,0-6.7-0.4c-0.4-0.1-0.7-0.3-1-0.6
		c-0.3-0.3-0.5-0.6-0.6-1c-0.6-2.3-0.4-5.9,0-8.2c0.1-0.4,0.3-0.7,0.6-1c0.3-0.3,0.6-0.5,1-0.6C9.5,9,14.9,9,14.9,9s5.4,0,6.7,0.4
		c0.4,0.1,0.7,0.3,1,0.6c0.3,0.3,0.5,0.6,0.6,1C23.7,13.2,23.5,16.8,23.1,19.1z"/>
	<polygon class="st0" points="13.2,17.6 17.6,15 13.2,12.4 	"/>
</g>
</svg>
